<mxfile host="app.diagrams.net" agent="Mozilla/5.0 (Macintosh; Intel Mac OS X 10_15_7) AppleWebKit/537.36 (KHTML, like Gecko) Chrome/131.0.0.0 Safari/537.36" version="24.8.8">
  <diagram name="Page-1" id="V_zwRV-Pm3GcFJWJ3Npe">
    <mxGraphModel dx="1509" dy="801" grid="1" gridSize="10" guides="1" tooltips="1" connect="1" arrows="1" fold="1" page="1" pageScale="1" pageWidth="850" pageHeight="1100" math="0" shadow="0">
      <root>
        <mxCell id="0" />
        <mxCell id="1" parent="0" />
        <mxCell id="1LwYjgLk3Wemf2uPsbQc-1" value="" style="rounded=0;whiteSpace=wrap;html=1;" vertex="1" parent="1">
          <mxGeometry x="160" y="65" width="1240" height="560" as="geometry" />
        </mxCell>
        <mxCell id="1LwYjgLk3Wemf2uPsbQc-26" value="" style="rounded=0;whiteSpace=wrap;html=1;" vertex="1" parent="1">
          <mxGeometry x="200" y="150" width="620" height="260" as="geometry" />
        </mxCell>
        <mxCell id="1LwYjgLk3Wemf2uPsbQc-2" style="edgeStyle=orthogonalEdgeStyle;rounded=0;orthogonalLoop=1;jettySize=auto;html=1;entryX=0;entryY=0.5;entryDx=0;entryDy=0;" edge="1" parent="1" target="1LwYjgLk3Wemf2uPsbQc-8">
          <mxGeometry relative="1" as="geometry">
            <mxPoint x="120" y="345" as="sourcePoint" />
          </mxGeometry>
        </mxCell>
        <UserObject label="&lt;meta charset=&quot;utf-8&quot;&gt;&lt;b id=&quot;docs-internal-guid-b613186f-7fff-1848-9c11-ea0f9c1da763&quot; style=&quot;font-weight:normal;&quot;&gt;&lt;img src=&quot;https://lh7-rt.googleusercontent.com/slidesz/AGV_vUel6fSkpZyQudkEK3jfwEzBytmWeipZRU_d30hSUiY2DaB3i6a0jRRCw1nucrhc6Eue4uDGF7ojbHKvkVDNNLN8_d5J_TDgNJvAzO9OEpyLt0STkiMGpjOBVwVmj1g0kO06WNVpkA=s2048?key=qyX8_bzi-rbOvcE1Sb9VhLHG&quot; height=&quot;66px;&quot; width=&quot;176px;&quot;&gt;&lt;/b&gt;" link="&lt;meta charset=&quot;utf-8&quot;&gt;&lt;b id=&quot;docs-internal-guid-b613186f-7fff-1848-9c11-ea0f9c1da763&quot; style=&quot;font-weight:normal;&quot;&gt;&lt;img src=&quot;https://lh7-rt.googleusercontent.com/slidesz/AGV_vUel6fSkpZyQudkEK3jfwEzBytmWeipZRU_d30hSUiY2DaB3i6a0jRRCw1nucrhc6Eue4uDGF7ojbHKvkVDNNLN8_d5J_TDgNJvAzO9OEpyLt0STkiMGpjOBVwVmj1g0kO06WNVpkA=s2048?key=qyX8_bzi-rbOvcE1Sb9VhLHG&quot; height=&quot;66px;&quot; width=&quot;176px;&quot;&gt;&lt;/b&gt;" id="1LwYjgLk3Wemf2uPsbQc-6">
          <mxCell style="rounded=0;whiteSpace=wrap;html=1;" vertex="1" parent="1">
            <mxGeometry x="290" y="210" width="490" height="80" as="geometry" />
          </mxCell>
        </UserObject>
        <mxCell id="1LwYjgLk3Wemf2uPsbQc-7" style="edgeStyle=orthogonalEdgeStyle;rounded=0;orthogonalLoop=1;jettySize=auto;html=1;exitX=0.5;exitY=1;exitDx=0;exitDy=0;entryX=0.5;entryY=0;entryDx=0;entryDy=0;" edge="1" parent="1" source="1LwYjgLk3Wemf2uPsbQc-8" target="1LwYjgLk3Wemf2uPsbQc-32">
          <mxGeometry relative="1" as="geometry">
            <mxPoint x="310" y="450" as="targetPoint" />
          </mxGeometry>
        </mxCell>
        <mxCell id="1LwYjgLk3Wemf2uPsbQc-8" value="Extract Data" style="rounded=1;whiteSpace=wrap;html=1;" vertex="1" parent="1">
          <mxGeometry x="250" y="315" width="120" height="60" as="geometry" />
        </mxCell>
        <mxCell id="1LwYjgLk3Wemf2uPsbQc-9" style="edgeStyle=orthogonalEdgeStyle;rounded=0;orthogonalLoop=1;jettySize=auto;html=1;exitX=0.5;exitY=1;exitDx=0;exitDy=0;entryX=0.5;entryY=0;entryDx=0;entryDy=0;" edge="1" parent="1" source="1LwYjgLk3Wemf2uPsbQc-10" target="1LwYjgLk3Wemf2uPsbQc-33">
          <mxGeometry relative="1" as="geometry">
            <mxPoint x="510" y="450" as="targetPoint" />
          </mxGeometry>
        </mxCell>
        <mxCell id="1LwYjgLk3Wemf2uPsbQc-10" value="Transform Data" style="rounded=1;whiteSpace=wrap;html=1;" vertex="1" parent="1">
          <mxGeometry x="450" y="315" width="120" height="60" as="geometry" />
        </mxCell>
        <mxCell id="1LwYjgLk3Wemf2uPsbQc-11" style="edgeStyle=orthogonalEdgeStyle;rounded=0;orthogonalLoop=1;jettySize=auto;html=1;exitX=1;exitY=0.5;exitDx=0;exitDy=0;entryX=0;entryY=0.5;entryDx=0;entryDy=0;" edge="1" parent="1" source="1LwYjgLk3Wemf2uPsbQc-12" target="1LwYjgLk3Wemf2uPsbQc-35">
          <mxGeometry relative="1" as="geometry">
            <mxPoint x="860" y="345" as="targetPoint" />
          </mxGeometry>
        </mxCell>
        <mxCell id="1LwYjgLk3Wemf2uPsbQc-12" value="Load Data" style="rounded=1;whiteSpace=wrap;html=1;" vertex="1" parent="1">
          <mxGeometry x="650" y="315" width="120" height="60" as="geometry" />
        </mxCell>
        <mxCell id="1LwYjgLk3Wemf2uPsbQc-13" style="edgeStyle=orthogonalEdgeStyle;rounded=0;orthogonalLoop=1;jettySize=auto;html=1;exitX=1;exitY=0.5;exitDx=0;exitDy=0;entryX=0;entryY=0.5;entryDx=0;entryDy=0;" edge="1" parent="1" source="1LwYjgLk3Wemf2uPsbQc-32" target="1LwYjgLk3Wemf2uPsbQc-10">
          <mxGeometry relative="1" as="geometry">
            <mxPoint x="355" y="495" as="sourcePoint" />
          </mxGeometry>
        </mxCell>
        <mxCell id="1LwYjgLk3Wemf2uPsbQc-15" style="edgeStyle=orthogonalEdgeStyle;rounded=0;orthogonalLoop=1;jettySize=auto;html=1;entryX=0;entryY=0.5;entryDx=0;entryDy=0;" edge="1" parent="1" source="1LwYjgLk3Wemf2uPsbQc-33" target="1LwYjgLk3Wemf2uPsbQc-12">
          <mxGeometry relative="1" as="geometry">
            <mxPoint x="560" y="490" as="sourcePoint" />
          </mxGeometry>
        </mxCell>
        <mxCell id="1LwYjgLk3Wemf2uPsbQc-18" value="Google Cloud Storage&lt;br&gt;&lt;div&gt;(raw data)&lt;/div&gt;" style="text;html=1;align=center;verticalAlign=middle;whiteSpace=wrap;rounded=0;" vertex="1" parent="1">
          <mxGeometry x="250" y="540" width="125" height="20" as="geometry" />
        </mxCell>
        <mxCell id="1LwYjgLk3Wemf2uPsbQc-19" value="Google Cloud Storage&lt;br&gt;&lt;div&gt;(Transformed Data)&lt;/div&gt;" style="text;html=1;align=center;verticalAlign=middle;whiteSpace=wrap;rounded=0;" vertex="1" parent="1">
          <mxGeometry x="450" y="540" width="130" height="20" as="geometry" />
        </mxCell>
        <mxCell id="1LwYjgLk3Wemf2uPsbQc-20" value="Big Query&lt;br&gt;&lt;div&gt;(data warehouse)&lt;/div&gt;" style="text;html=1;align=center;verticalAlign=middle;whiteSpace=wrap;rounded=0;" vertex="1" parent="1">
          <mxGeometry x="891.27" y="400" width="110" height="20" as="geometry" />
        </mxCell>
        <mxCell id="1LwYjgLk3Wemf2uPsbQc-22" style="edgeStyle=orthogonalEdgeStyle;rounded=0;orthogonalLoop=1;jettySize=auto;html=1;exitX=1;exitY=0.5;exitDx=0;exitDy=0;entryX=0;entryY=0.5;entryDx=0;entryDy=0;" edge="1" parent="1" source="1LwYjgLk3Wemf2uPsbQc-35" target="1LwYjgLk3Wemf2uPsbQc-36">
          <mxGeometry relative="1" as="geometry">
            <mxPoint x="960" y="345" as="sourcePoint" />
            <mxPoint x="1080" y="218.98432000000003" as="targetPoint" />
          </mxGeometry>
        </mxCell>
        <mxCell id="1LwYjgLk3Wemf2uPsbQc-23" value="&lt;div&gt;Google Looker Studio&lt;/div&gt;&lt;div&gt;(data visualization)&lt;/div&gt;" style="text;html=1;align=center;verticalAlign=middle;whiteSpace=wrap;rounded=0;" vertex="1" parent="1">
          <mxGeometry x="1120" y="270" width="120" height="10" as="geometry" />
        </mxCell>
        <UserObject label="&lt;b style=&quot;font-weight:normal;&quot; id=&quot;docs-internal-guid-5b43d009-7fff-79a3-e5bb-63e058557950&quot;&gt;&lt;img width=&quot;122px;&quot; height=&quot;51px;&quot; src=&quot;https://lh7-rt.googleusercontent.com/slidesz/AGV_vUdbdra_yulrFV9fM8RW0fl_JMgSWeBJc9vF6UvcZOVIvxKpA_MVQVGgAkUmuE1r8PcPfPRRvoe2pyak1QuxFAApEoEAkBoRCjzeJ-oqrsbJXGofiAaibNqXEc9y2c7qwMEM4m4vog=s2048?key=qyX8_bzi-rbOvcE1Sb9VhLHG&quot;&gt;&lt;/b&gt;" link="&lt;b style=&quot;font-weight:normal;&quot; id=&quot;docs-internal-guid-5b43d009-7fff-79a3-e5bb-63e058557950&quot;&gt;&lt;img width=&quot;122px;&quot; height=&quot;51px;&quot; src=&quot;https://lh7-rt.googleusercontent.com/slidesz/AGV_vUdbdra_yulrFV9fM8RW0fl_JMgSWeBJc9vF6UvcZOVIvxKpA_MVQVGgAkUmuE1r8PcPfPRRvoe2pyak1QuxFAApEoEAkBoRCjzeJ-oqrsbJXGofiAaibNqXEc9y2c7qwMEM4m4vog=s2048?key=qyX8_bzi-rbOvcE1Sb9VhLHG&quot;&gt;&lt;/b&gt;" id="1LwYjgLk3Wemf2uPsbQc-24">
          <mxCell style="text;whiteSpace=wrap;html=1;" vertex="1" parent="1">
            <mxGeometry y="315" width="120" height="60" as="geometry" />
          </mxCell>
        </UserObject>
        <mxCell id="1LwYjgLk3Wemf2uPsbQc-25" value="" style="shape=image;verticalLabelPosition=bottom;labelBackgroundColor=default;verticalAlign=top;aspect=fixed;imageAspect=0;image=https://download.logo.wine/logo/Google_Cloud_Platform/Google_Cloud_Platform-Logo.wine.png;clipPath=inset(34.5% 7% 36.5% 8.67%);" vertex="1" parent="1">
          <mxGeometry x="160" y="80.00000000000006" width="190" height="43.55731225296443" as="geometry" />
        </mxCell>
        <mxCell id="1LwYjgLk3Wemf2uPsbQc-31" value="" style="shape=image;verticalLabelPosition=bottom;labelBackgroundColor=default;verticalAlign=top;aspect=fixed;imageAspect=0;image=data:image/png,iVBORw0KGgoAAAANSUhEUgAAArIAAAFqCAYAAADm/LlfAAAAAXNSR0IArs4c6QAAIABJREFUeF7snQeAFEXWxyt0mJnNINGIyCEqCAYQQQTjGTFy5CxZxASeniCKShZUQDmSIKJgTqeeiofe6SmeCRQlKkhOuzupU9X3verpZVkW2KQy+uYOF3a6u6p/Vd3971cvUIIfJIAEkAASQAJIAAkgASSQhgRoGvYZu4wEkAASQAJIAAkgASSABAgKWZwESAAJIAEkgASQABJAAmlJAIVsWg4bdhoJIAEkgASQABJAAkgAhSzOASSABJAAEkACSAAJIIG0JIBCNi2HDTuNBJAAEkACSAAJIAEkgEIW5wASQAJIAAkgASSABJBAWhJAIZuWw4adRgJIAAkgASSABJAAEkAhi3MACSABJIAEkAASQAJIIC0JoJBNy2HDTiMBJIAEkAASQAJIAAmgkMU5gASQABJAAkgACSABJJCWBFDIpuWwYaeRABJAAkgACSABJIAEUMjiHEACSAAJIAEkgASQABJISwIoZNNy2LDTSAAJIAEkgASQABJAAihkcQ4gASSABJAAEkACSAAJpCUBFLJpOWzYaSSABJAAEkACSAAJIAEUsjgHkAASQAJIAAkgASSABNKSAArZtBw27DQSQAJIAAkgASSABJAAClmcA0gACSABJIAEkAASQAJpSQCFbFoOG3YaCSABJIAEkAASQAJIAIUszgEkgASQABJAAkgACSCBtCSAQjYthw07jQSQABJAAkgACSABJIBCFucAEkACSAAJIAEkgASQQFoSQCGblsOGnUYCSAAJIAEkgASQABJAIYtzAAkgASSABJAAEkACSCAtCaCQTcthw04jASSABJAAEkACSAAJoJDFOYAEkAASQAJIAAkgASSQlgRQyKblsGGnkQASQAJIAAkgASSABFDI4hxAAkgACSABJIAEkAASSEsCKGTTctiw00gACSABJIAEkAASQAIoZHEOIAEkgASQABJAAkgACaQlARSyaTls2GkkgASQABJAAkgACSABFLI4B5AAEkACSAAJIAEkgATSkgAK2bQcNuw0EkACSAAJIAEkgASQAApZnANIAAkgASSABJAAEkACaUkAhWxaDht2GgkgASSABJAAEkACSACFLM4BJIAEkAASQAJIAAkggbQkgEI2LYcNO40EkAASQAJIAAkgASSAQhbnABJAAkgACSABJIAEkEBaEkAhm5bDhp1GAkgACSABJIAEkAASQCGLcwAJIAEkgASQABJAAkggLQmgkE3LYcNOIwEkgASQABJAAkgACaCQxTmABJAAEkACSAAJIAEkkJYEUMim5bBhp5EAEkACSAAJIAEkgARQyOIcQAJIAAkgASSABJAAEkhLAihk03LYsNNIAAkgASSABJAAEkACKGRxDiABJIAEkAASQAJIAAmkJQEUsmk5bNhpJIAEkAASQAJIAAkgARSyOAeQABJAAkgACSABJIAE0pIACtm0HDbsNBJAAkgACSABJIAEkAAKWZwDSAAJIAEkgASQABJAAmlJAIVsWg4bdhoJIAEkgASQABJAAkgAhSzOASSABJAAEkACSAAJIIG0JIBCNi2HDTuNBJAAEkACSAAJIAEkgEIW5wASQAJIAAkgASSABJBAWhJAIZuWw4adRgJIAAkgASSABJAAEkAhi3MACSABJIAEkAASQAJIIC0JoJBNy2HDTiMBJIAEkAASQAJIAAmgkMU5gASQABJAAkgACSABJJCWBFDIpuWwYaeRABJAAkgACSABJIAEUMjiHEACSAAJIAEkgASQABJISwIoZNNy2LDTSAAJIAEkgASQABJAAihkcQ4gASSABJAAEkACSAAJpCUBFLJpOWzYaSSABJAAEkACSAAJIAEUsjgHkAASQAJIAAkgASSABNKSAArZtBw27DQSQAJIAAkgASSABJAAClmcA0gACSABJIAEkAASQAJpSQCFbFoOG3YaCSABJIAEkAASQAJIAIUszgEkgASQABJAAkgACSCBtCSAQjYthw07jQSQABJAAkgACSABJIBCFucAEkACSAAJIAEkgASQQFoSQCGblsOGnUYCSAAJIAEkgASQABJAIYtzAAkgASSABJAAEkACSCAtCaCQTcthw04jASSABJAAEkACSAAJoJDFOYAEkAASQAJIAAkgASSQlgRQyKblsGGnkQASQAJIAAkgASSABFDI4hxAAkgACSABJIAEkAASSEsCKGTTctiw00gACSABJIAEkAASQAIoZHEOIAEkgASQABJAAkgACaQlARSyaTls2GkkgASQABJAAkgACSABFLI4B5AAEkACSAAJIAEkgATSkgAK2bQcNuw0EkACSAAJIAEkgASQAApZnANIAAkgASSABJAAEkACaUkAhWxaDht2GgkgASSABJAAEkACSACFLM4BJIAEkAASQAJIAAkggbQkgEI2LYcNO40EkAASQAJIAAkgASSAQhbnABJAAkgACSABJIAEkEBaEkAhm5bDhp1GAkgACSABJIAEkAASQCGLcwAJIAEkgASQABJAAkggLQmgkE3LYcNOIwEkgASQABJAAkgACaCQxTmABJAAEkACSAAJIAEkkJYEUMim5bBhp5EAEkACSAAJIAEkgARQyOIcQAJIAAkgASSABJAAEkhLAihk03LYsNNIAAkgASSABJAAEkACKGRxDiABJIAEkAASQAJIAAmkJQEUsmk5bNhpJIAEkAASQAJIAAkgARSyOAeQABJAAkgACSABJIAE0pIACtm0HDbsNBJAAkgACSABJIAEkAAKWZwDSAAJIAEkgASQABJAAmlJAIVsWg4bdhoJIAEkgASQABJAAkgAhSzOASSABJAAEkACSAAJIIG0JIBCNi2HDTuNBJAAEkACSAAJIAEkgEIW5wASQAJIAAkgASSABJBAWhJAIZuWw4adRgJIAAkgASSABJAAEkAhi3MACSABJIAEkAASQAJIIC0JoJBNy2HDTiMBJIAEkAASQAJIAAmgkMU5UC4CE2Z/c6fQqtfevmevR8JhKUWISOpSQmKEUiaJ0P3jMYcQ6TEzYmjStTWTEeeM049/oX2zyL/L1SAhZMV2mbnklZV/LrTDZ0tOKaNShlyN2K4gQtcoIYJQ4hFGBBHEJYxzJhjVGXOJVbjLGXHLuSPrUhovb7uw/aTF3/9lT1Q7PT8pJdEo50RSz3Wp9DRqahHqeoIwTojLEoRrjBrE0EJccl0mtx1bx3yx55+PX1mRdnEfJIAEkAASQAJI4PAEUMgenhFuUYzAvY+vXVngZTUSZoTahBPCQchKQmnM168iDP8lhFqEUJdIzyUadaXmWh53t94y6eazppcX6Irtsvbs538c7+g1ulGDEc/zCLMY8VxKWDhEpCSESUeJWRC1glPiUQHtkjBJCLFrVa1Jd7TbWd52Yfu756x5Kt/J6JSQpsaNMGXcJURIQoVJODeIbXmEaoK4Mko4o4RTTkzpkpCMr2vSsNqdXVpHXqxIu7gPEkACSAAJIAEkcHgCKGQPzwi3KEZg0IRVXxm59Rq7pkGTLiHUcwmlFmE04QtYL5MQohFBXcIkITDBmOtKw7VtZm8eNumOU58oL9AVUVl75jM/jE/qNbommU1ByIZphISNDBK3BLRKNOERSgTxKNhlJXEZI1y6xLQTyVB047GT7jirQkL25se/mOtoNbq6Wgb3NEolV/KdaDJEpGBESkkkE8QjCbBAE01qRHM8onuF61o0rntnl9ZZKGTLO+C4PRJAAkgACSCBMhJAIVtGULiZT+DOmT9/7Zi1T9sajdFQZhbRXVjStwhhUaJkq5dNiDSIZK7aXmM60YUgMhZ3TGf7LRNurz+jvCy/icpaTz69arwVqtNdhCURQhBiMcI8Rggz/HaESzgFSywjLqHEpZxw4hEtHrVJ/MejZ1ZQyN4649t5wqzdzdYymCVc4pIY4VQS7pmgWwnTOBHUI5TbyhqsS5MYQhDDiq5rcfrRw284R3uhvOeL2yMBJIAEkAASQAJlI4BCtmyccKsUgVtnrPvaMWucFuM6dSUlhqcTTmxfyFJBpMgmgmhEMosIKohtuyTbCBNu2Y5mbRk29eaG5XYtWLdN1pr+ys8T9sq8brYhVE9MN0Q4BcuvQwgIVun/3gUhy6iyyDIqiWnF7Eyx4+hJ/RtWyCI79LEf5jm8VjdPy2Qeh2Mm1XE1ESIMbMCCEFdYhBguEcIlzNOJTjzCrfx1Z51ac3i3C0wUsnj1IAEkgASQABL4hQigkP2FwP5eD3vzY6u/ThrVTvMiIeoJTgzXAPsnISxOJBWEiLAfesU99W9N04iwHGJI6ZKCjbc8Oey0cgtZ8JFd9NrO8TvdrG4qloxphLtcWWapBpZfsJBKtczvgVWWU+Io0SkIT0YdXrChbsUtsj/OS8jq3TweYUynhFKPCLBCezphlBLGCLE9l3BT+P3xGAlrjDB797ozT6k+vHMbtMj+Xq8FPC8kgASQABL47QmgkP3txyCtejBkxrqvbbPGaeAZS2H5XoDHqIBYfnUeVILHKiGw6g8fEJecSEKl4/LEpmEzhpw2rbwnDEJ21ktrxlta7W6U6MSBTAGwpA//o0L54jLJCJPgJUuIAFddCo4OHtFcyzUSG+o+NvSMHeVtF7YfMmP9PEs7qhtlOhxeiWYI9mJE832CoUUGIhrkO/yVEi4dopH4ujNPyR3erRVaZCvCHfdBAkgACSABJFAWAihky0IJtykiMHjGhq8cs0ZjIUHIMsIEISDwApFHZbApJSD3wJGUqllmeTyx6ZaKCtmZL/8w3uG1uzFpEhfW8zVGXOpbfeHw3NNTIhpENfQHOiII8yovZJN6tW6UaSlp7otzX8j67VA4QchkoIQsUa4WlMbXn3VyzvAerSLP4/RBAkgACSABJIAEfhkCKGR/Ga6/26MOnrHhS8es0URIBko2JWQlkUqtguW16oUs+Mg+8soP411euzuTIeJ6khAdArpAtEJoV0khC/2Bfigh6xmJDXUqY5FFIfu7nc54YkgACSABJJDmBFDIpvkA/trdHzzjpy8dY5+Q9Rfzfw0hu6YUIeuWELI+DbCSKiELKcBcp9JC1tKqdaNcA2Orf3y0yP7a0w7bQwJIAAkgASRQKgEUsjgxykXgtxKyU15ZM8F3LShmkSUekcxTVmDN44HHakrICpVFofJCdt08S6uuhKwSsYcVsoJw4hBKE+haUK6ZhRsjASSABJAAEig/ARSy5Wf2h94DhKxt1mgihe9a8GtYZCHYa+bLa8Y7rG43Rox9rgWHFbKQDsvxjPhPlXAtWDfP0vO6UWYUE7KUMCWbS/ORRSH7h75A8OSRABJAAkjgVyWAQvZXxZ3+jf1mQvYlsMjW7VpSyII5VmUtECAuVQ6BYhbZX0LI+tW8DidkGY2tb35y3vCuGOyV/pMezwAJIAEkgASOWAIoZI/YoTkyOwbBXsoimwr2otL3HC0K9gIpqVJwVXHWAhCyWu2uTAYWWU5c4kG+rwOFLPOUC4DykfUsYcQ31a5osNfNT6x7Ksmrd93nWlB2IXvWn/JGdD8vsuTIHEnsFRJAAkgACSCB9CeAQjb9x/BXPYMhT6z/MqFXaxIOZdFYLEZ0rvkVvVJL7b6rAShbyB7rp9/iHMRf0jOTW295dFDDcueRXb9d1p784vcTXb1OF/CR9SB1q8lJ0oM0VyBkIQ1YMYtsMSFLnIQIJTdXQsiuf8rSqncljIMvBREScsbucy2AXLbKxQKswvBTeIRJm3DNWn/2yXl3dWtpLv5VBwgbQwJIAAkgASTwByKAQvYPNNhVcap9HlnxJcms24RrIQrpXKFcq9KtqYX9ogmVErKBD63nxb2It33YYwMbPV7efny7Q9Z58uXvJ7pa3c5U7Msjm/Qcwjk9pJDVpCO16E+1KmqRvWXmj0/FeV5XSvkhg70Ag0qUEAhZbm04u1HeCBSy5R1t3B4JIAEkgASQQNkJoJAtOyvckhBy88x1X3qhWk1sx8/UClbIQwlZkH9Q9crz4iLsbrulIkJ2Q0zWeWzx6skJWaujdHXiSUmozlVBBPCPhWpiVFlJ/Y+AMrKp9FsG9SQr2FBhITvsyR/nx7S8LiBki1LkqgpmUNHML+5VvCACFVDJzCaMJTY0b5R3V9eW5nM4cZAAEkACSAAJIIFfhgAK2V+G6+/2qIOfXPOVxas3lpRRjRsE1vlVJa2DWGSLVfYSYXfnLVP7n1Qhi+ys19Y8EvOq/4V4BqGcE8kp8ZggIBwPJWQ1KBcb/almRS2yw2ZunB/jOV1IyiIbDGxQihdErJL0xSp7adRRQvbsk6vf1bWlhkL2N7oapJR0zZo1xqixY2ubTG/sCe9Ux3H/FItF60RCGdlCetnSFUJjzHI9URgOm9tN3djqCrHaNI3vQiHty0ceeSRKKXV/o1PAZpHA75YAXJ9LlizRl3z8MSebNh1wnjfeeKPXoUMH+3cLAE+sygigkK0ylH+MA906e9NXe91QYyMUplKAT6hffOBgQhZcD8AiK4UtIu6OW6YOLL+QXbVD1p31+vopMVH9Rip8IetIjzhEEI36FlkufT9V6Etxi6zJCDGTW2tM6t9wZ0VGaNisTfPjLK8LuMAW3z8Qsup34CMMPrpQ6Qxy2lJwebA3nNkwd0S3lhr6yFYEfCX2Wb9+fSgajeaMGze5fjwRH6oZ5sWGYWQzxjhjDIz3xDTDJFZYQDSqkVDYIFbSIa5nE03TwMLuua7rxmLRAkrYzKbNmy7o3rH/9uOOyymA7yrRNdwVCSCBFIG33nqrzpNPzhlFOL8Brk3iRw5LIYSQriddz/5Hhxuuv7N79+7bERoSOBQBFLI4P8pFYNTigm+2J7RTCeXUsiyiM35IIauB5dRziecmZZbcdcuUASc9Vq4GCSGrYrLuU69smZqfzL5BOIxwrhObuERwQpgUpQhZSQSFggguEVaC5NL8CgvZW2dvnh+jOV2EVKkY/MAuFdSVcqmAdtTd1xeynEBuXZtozN7QrEHWiJ6tMdirvONd0e3BwjN48OD6O3fnX6Qxfi2htGU4IzPDtm0WCoVIIpGA0DwCf4dAxUgkQqQn1MuH67rENE3COFHbMcaIYRgwd93CwsItuqa/2bp1q8WtWrX4onHjxnspRBniBwkggQoTeOWVV+q+8PJrD8XjyS55eXmabdsqCw1cdwV79rqRSPjliy9qN6Rz587bKtwI7viHIIBC9g8xzFV3kiPm7/xujxs+GaL3wUgJuQkOZZGVwiXgRsuoR7LJ7qET+hxfbiH75U559OK3tj22J5l1redIommGErKaoRHPcw4hZKE4gSC1zViN+zrXrZBFdujczU8nZE5nEEnFhSxkSoB8svIgQpaRxIamDXNH9EEhW3WT7xBHWr58ec6SJS+dunnr5rt0zbiYcy1ku64aI3jxcDyhHpCOA24fjIQzsuBhqQL0MjMzieNY6jvYFr5njBB4sML+ObnZJBqNepZlrWOMP3VV+yteqpaZufbyyy+3fpWTw0aQwO+QwCuvvFN33oK5D2Vm53ShUmjBKcI1CPaPwsKCl6695ioUsr/Dsa/qU0IhW9VEf8fHAzE3fM6mby2WcbLleMqy5Tn+s1ykfGSLAq5I6r7kCaLrnFDmERHdOmzqoEaPltea9a9v5LFvfLp+us3yrhQuJZxpxILUWxolUnqqZd9PlilhCX+UnZQKwqVHMmm05sO9G+wo79DA+d4xd+PChIx0AkGzn5BNlaoNfqfcLFSlM/jCIUQkfzq9YY27+5wfXljednH7shNYsWKF8eKLr526atWqKzRdu8rzvKacc0NSsNz7AXngLpBIWEQ3DaIxThJWUlnQwQLrubbaDkQsZMAAaz+IWl/M+rNZfacxGF+YBHuj0eiy7NycN9pe0Pbt7h06/FT23uKWSAAJBATAIrvw2ecfNkKRLhqjvPg9VnquZyWtV66++rJBaJHFOXM4AihkD0fod/a9lNJc+vnOi/Ymk42Trk2FehGGBz6kFwDjqlSGxpRqY+Dh6jnMtR3pJl1q20S/yZW8JiXcYJxolEqDUhoCHycVve8LPCkEsaUERUdcQoQAUahR558haX2qMZdxzinlgkFWA8r89pSBE7Sgx6CmAvgHeI7teTbhGZYIX+IJ1kBIBvc8nXASppQajIF2lMpNVUrpSUhYS4SrbopMUC4p05k7Lswcy+Cuxhi0SigTDLSMALECTgHQTU94UmOGp4UN17OYm59IugVxcZWgZhPGGJyjwRjTCSE6pRR6rsSOEATcuiwhhE0lcRmVknEZ16jzr4jmfq1RVzUCsghs2K7Su1A4wpFSMtBcklJGhePxkKG7R+WF9lzYrPrff2dTr8pPZ+PGjeGnnlp4yVfffjsorBstKOfgB0vVBE794ak7HAyXmlxSEhdGC1IfEyJ1TkkymSQ5OTksFotSzjWq62Dp911hvWIOBCB4wQUB9tY0bZttJ5decc1Vd3e5/vofq/zk8IBI4HdOAITsM8+9MFY3zc4a4xwuSlXghjEiXc+zbPuVSy9uN7hXr15bf+co8PQqSQCFbCUBptvuu6TM/u/nBWNjjtfFgSc7M0EHpj4pVZj6lyQM7FpKIAohQZgmCTjHUmIyppmwAsSYMr3qcKSUjlWCFPSC0gFSgogFAykIDFAHHlWlBSijTBLPg0OqRLSpTyqtFWHQOwnutZJIB9QqpdwklOpcBe2oNjVYOQ6Ki6ncASCeqRLOgagG/Rj3hbYqR+bng/V9I4grPMkZCFkC4gXakFzjnvAELCXbqeCfkBLujGmUUuggnHPK1cAX4FISUKVwzn6VXNWOhKAhQZlqF4o3gJOF2kQofwyPMC6J63mSU13dw4lwXOkUrOnYtm7z8lqu020uVqa/END19NOLLlm1avVdoYzM5olEgoOFNZmMk3A4rIQoPBhTQla6rhd3HGc9o2yVaRo/CUELXNeJwVhQSjXLsauHQ2Zd4XknaLpxCiEkx7fp+y8r8AFXA/CrhU9BQQEJmSHXdqwnLvnL9Xf3ad++sDLng/sigT8agXfeeafu7HlPH1LIXnfNlYM7dOiAQvaPNjnKeb4oZMsJLN033y1lzsfLdz2SFKyn5KAFwcAYOASUmA4pP1AIqVKvyr7cVPJXpSmAzYvF8hcTsgdgSunKEr8HEREcOlDPQR/8A3uQNNYXhhBGVbR6v9+BDjKLoT+BoA229y11vrUt8J9UVlmo2gVmOt8VNvW19NtVH1/sljzH0kJ+DjxXv/oXyCJVvjf1UzLoh7LwEUoM9VYgPVsW7t26bt1HJ/xp9OiUA266T7oq7r+UUrv3r6MvWLth7WQzHG7gCmLACweIV0P5TXvEtS1wfYG54+7atWt5jaOqP9m27YVfNG16Rj7nTmwPY3Y4HlcTAVYHOOemruuRRS+8kPnlp1/Vy8nL6pxMJm8IhyImWGLB3xassdCOshilBtkT7nbX8UY8s2DOvCo+TTwcEvhdEwAf2UWLF47TdaMT5ymLLDxS1H3Q9WzLfjUvr9ag6dMnoJD9Xc+Eyp8cCtnKM0yrI4BF9tNPd0yyaagv0QxYFk/5t5Y8DX9qKAHmB+wXffyHePAw931SA2FYtM9BqKi8q8WUnm8fLX7w4lOy+Jf7/l586di3lkH7+34WDyj33R0CgZoqn3vAuezLRuCLWQgQ4sp3EsRL4DLh/4TzBv3jt1dcyBY/N0l8sRxY8/wmgVtgfvZ/CuGqdoTHlaA1NUqc5J7117eqUR8tsqVPoltuuaXW3j2Fs5imXS4FY9zQ1TglEjFwESCJZBxevVzbtr+URM666ILz32nbtu3mBg0alCk4S0rJV636OXfy5Icv35u/d6BhGOdohkFBxIIbAowTWGahTddzPMMwvqx//DG3/e1vf1uWVjcD7CwS+A0JgEV2zlPPjNV1vTMI2ZI+so5jv+LYbPCSJfNQyP6G45QOTaOQTYdRqsI+gpD933/zJ1pCu4loOnEhz2tps2A/8VpM1Kb6oiyYfmTTfiI26Gog/pTfUyCIi/0stvR/iLPzA6j8BvYJ2aLfgZRUflX7WzrVv4v1Uzn/+l64JUSpb5UN/gSi0+9b4P9a4ljFLKrQDithfi1pAQ76oX6f6ie4VBSdj2AEnI1tF1JAERLSCZFu9KerWmWegEL2wKkBTsXdunXrbeiRGa7wNM4MEreSJCsrQ700FBQUSN3QLOKKxS1anHHb4MGDIVVWhXK/gqDtPXhwXZPwhwsKY5Dr0gT3hcByD0FhEATGOXetWPz9K664emCXLjesq4rLFdoGl53p06dry5Z9XD8zM7OJI5xTKaHVE8lkbk5etfxoYeF609BXEo99eccdQ3aeeuqpyie9oudbvN9Lly7V5syZY8LvkskkrVGjBtmxA+Ila5BQqFAuWLAgXtwhCPq7gRD95SnzQl988WEjz/PODYcjJ8WT8dyQESrwpLtBuN4K08z6YsCAHrvPPPNMcMNxyjPHU0y0BQsWaG/885/1TMO4UEpZP1oYPSYcCbshM7zas+yvtMzwf6/58593XHnllQGPSqVKGzVqlLZu3TozKyuLwvkPGnQjGT16OiFkB4Gk/TfeeKNF6f6rJ6ksJ/rrr7+uLVy4MJdzo4VhmOdw06i1fdu27Ly86ts0g//g2O6X7c5r+UXPnj2TqbGrVPGNUaNGsS1btoT2aJp/w1RjRoLVCdK6dWu7f//+wKXCH2ijoKDA3LTJ4sAAmMD/4XNqzZpi1KhRMK6lttGvX7+Ipmns1FNPJccdd1ydRYtfup9zfqPKI1vsIzzhup73miXkHdyJbvcbCOJ1a5AaNQipV6+evOOOO+yDtXW4E5RSwnKk9sEHH5gvvvja8XsL9zbXuNYoZJjHQ9zHnvyCHWHTWKVp/JsTTmv06V9vvjkGi4SpeXugVeRwDeL3vxgBFLK/GNoj88C7dsnsL9YUTrI81tdjOhH8IEI21X2IiFISsLgVNSUufTF76Os5WL4vTmP/Y+13/zoA2r6HJzr/AAAgAElEQVRt97dkplxdD3Ad8A+wz/JZ0gJcvAGV5gWsoSkrLHxXLGCtxHnvu1T2CWnl1Fp0yIMxKk3cKpcFyLTgqTiwVFt+1+3Enp+/aZd33OgSD8cjc0b9ur0aNGjQSfn5ha/pmnlyOCODJOENQL3QuMqlgGuswLGd2Wc1azzmtttu210Vvevb9+Zj8qN7H8jLy+tqWZYGgjmZtEl2dqay0LqeA8Ep25s2O33snbff+lhlKoGtXr3a/Oyzz+otefHFloZmXCoEOUsyWjsjM9PUQDG7LgVLMHx0XRexWExEIpGoZzlrHcf6mHP9k3r1GiwbM+aen0uKq7KyAMHYo0fvKxOJ5JhQOKxFYzGaEcmg4Eru2La0bDvOs8KXL5k3byu8WLz66qs1nnnu+XZMkvaeEGeFQuGjwY+ec658w1OWbHiL9Bzb3vv/wmVlPJb4iBD58owZj66qWbNm9FB9gzbe//jjOo9PffxcSmjbzMyMVol4vH44HI5AG4HLRzKZlIwx4XnebkPTv7Ft+4NELP7e5MnjVtavXz+/rOdfcrtHH512w2fLPx9h23Y1xpiMhCMiFo+TUMgk8XhsZYcb//LgDTe0Xx7st2rVqqz77hvTWBB5Geda63A4fIqVTOZFIhla0rZVMCK8EFmWBX9Nup69yXO85dJz3h06dPCHbdq0WVfRl5H58xed9d577450pDjFsR2p64awXUtyCCqlpOD8Nuc/PnBg3wUVZQH7vfnPfzZbMHf+PYzxZh6RxDANaSUtmUgkZG5m1o5TGjeadteddz5Tsg0INO7cuftbmqYfB+YDiDeQlFVnjGUVN06knjdQGKEgFo9vzcrKpEJ4XHiChsIhCvfrWCwmOefbL2jT5vF+/fqUKzMM9KNPnz4nxBLWDSa8XHDtDNu2aoZCYU2tsqic0iH1YmxZSZKdnS2i0WhBMplcnZOd82lBQf4/+vYdsvzCC1vsqOg1Vhn+uO+BBFDI/sFmBVhkP/9076Sk4H0JNwjciEq1yKa4BCmMiovZg1kdS0NZyg1q/81KuC0UfZkSyEX+iCqNgVfkYxoI7P2X7lN7F7PQHkrIFj+n4n8vbk0Ozj9or7jYVa2pfh5czBfzuS11poGY9VxBNG6qtAbCdYiV3LNl5fk1j0Ehuz8yyFJw331jZkpCuoLFHNJiaUZIvYhAGjhN02zHteecdOLxt44ePRosXFX2ueuuv120bv2GaZmZmQ0SiQTNzs0l+fn5JCsjQ71MJZMJYRjGv5qf3Wx4//79Py+PpRE6CWnENm3adNycOU+1IpTcXK3aUY0L4zE9FApRmOOJeBICE0G8KhEERRtAIKp0YomESoXnuq60bTvh2M6/Tm92+rj2V1z3XZMm9XeVVxSBD3L79jd0zKtWDdw3zOBFD14UwKVi9+7de0J6uEnHjgN2P7VwSlNN03sQKW8Ih8N5lmUpF4yUUFMvihAkB9cU5PGFIirwOxD7nuMURsLmw4MHD1jUpEmTzaWJguXL1+Y8MHZEE86M/mYo1B78mKHABRw/+EC/4PiBrzu0xykDVhBsui2/IH/mPff+dbFJ6drTTjut3CVPH3vsiV7LP1/+EOdabTg3CPTLiGQRy05ISsRneTVq3fro5HH/Wb55c8TcFT3+/odGt2dEG6Ibem0QazBPIVcxvPzAOEFfYe5kZkZ8/3hKiWUnZUZGhpOIxz8tjEbHj7737v+dfvrpwKRc1uS5cxec9977S6dSzpsBZ8Y04ro2OJGTaGHBrlgiOfK1V54Hc3KFP++++27L+QsWTdI0rSV493uqKI0K54UVqq1nNDtz5NChAw/IuiKlDHXq1P0bwzROgvGLJRNE4/q+VbcSPYLrCua7cuchkD+8KNWs+r1jW1vPa91ydL8+fZ4oy8ls3rw5snt3vO7M2dNabd+68zbDME5lkC0h5QIWrB6qIFF/jqqfcH3BJzV/YcUn6iTdl/oPGjCrWnZ4RZMmTfaUpX3c5pcjgEL2l2N7RB5ZZS34756JNjFuorovAg61NB/caFNBT0XnVNw1oKRYDTYqzRpbHIoSmSmL7wGwUkI2aP8AAZna4QCBWcJCXNzvqmQb8F3xm1ZwI9vfxWDfXupYxV0cVHIyuIPDwwgsy/v76h7u/P1z8ogjJOHMf8AJxyHEi275umV1FLIlBmzEiBGXbtm68xlKaTXONT81hvD9kCMhQ+7Nz//onOYtBg0dOmBleQXA4S7W1atX13juuZcGrvx2ZZdwOJyZsCwJDzbbsojGNWIaGimMRhOckVmDBg2Y3rp16zJnMfj8889Pevjh8W25rl/LGWsVCplZluux4MGt5imUPk4FmsXjcRKJZCpRSKXvr1tYWKjEY2q+O8Jx1nqeeLvNua3eaHjqSZ+1a9du7+HOsdh1q3Xq1L2TpuuzKOfG/vl4EyAsCnXD+HMyET8jEsnoQQhpapqmqswEfYGfyjpeLI+vCsBzXSVAYJ7D31WiP+EVciZfqlmzxsLevXt/cvLJJxdxe3vp0tPmzZl/HeesM9f0kwJRCBzg2KqyoK4XCWXIVgEV25RYlER9Dx/OueVYyX/XqllrVteuvT4466xTtpSVBWx3972jem/8cdODhmHUdh1f5KRyD8u4Ff/skksvue2rlV9t3fTjxj9zxm8IhULncqZBWkI1N+HcfUHpF+iA30G//VRuri/Amd9fNadsew+V8sXMSOSloUMHf3zaaaeVeWVhwYJF572/9IOpjieVkIV7GhzTtZPAfVe0sHDk888vqrSQXbjw2Um2EC11LaResMxUyjonmdza/Jzmo265edDMUu63oR49+36taVoD2/MDJyGfTclVsOL/Du6hmgH5nZ3Auu/PLSm2nn1m0/uHDhky41DjCRb9ZcuWHf/BsmWXrPru+6t1XW9NCMvSdZ1Cej0/SNR/yYJxCZ4ZwbMHfsKcCl7CUr+XyWTy+8xw6IXu3bu/unXrps87dOhQIRem8sxF3LZ0Aihk/2AzA4Tsvz+LTkgIrZ9uhAj1XEJhPRvMsnD3D36W8nZcmhCkqdREVYaxzIH6gRW0ZLRYlfWkTAfyUzeA64UfVFY86OxwB5DUJba0CTN0wqhJnKRDwiGDJKK7Nn/XssaxaJHdR3D58uWRpxY8PSdaGL8ODDXBQ9pnL+Ehs4tIOez+++9dUtagrsONT8nvv/pq9TEvv/x8i5UrV+SAUIaHnudBEmHPT8PsSXrmmWf8eN11V3/WoEGDgrIc/+WXX278+hvvjHBd5xpCSMT2XBoI04yMDGJbji9uXL/qWLBUD2IxJXr8B7FmFgUnQrumppOkFYeUcN8RRhecc3abuUOG9NhVlj6BRbZjt56dDW7M5pqu+ULMv87gh+d5biKZfI1xdqHOjSxN06htg59ylhLUgVALhEBxP3QQBCBILHVemkp/Av6QnuetOPHE+mM7dLjmJbCajho16pjvVq+bYGjGtRyswpAmReVs9oUkXG/QL6js51s7k2oeBMI2bPqCGq5J4JS0EtLz3J/r1Ko1t2vnjo+dccYZZS6Q0r1nn97SYw+ZplkrEDmuEkCOdF37M0rlFMd1WzHGOkXCGXng/uGXN/bUuUKfoNBGYDkHAQcvI0rIQfEWCPLUlYD12RkaScbirhDuxupHVZvco1u3J88666wy+bWCkP3n+0unEsKaqhwvKXcpEMyu6+6yE4lKC9l//OPdlosXPzuJgEXWU2UbU3EGUJyGbmvStMmo24cOfrI0Idu7b/8VnuvV10yfDzxvSsZTFDckABvgZDn+fPdXP5LqhUl47rZWLZrf369f34MKcxCxU6ZMa/qfT/5zs2mYl0tGaxiGodwTlEgmfuET+HeR6C9yLzBVH4P+wd9DoUhRCWswlqs8M3byk9xquY/26t79pbKOU1muQ9ym7ARQyJad1e9iy09W78revMsY79FQf8o1wtWyUClL44dY0drvjbmqqZRZyJat4fK4QZTtiPtvBQUOfCWbehEox0HgIeYxR1WcKthrkUgkA27OJF648+d1beuij2wxlhMmPNL266+/mc04rxc8oIOsElJK2zDNeWc2a37/wIE9fi7HEPymm44dO/b0r75aeY9uGFe7rgvpvwg84IMyuvAAd+yUxY4z+L1KRaeWzjmHJXy1jA8cknG/GhlY+ZTFEF5PlSXXla7rbjE1fcbZLZpNGzRo0GGXQYsLWco45E4uchEAQeQLMOJyqB4h/TaDFfDAAmkYhgDhBkICLMW+v6FvIYX9waJcWJhPICk1FKBIJpOuaZr/Pa5evdFZDep99O27HwxKWMm/alwHv1Sod1IUlAnnHw5nKCEJx96zZw8FEe1XZ/OXhAUozWK+05lZGSBUpJ1I/lSrTo1RE8eNW1BW/0YQslRycC2oVVTGWDdA1EOU6aq9+bvXZGdnn00prZ1MWFSNo6YpYQovI3DekEYwEonIwsJCKqVHs7JySDweLXpJAVcI6HdQiAPuyZB/23XdFbVq1rirffsr/9muXbvDBoLNXbDovPf++e5U3Qg1dRwH0sqlUgtWnZAF14IFC5+d5EnZEoIt9wlZJey2nX766SNvu+VAi+x6KUN/7dT9m+yc7JPArUCJfTeVmrBEpcTgBRU4Kp/wlFiGeRTMc9ext7Y7r/UDBxOyEHA3YcKjJy3/36f3mIb5l6ysrFA0EVfzCI4LwtV1fGssfMBnGXysDcP0YrEobANFfnjwYgkvYbYN/rOBwJXESsDqSEhQSlaEzMhdjz32yFtVvRr0m96k0qRxFLJpMlBV1c0331ydTasfM94hWn/XT9Jf7kMXdyWovFAsf/tFHT6U6D2Y7225zza1Q2ltqTy7wdJYkP6rPA1I4gnw7TSIcGFJixJDB0+P5KbPXg8dj3lkfZbLly/Xp82YOdW27J5mOAIV3dQDBeZeRtgksVh87QXt2g3r1avLm2UVJ+UZpV9i22XLltV46plnHiKSdUokEpHs7GwKlqbi4gdEUyQSEfn5+S5jbC/X+GfSkxtN0/Rcz63ruM7JlNBjdF3P4ExjsG9OTp7vPwuVzIJlbIOTPbt2b/v/CrwPPL1o/hOH85kFIdulW8/OumbMYZqmfDzVHAWrVcpXEQStOr4qUidAXEChE3vP7t1rI5HwKiLZZkE8EHXHOY57lsZ5TU35SlAV7ATiDgSC4/l+v77Y85KWZS0JR8JrGKGdJCENdF3nvuVVWYXBncOKRqObhSdWarq+kTIogELrMkIbCSkaaFw3PM+j4GYA/Yaf4NMK4sNxla+u47ruq1df1/6OTtdeu6EsY9uzz029pWQP6rpeGzyxoP8pa6sUwo3pug7W+QzHcRgIV7BKwxyFYLxoNBqXUm7gnH2lG+YuJ5EwI5HwyY7rNaKcVWNcFVlRlkE4LghPOLZU/sjqHKx4PP5ZjdzqDz46/ZG3Dtdf5Vrwr2VTXVc05VxXrOEenwqG3GXF45W2yL777gctFy58epJTTMiC70uqrW1NmjYddfvQgaVZZI1uPXouSSaSdTUzxDQO7hfsaMZYXiBc4WcxC22B57kb44mknZ2TSR3LUWOalZUpkxaMJdl1fptWM/v37bukNC7jxo2r+9lnX0/Mq5Z7WTQez00VtylyI1CrG4zBy5DYtm3rjrzc3P/arveZazvrQLQmHesYg2tNHNdpo+vG0UIIDqIXrgMr6ZCMzDBxUi92iUTCth3n9euvvmJ4x44d1x5unPD7qiWAQrZqeR7xRwMh62TkjiNGxgAJlpXU0vjBOl7Sz7O4cD2Yb2x5IATZtcqzT/FtVX9Kiswyidj9syCUKC9WendKacdP5uBbU/xPOXLqQsQvZ8RK2ITxEDF0SmJRi0g39tOKC6rVQ9cCn+iMGTNO+Gz5l08JIVo7nlC+o+BzqHxkwfeP0bd69+x9Z7t2rVZUdB792vv1Gziws227D9qOezwEdAXWymD5VM0kIXY4tv2BJ8U/dT305fC7bt+ZZRjxwsJCqetZ4XeXvZP74QcfHZ+RkXFBLBa/KjMz8wTXharLjBjcX76Gj/JLJQKW1r8/9bSGF48YMWLToc4XhGzXrr276IY+m+s6h+MYRkhZsSCwx1+G9S2zwnbAf3BvQX7BP5LJ2As3DR7wQ8N69fYWFMhkVhYhP/20PTJz5vQ6hmE29Tzv0khGxvm2bef51i1bVVcJPpBK1LasnVB0LxKJVLMsSO+kfKCl53n5jPH3o4UF/yCcfdWt4w07GjduHPc8T9i2HR45cmQ1PZRxSmZm9oWe515mWXbdwI0BeBT5OGpMxuPxDdlZWXf//Ylpz5Zl3Lt379Pb8twHdU2vDdd68aIYQrhgxQPxqU4ERKimaR7X+Jr8/L1vZWZkf9iiZcvVF7a5YFcslrRzc7NZMrkr+557RtXKycltJhi5llLaykraRiCS4HgQRLh7925iGMpn0xae92LXrh3v/fOf/7zmUH3uO/Dm8zzbmeq4oimlXAUKFglZ4e5OJuIjX1j87LSynPfBtgHXgmfBtYCxlgSyxEGtGCVk1TL8oVwL6Nq1a+uvX/+zPmv+LOI5slbIDN/BGL0sqLgYtAnWaE+I9zWNP8A0svPCCy8k5513HrGjUQKGfcPQJeeep2najuOPP/6AVQYppdGhY5c+GZHMCbZtZ0QyM9X9AoLssrOzlZXXMAyvYO/etZquLTq7RYsP2l9x6Xrbtnc3bNgQ0myRbdu2hdet25o7bdqUY8MZoVaM6tdEo4VnGoYR5kwnjmsRKB0YuB8YhrE1pGkP3njjdU+UxXpemTHAffcngEL2DzYjnn7zk+zcnGMfNjKqDbQ9SV3hF+k62OdgQnafcPstp1AQbFWy96Wlyiq5zYGFFErLPrC/xflA67GfBuxAfsF+B1q89x2DEkE4+Il5gsCNdm++TUKmThKx3Wuvb1e9AS5R+WM2ZcqUNl988+1jhJDGVtKmRaIKfNYMTURj0ceHDhlwf4sWLcrkA/pbX/LPPPN8k7ffe2ecEOIixjVNWQ7NkB8hnYz7FjkpNhHJRvbr0/21tm3bFlJKSy3mAKJzzZrdkUnTx2Rt/3nrrOq51S4FUWVbrhJvKqMDcAobJBaLeqZh3D979pP3l03IanMoZUz5paaCYILUX+BJY5qm9Cxrh5VMPnHJJRfM6Nmz587SUo/BEu+aNWuM//znP5lvvfXuAK5pw0Kh0FGO4yohC5HvOvevIVj+T4lBdRGDndJxnF2uJ+5vfOqfnrnxxhujJ510EuQOPeBihLygb7/9dtbf/z63cziScbdpmnX8woBEWfLgmkyJRcdynDm9u3Uceemll24/3HwAiyzjmrLIJhOWEkEgEINgPBDkyt0CLLXK3df9+MT69QbfPnTohmrVqsUPxmTDhg3mitWrj503d97gSCjSR9O0TNdylNCCnL3g+5sKQJWu524JhUN3zHpy+qJD9bdrz77nEUmmSsqaBcvnyudUeJAmrkqFrKS0JYVq3UrIwpyV4Cqy7fSmTUYNK8VHtmS/Fy9efPQrr781gXOtY+AuFGxDpYAq4a+e0/zMgYMHDy53QYSBA+/Ky8/f+gnTDbDqK59YlT0iO0OtWKg0W5a9rGGDE/oOGTJkc61atRIHW82B+btp06bQx19+We2NF1/tI4W8mRByFFj5bc/3XYd5lZ+fL3RN/7ZLjy4jLrvggjcPN6/w+6oj8FuqkKo7CzxSmQnskDLrXx9uH+0yPoQyQw/8g4qXTi3KYlCsjGtpkaQq60AlPAPK3OlSN0xV1lIWneKd2H9KH+j6UJbgsEPlxt2/LT9bwYGlcOF38Kw9lBBWQpZ6RGM6yc+3SDgjE/zu3N17d6/scVH1ppXj8/vZe9asuR3fXfrBw6Fw6ASwAAXBGfBg8hwrFg6F7r3ssoseTYeo4aVLlx41Z97Td1uO3T87Ozti2X4MDwT7wJJ0JCPsQoCWZhgTu9x43Yvt2rU7ZI7V4qPcr9+InGh06x2arg+SgoLVU10MIJCjsQIlbKOx6PpjTzzu4gljxhx0+XOfRVabA94DKrhKuXP4gg3+xBJxKT3vp/+vCXL/dddd+VRZ2c+dOzf00Uef9LccezhnvA5huvJ/BZ/QIJArEN+GYUjhOjtz8nLuevSRSfPK6jby5pufZD///Jz+QpJbCGN1wEQd9B3udyBkkra13TCN25+e83fIgnHIZNg9evXtlbTthyKRSG0IJwiym/j3P7/ICliTk8nknuyczMcyQ8aEiRMnKqteWT5Lly4NzVv4bAfXsYdnhDIaRqNRDcbKDyb0lNsFlFuOxeKfcEZunT9/zqcHe8n9+9wF5y1b9uFUSWhTEHCB6AahKYS724rHRi6upEU2cC3whGxJue8ju0/Ikm2nNz29TEL2vffeO3ru/GcmMsZByO6HikoBeWRfa3/15QOuv/76cmWZgAN17tazG5V0jmaENOAIqwrKQu/ZyvfY88Q3f6p3zJWjR48+5OpEyfF76aWXct965/17E/FEH855NtM5jUajynVFuSMkkxC7+Pe+PQbe165d83IL8LLMF9zmQAIoZP9gs2L2KzuyREi/O7tGzjDDICGRdAkj8DAtzULpC7QgWjrlGwYPWkhmrV6ixSGsuWVBGxQ2OGDbw7oHqP7KA9wKggOl9i+fkD3E8+wgzzpWSjup5TxIBp8qu5gSvyWOAa3BjVU3IiBp1UuBpKRg46Y9K+64qlqrsvD7I2wzbdqM2z/93xd/FUJUh+ASFQ3PNFguJxoj31115eV3tm9/5RvpwOLpZ5dcsmzZv6Yk4lYjlcjf0Isi7TVNE7GCwi+zcrLvmDNz+tKKnE+/fvdFYrEN/Uwz8rDneSHJfAFqmrofJOM5XiIWfb9VyxYdbr311lJTcoGQ7eb7yM6VYJJlTPmyBnlkgX8ikdyTmZ014uK2reaUVcTuJ7r7DrjdEeJ+SbUIWHehjypICkQRXNmuA+Mcta1k92efXfhSeVksXryYv/XWu7clktbwSCRylKR+PluoXQz3hHA4LHbu2jntzluGjGnVqtUhrbKTH3us18oV3z1k23btkqn5wLc1ZUnfWi0v75bHp05+sSIFMfyKXDvOLyiMjo1EImcaeoiDQKIaVwIJAuMikYi3a/eusQ9MHj+pSSnL6cBowaIl573zzj+nck1vChXZgGlgkQUhm4xFRy1Z8tzj5eVZfHtwLVj07KJJnPOWcN/yBX1gkS27kH3ttfeOfu75ZyZSzv8CDhCqjZShnQqQm+L1iy5q279bt27lErIwf/v0GfgfTdfOhoIp8CIA1m34xJMxqWna6hp1avSY/OCDn1SEw+LFi6v997//m7Bly5aOmmlGIFg3mYgX5TF2Pe+HTjfcOOiqqy57ryLHx33KTwCFbPmZ/Sp7fL9ZHvXxl2sbrt+0O+wRjTCqU1dFyGvED12F5NDwtyCQNUgW7RLJAjuhS0JcI4J5VNc0CluaobxIbm5e+0hEb69xkhNSRw2EbHBqxQUdhHNwVTgBIpM8L/FP4YmoJj1KmKAslSvyYFAg/+X+n/0tovSgTrr7tpO0ZB1YCGFmyjdWgkPdgU0c3E4M65glPoIRwsDSUqzJ4psU7zFL7Q+aE7bhVNmSiozCFCroaDqTGjuKUv0MQmh1/1gHilmgbERMsqcgToxQhDguIUmLbInGva83btnyqJ10PcuKEe65xFPDDBG83B9x8EjgkLYQVpxdv3Bial7YQkW3q9kiHFcaOmRcjxFTc0mzU05cfXOHk9f/KpO4ihrp0KHjfZm5ebc5jpPFmUYcx1MCUHpCOk7yw46dbry9/RVXFFVWqqJmq/wwS5euDz359/sGMk7HhEKRCAgqEHEQ5KVpGiSx2JWZGZnap1e3cZVJ4/O3Bx5o9OPq9bN0LXSuKnii0lL5eVe5xsActenE+id0H33vvR+UdpKBkNV0Yy5jfnUuN1VqGkQR5GrNyspaOnvmtAsqCumuu+46afOWHe8Rxo/jum8lhUAp17b8NEiaSkT/XrOmp7W/8847y2zdLN6fadNmNv30s8/mEkJOJ0yjKret7ke9Q3s6Zy8MGDJwRKuzzjpkcM6EqVN7ffPVNw8JIWsHeXCVVRZSN8DLiM69eCz+2KTxDz1w7LHHljnna2ns+g0cOtixrPuFR6qpXKkcqsglVfEECFozTP0fd4y4Y0iThg1LLYU8d8GC8957919TGdOaMo2rc65qIbt48eKWL7702qRIZlZL3z8UXsIrImRfO3rJ869OIBrrWPQcSAlZeN8QIGQvvKx/t27ls8gOGXLrWdFY7EMhRAgKpgSZJvysEG6B7Tp3PPf03KcopeUujhGM2aJFL52w9IP3XkhYVlOua0x6sK6ggh6J6zgWJXL4wP43/f3cc8/1qyng5xclgEL2F8Vb8YO/8O/8Kz5dsXV8gobqe9QgVCqnMKhoWlSAlUnw6vR9ND3lqwl/E35KLeL5O8CLLqPMky6kfKWMeuSEo2u5NXKNRIiLLAj69W2x++QaHMNPycXAfZNohkliiSTcU7dIJ9r2L62PWp06s2D+BMLxUPPpN3NCqPgoHLBn8fMr9XxgyW+UlOzMz3Y30sycSXFbXEqJrsZFMU3dqFUZBbixKv9Dg4AvHyTntl25ZWe+WPHBZ+svFiyLCOnfa6FuBFh/NRfKg/vjrdJ3UZcwNd5CwnyA3wdVhUE9q7I1wlXxHoZMCM3ees/zD7ebWIVMfvFDdezU5SE9FB7KGMsQnl/EIhWBLJN28tXunTrcfvnllx/xkcKzZs067f1l/35U1/W2sM4B4FxbZSYA30rXs533mzVt3vPWW/uXywJVcgBWr16dPWrM2KGGpt9LKTWUYE6978E7oZRi7ymNTnloxIjbJhxMyHbs2K1zOCtjrvAglsmPqPfvL2qVRkbCodHTpz86ujKD36vXTbNdSXoboTBJxmO+RVbTlMgMm4aMx+IjFy6cN76igkPlHp6/aO6ePbuvMcMRI0jPpbi7AoTXhAgAACAASURBVCpe/euWIUOGnnPOmV8f6jwmTJ7c69sVqx6SUtaWqftsUA0R0mYVFO79+dzm5/S77bahbx8uI8TheI0bN+6YlSu/f45w7RzArTKZQEED1y8ywSj58dKLL+nQpUuHT0s71nPPvdDmlTdenxIywyr9FgRFwiclNHfbicSo5557ulIW2e7de7f0KJukcd7SnxRBsBf4yJbXIrtoAuVaR7ibFT8f37XAe+Pii67oV24hO/TWOXv2FvTQNI0FftHgWpCqiPdZRijSefbs6YcMmjvcOMH3I0eOfmLDxp97U0p1/2UxVeRCvWG7b4wYdc+tjRs0OOLvS2U51yN9GxSyR+gILfq3e8Un326dmORZJwtiwIqYL1wYvPkRwkGkglVSchWsBeIFbgV+XlhJwG4HmklISiTzLaqMOkSnFjnx6Dy3Tp6WNKmbyVKmPBCyYByF4gi+6FKrcMSTjAjGCeVgiSnYZrpW6xvb1liLgUiHnjhLP88/aZclJjIt42pJdZCXSsiqBPAwViA9IfWsBz6fFKzmStQ6Hi3cEeP/e/vjLefbLEeV5fUFq6+BDc9QA+0LWTDEgilWEj2VCxhagG39x4IgagHe18+eIWPCsLbc/dqDzdJLyHbuOoHrxmBN08JMWX+KAnikpvPnr73q8tuvueaajUfopZwSEpL36NPnaiEoWAhzYPxBtOlcUxZORkQ0Jzdv/PTHpzxQFecxduLE1p8v/2JqJJLZTAih0jBBe1CqFFI6VcvLWzRx4sN9SvMPBYtsz5sGdPZcdy6jvDQhKzIioRumTXu03Ev+xc9t8ODBFxbGnbe5bnDPsdULCohmVVqVSDdaGPvLs8/Of6Uy4vDuv428dcvmraMo13JS+XdT1bYkiMMvbh06cMDZZ59dqigM+jp58uRe3xwgZIPXf0pMQ3+7R7dOw84999xVVTF2N900qKeg9DHHcTJBiIJFFizq8MKTv2d3glE24O6773y2tHK7C597oc0/Xnt9CtU05SPrwdvxLyhkVfpseCdLpd/6rYXs2LFjc1au/OF/gtJ6gY8wuGbANQbuJJzSedHC3XcvWrRoW2XHavhd9wzYsnX7JNMMRywrUVSQRGX3cOwdLc9pef2gQTd9WNl2cP/DE0Ahe3hGv8kWCz+JXf7xil0THS2nkUd0wlPr3krIgmAVTAkbP9TJl5/q8//RFwyEbErYqBKu4OMmBeFMEkMmQMiKOnnUM7nUiYTIYVgcL13IKhEsKOE6JwWFBbuYLGjZuc0xa1DIHnpafPqjPHHr9ugEVxrXSgpZPUFMBkIWhCkjTFKieVDdCCQnvKSA9wYTuxJk5Wsfbmts0WwiQeCmXmDgxUX3wMICQhastH7GCRU0Fox36qVGgD+uqjxDYQleJZ7XSCHRkhuHv3n/2aVa4n6TiV6GRjt37T6BMF4kZINdPHhKM/L89VffcPs111x6RAtZqPM+cODg/kfVrjPBcRwONUlVVLnrl27NCIe2165Vq8fo0fceNldoGZCRDz/8MG/e04vuLiyIDsvMzNSCkq4w11wwR0rxUcuWbboOHtz7AG6qIEKXbp3NUHguFFkt3p6aq55wQ1lmyycff7xS7hwvLV2au3j2/PWUa7lh009KH2QXSMZjyYxIRpu5c2cur8y9ZsyYsW3Wrlu3SBBaB7I5BLlEYeq4rv3tsJsH3NS8efP/HIrpoYSsazuQZ2HqHcPufuissxruLMvYHG6b4cOHZ23fWfCp67kn67pZVNBAuUZQwO/NGnP/qLtKSzs1b97CNh/956MpiaTdFApmBBlVfimLbOWFLPjI6n8pzSILPrJXXHFpvw4dOpQ5aOquu+498+fNP78ezsisHaS0C1YkhBCOwdnd4bD+xPTp08scRHmw8XrwwbFXrFq99hnTNLOhraAIhnI/kcJxPLfrgnmzK+Qzfbg5gt/vTwCF7BE6I579OHnZRyu3T7J5diOPmETzqG+BA+chJWRpSsj6zpEgamCBWclR6Vtm/Q/cIpjK/whC1iRJcuLRubJuHiUG9WDFOSVkwbILEml/iywIWfBz9aCUoHD2RKObz+lxUf0fjlBsR0y3Vu2V9VavLZzgCP06ELJqiR+EJXjUwjgqIUuILv0XEgmVfNQLByP5Dt3y4tKtdZIyGwa6SMiqHJbFhGzw8gLW+WC8lUUWDPXgP5wSskT6c8SQUaI5m4a/OSq9hGyPXn3GCEJv0XU9EyoBFQvgk/FE7I1e3XrdfsUVFx3Rc/LHH3/MG3Xf/SMcIYdDVS7KuO9fyVTWC2kl4j81/NMpF4we/ddSfR/LO7EhHnPq9Cf6fvH5l7A0nwsiCNoL+1W2wE/2+zPOaDZkyJABBwSkgJC9sWO3zplZGXPVu1fqo4I+/WIAtpEVOnnW449Xytca0mX16N1/g+16dUOGXlTZSlmPGS247tqrWlx11VWVsnKOGTPm2FU/rH2PUH4SVAjzy9vCOSghu3rYzUP6tGhx5iGtZocSssL1klxnd9w5bOjfS7OQlnfcgu2vu7HTi7m5eddC4Q/ftcP3QYVgOMuyPm96+qlXjxgxYnPJ448YcU+brdu3TRGSNoV55pfO/uVcC440ITtp0tTLv/76m6eoph0VlEiG8wdxWVhYCLfGl03D/B/kSGvevLnKhwxmhOJxGMqNL5VGwdD80sGaKqfsl7KFK4JKKj//4n/1XE/2JISEYGxU0Q3IpOJ5xNQ1r7Cg8JZx48bMrlevXrKi8wD3KxsBFLJl4/Srb7XwI/fyT7/bPjHJshoJELLCdx8ASxv8VBZZCPJhlhIsHkSOpp45MKjKb1KtKkExHd+1AFI9GSRB6h+dR47O5cSA8C+4QcJxIWq+mJBVwkvFFMFx/WVwIpy9rr2nRcfzjjmiRcOvPlilNLhhr6z35aod4wXPuB5cC0BsKk9kcPdQrgJ+sJrh+yz6gWuQZNujJE5CzrPvbNKTMkf5n4EVHv5AgJvm+T6yvh/sPuu7lhov9UKjXAtgnvjtgXuCqjQko0S3No14fXTL8UcCo7L2oWfPPiOiyeTwcDhcDV7VglQ9qtKTqX96yQUX3n799e3/Xdbj/RbbffPNulqTpzz8UDxp9QqHw0rIKouRkBDkJGOFBd83OOmE00ePHl3hAJSS5/XK6/+47oXnX5roei4ss/qlOIUgEA0vpdx83vnnjhw8YMDskvuBkO3UvVcnjfO5nGm+0k5VCYP9Xde1QmbGSbNmPVau1EWltKN379Xve8J4PXgBD9oAwa1ztvP+0WPOPfbYmoE/foWG7b777qu56vu1/9IMs6FvofTPBQSe69prQMg2b37GskMd/FBCVufapnPOaT7kpt49XqlQBw+yU59+g8Y5jjscKqqpFx6NKTHmWElwNdgdj+Wf+fLLLx9QmaxHjz5tJCFTCONN/dys/nvIH8UiO+ahcd1W/7D60aTt5EI+XnApKJZPWWZnZsZj8ZitXsnARYkfWgIVT7cGaWV0A8rTQklmcNkSGmMsC3yRgyIZwFqViaYQh0z+On7sA4/Xrl27QsGKVTmffu/HQiF7hI7wcx+5l3+8cudEm2coiywIV98i6/vIQuAPIy4RzFL+lYLoarkZblx+8I/v46q8JFVQEZQ/9EhIJkn9o3OVkDUplJlU3rMq8KikkIUlawmR8lKoC7iwYNfeEEu2uA6F7GFnDQjZb77fMd5l4esJMVWiMjU6xSyyIF45CFjp+P6yzCCOS4nNw/KZ13+mFleVG1MWWX88AyHr+8FC6jRPWWOVbzS87ECVIWWdD9xMghRqkugkTnTrpxGvj26RVkL28cdnDPxy5cqRUojaQbBXUJM+aSV+zsnLGz57xuPPHHZQfsMNvv/++6MfeOChKUYkcoMqeACrJypRPVgGXZmVEVk2Y/qjbauyi6++/faVSxa9MJFz1lCl0HIcJWSVr6xh7Gx+9hkP9+nTa/LBhGwkHJ7rucJPlByUDvUTyyfDocwGVSFkO3bpuSojK/tECZk5YOmc+5bqRCy645HJ41sde+yxlRay369e94FuhE4Gi2xQhQl8Tx3HWjN08KDeh7PITpr0SM8VK797eP9gL98hSAr5RZ8+3W9p27p1lfpC9h1487BkPDGRUj8tDNyn1U9PVaQqjMfyz33uuecOqGTXp09/JWQdDyp7wSfIc60sunvsRGJkVQZ7HWkW2XvvvX/Iz5t/flAQmh2kjQRuau4rfinLNlRLhn8fJq04+OQHQVzgqwwlj1WJWstSFlj4BPmPg1zFcK3ZyQThmvbApAkPT6hRo0ZhVV7XeKwDCaCQPUJnxfMfuZd/snLnRItnNvIo+Mj6HXU4uBaIIp9ZSRw/uKeYkIUbrArWSmUjgJsZuBbo1CMhEif16+aSOrmUmAweqL4wPpiQBXFluQ4xTJPEC3ft1e2CFteha8FhZw0I2RWrd413iHk9oTpVgXlKXvo+zspbNmVVBYspBLGrwA4LSiYZ5OlXtxOHV/OtR/v5yAZZKuClBlKtOb6PrHKJTWUzAOt66qVGWeUh3S5Un2ExYiQ3jnh9dJO0ErLTnnjiug///fE4Ikl9KE0PYidVyx6e8IloNDqy/009pxzJZSE3btx49F133fOomZFxHTwQYYDgAQl/EomErFXjqA8mTxpX4XRWpU3IF1954+IlS56fZBhGY5UWyHWJqetKLG7duiWak5v96Px5c+45mJClRM4x9JB64quqTbAs73mw1JqIhLP+VBVCtlvPm74zQuH6YGkMPko42NaOiRMmt6pZM6dKhKxhhk8GWaesZRBMxjSoorbm1puHVErIWonk8r433XTrxe1af3TYm0I5Nug34OahhdHo5HA4Q+WihiVw4AICKRaLF4ZM1mrhwoXflDxk58492nCNT5GUqWCvVNa0wCJbZUJWUDaZc37OkSZkR4584OaNmzaOoVzLBmtssNwPAhTGPR6NqqC5oJiF7QbpK0sfHBDAwN234LvqeHAcEK3+ypAoWiGC72GhTVnOk5YQUo58ZNK4qTVr1qy0P245ps4fclMUskfosPtCdvtEi0UauSBk1ZI0IW4q2AtWmsEq6wd7gYDZl70gsMiqB1BqKVZZValHTBlTFtm6uUxZZAX43BYJWT9wKAgWU1ZEqhM7tZSiMXevm78NhWwZ5gwI2a++3z6e0Mj1goJFNviUFLK+tUVZD5hG4HkuQ5wsfGUHcbXq6jtwEQAxCx8dvLzAgs4EcZhQ1vjAZQHmA8wDMDOAXzQIWxXslSpqYcgY0ZObRrz+wClpJWRnzJjV6j+ffvIY57wpo35uTH+5VYMHCtQEndmvz6D7L7ronEpHIpdhaCu0yfffbzz6oYdGTfEovQGW+MFFwi9Fq3xOZU5W5ofTHp9yfoUOfpCdXn3z7cueX/LCJCFEo6CcKghRv7wq33nmGU0fHjCg30Etsoauz6HEz99UQsjGI+GshlUiZHv0/Y5wrT64FoDYUBkcQHTb1vZxY8e0rgqL7Hffr1lqhiKNAousz4JBkYE1d952a6WELBHyix49ewy78PxWh3RPKO+49uk/eITneg/Ztsv8ilFxJZBgJTyRSOQLjzR/7rn5B7h4gWsB4/wRT5Jm4CddIv3WEShkD55+qyLBXiNHPjB446aNDzmeyAbRCfMWxGiQEQN8xMGaGtw/SsQyHjBMMBeDXLl+HtrUvTpV1U3de1PbwHVt2Un/+qJMeEL+ddzD909D14Lyzv7yb49CtvzMfpU9nv8kefmy/22aKMzcRg7VlWgFQeOqQB4VA0SYYERX2QzUAnNRCq4gOl51lHE/ITSHi8slEc0hx9YIk+OPChFNgn9tkHvU97EtKWTBtSDwxxReYi9xdre47jwM9jrcJAiELKVZ13vKIruvak3w4qB8XpWlzH+7pxze/AmxJCHP/mMnsWiucjtQmQsYvGAIoktfqMK/YS44KYmsQbWrlIAFf2c19GAFFhJuqn6deRojpvPziBdHn5ZWQvbJJ5+s8/6yf883DOMCCD4KRBnMa9M0ZSIee2/QgEF3nHdei68ONy6/1ffr16+v/bd7R43VzFB3mAlQ2AEeiir5v2HIwvy9KxqdfNIZo0ePPrSJqBwn8No/3rl20TPPTjRN80TYTfFKlT11HHtLq9at7hs04KaZJQ8JPrIdunTvFDLNOYxy8AMsKssKdxvLsqpMyHbq1vtbMxQ+CUqcBh+4FpLx2PYJ4ye1OvbYmpXK9wk+st9/v3apZoYaQfDTvgAgRiwrvubWoUMrJWRd2/7p4osvHtKre+fXyjE0h920e89+4ymjd4IQ9YMbfcsfuBZEo9GfI2H93Pnz5/9U8kAgZAmhj0jGmoFPMASL+UvjKr3ZHte1Rj73TOXzyBLGJ0tCzoHnSlWk3+K+06o6Hf94nqrs1bbtpf169Sp71oL7Hxzbfc0Pq6e6QubCC0BQoldVX0skpKnrSSmlmyr7SwVVrj3+agNYvj2pfGqh+ERmZiaF7TIyM0hBfoHyMefczxUbrAgJVfrXF7dKLGtMOhAcRplwhXvb6JF/e7pBgwZQtQY/vyABFLK/INzKHPq5j2KX/+fb7RMd3c9aoHLCUkYcDq4AviUWrHOaC5Hwfl7RIMgHJGlRFDssTTMOBdMJFUlicoscc1SIHF8jg4SYq/xf9/nI7i9k/f7vO650UciWdUx9IbtrPKWZ13sU6n/t2zNwLVA3bQ98FqFSBSGO6xHHpiRBNfHCu1tZUmYRBvl2mEs8ZXkFH1l/Wd0XslByFGx7jGjgA62C8lRiR/+BAH/clMXAcUmIxYlhbxrx4oNnppWQhfKdewsTj+zctbNvyAxHILk5LA8G1hbHcX5ue16rof37961UztGyjm1Fttu8efNRf/vbyHvjCWtIKCOi/ErggQjnsWfPHpkRDq2rU7tey4cfvntHRY5f2j7jJj7SbdWqHyYmk8maUKITlkPtZFIFl9mW9cO55549bMCAAQek+yomZGczyvVShGwsEs46uSossiWFbBDwlYzHtv0fe9cBZlVxtr+ZOfXeu4VVEEEsGBUVRQ02bEFjNLEkfxCEBREUo6KAoEKsoCBFsMXEFo1YogmKmlhiNyoJYo2KgFQpwrLLtltPm5n/+ebci3S2oYuc+zxmw+4t53wz55533nm/9516+x0ntgSQXfD1krd10zpkcyCbWzRy+LDtuhZsSyPrOW6WUjr8N+ecOb0pUb1bG+v+Ay96SkroZxiWYhAtK4xmzjfFfdDt8EN+O3LkyM2CMxSQJeQuwrQjMaLWtuPrgbDneXWumx07c8bf/tCcOdav38ATJaV3FBUVHeP6+S32HeAj2xRGdswNN5+Tqqt/NOd6KlERF73I8ofyABn4rvsP0zDnoUsBAtNjjjuGFFLrLMMKY4wB4PPPPoea2mpiWzbxPB/suEWy2RwkYnEIlNMBhWw6g6tqRUbghmjbtu0Q/Mqvv/4aIwdFjx4n/HPYsMu+aI4PcnPGaVd6bQRkW+loP/NJcPYHX9VMTQZ6FwSyVISMK4IX1MSqlCdM3ZIYfIAd6iHgDNt8uGLvsJkIAxFwyxoBKwgPEpaAfdsXyz1LDTDAI1rYOrbe9aDAyIY/NwaywsvWEV4bMbINmDPLauW+cxdW3y5JojdqnEMgG8oDNgSyIHygmM+oRM04xhpkOU09+1ZlUSZIqMADBVqRgpcUmAh9ZJGNxduaDoaSnWgCG7+EsknDcS9E4qpGMBKyvjHNAyNYPfqZsUfuVD6yWLOxEyYc9/XXix6N24mDcrkcwW3DkG1R8gJfp+SZY4457vorrxyyvAHD870/BdO2rrvhphHt99hzbDKZZKg7V13VabVlLDVK1rTds+1vJo8f/1FLHBymWt35h/uu1jX9Bt/3TRW+gGws7s4QItKZ9H9O7HHygBEjLt2M1ds+kHXSMbv44BYBsgMGzTPt+HpGdmcDsozQoKZ23fjrJk+8+7gDDki2xNiNHTvWmDtv0cdtysoOKwQa4PcDMviGxkR1TfVfev3fuaP79+9fu+nn3XTTrccv+2bZPZphdkeNLMY5Y1KaaaLbCWS9XPbWp59+Ai3Zmpy0WD5w8M+5L+6yY3ZXpEFagpHdmo9sYxnZsWMnHLN4yeJ/Mt3YA0EpzvlCMh2l1AuCYJhGgsenT58eWWK1xGRtJe8RAdlWMhCbHsbTs51zZ32x9vZALz0I7bdUsxBh4OelBfhvxDaY4PVdA5FyjVW2XCSf2EVQK6np4AQcpPAgpksViNCuGIRFhKbhtojqjP9OWoDHwvLbWeE7hg/hpyMg28D5gkD2i6+rbpesuDc24m0JyCLmtDQKnu+oLHumo1WaBuvSdOUL//62EwYioORVSUpQUaB8ZPW8Jjq/cOFEse8oLUCBSb63GanYUNeI7Hxew2VSVxrBmjHPj/3pTgdk33nnHe3Z5198sLa2boBt2wayVMio4I0eQW111doko/SaKVMmPLGjfBs///zzgx559PFTvlm5oqS0pATS6QyBgINmmsA9Dxkese+++yzq06fXe0ceeWTdhlNl7ty5xq233tbPMK37Lcuysc1SdelTTd1ofdep3W//zsNvufmGJxs4xbb5tJtuvbXb8m9W3CEFOdUwDFJgsf1QH+hpGp159llnXrAlFlEB2X4D+5mW8Qij2kaMLPrIep7bgkB28FeGZR8QRmJ/Z/PlZDMVU2+/46SWYGTnL1j8lmHZh+4IRhbTSAkjfx1++e9u6N69+2aLgqaM5dBhI89JJtNPMkaLVeaHun798Kfv5RhlQ88558yn+vTps5lV2xNP/O2od979972O6x2PzW240MPrw/McteDTCNx9wQX9bjnjjDOabAk1cOCQX4NG75FC7tNS0oKtAtmzzvjd4EYEIowdO7b9ylUVs10/2AelAYVoWvy+8H1fmIY2ichg2vTp0ze6PpsyTtFrWk8FIiDbesZioyN58TP5mw/mrptS77IDQ9eC0CcEgSx6ixb+rXQ9yrUgfCCIDaMRQkjjewKYGVN+sGoRLlzo3KlUdGgDQVwHg/oIejf1oUU7p/w7YsRtfvHu++k6jWcj+60GzJnvgGxiAyAbvnBD1wJcaKhFglqQYPAEg6o0mff6f9YcghG12K1c0EaHgQi6YmZx1NSUUAsR9AfG8UIXA5QeoNNBqKsTKD1BjSOGGYucsGnN71+8/rCdKqK2UO7f3zj2Z98sW/60ZVntC16yeKPHa8A2TOn5zmf77L3PJePGXf9ZcxinLQ3v4sWL2027654RqXTmAk3T4q7ngmVaCESJ57pSY1Q6udy6IPD+OHDggL+cc8452Q3fBxtvXnnllWP++tSMP+m6flQBVFFNV9uZOqOuBDnj/3599hW//vWvm2XXg+zvuAkTL9N140YeiCKVIIYLJcYAgaxhGHV7dew46ZZbbtyixKQAZA1Tf0Rj+haArJeK2dohDz/8cHN9ZLV+AwbP2xKQzWXSFdOm3tniQPa7MA3UyDZfWqB2O7i/dJ+OHS8eP37cu82ddzNmzPjJm2+9+1Am55ysaRpDIBo2KuVN/evrFp3X67z+vXqdu0Xm/oEHHj1g1n/ee4DpRk9sbsPvjLDL3sHrRPiu++wlV156/WknnLCkAV9jmz1l1qwFRQ/+eeqVfsBviMfjcT/fCLxjImrFi2efdcaljUn2klKyyy6/8mEBdGB9fT0tSGryFlqSUfI2CDpk+vQHNvPgbUo9ote0jgpEQLZ1jMNmR/HC7OQ5//nft1M9GjsIiKm2jxGYYNM6AhsNm34UcmXqdwod4Ra1iuIJvkv2ohZ4AsCTuDLXQXg56Lx3W9G2GIQmuGZpmHO7OZBFWQEC3EIYggLMEZBt8GxBIPv5wsrbgcV7I8wMxy8PZDdwiQh8AMNAth0KrEtQlYTP35i98qf1DgPbRClBAJxxIIKArqhZLYyzzZsFKxmIQBsuCQK74POsvWJkKfoI6yCILr1MDZSZmTHP3LDzMbJYuUWLFpn3/vGhcTV1tWMwbjS01gm9R3UMGPBygakbzxeXHHjhXXeNyjV4sBrwxEEXX3pmNpe9z7btfU3TJKlUKrT28cJGERH4AUh44Wc/O+GaIUO2LG+YO3duYsqUO0a4nndzmzZtDGXDRUMrn6J4THqet5qAvPXRRx/erAGrAYe4/imLFi065Jrrb3ykTUnpsUJpTcIGGgREcduW6XR6xV4dOwyaPHnCv7f0vghkzy8f0Fc3TASyxoYa2ZCR9VJakXXw4w888G1jjmvT56rgha0A2WwmveaOqXee3FxG9ppx49qtnL/4TcO2u4ZJV4ULkaITwMJRI4YPaY6PLAI4P/B87nt3Tp0yacqWYmMbU6OLLrp0lOM6NxqWXYrDhvO70KyFDv6+6/5r/K03DTvooIO2mAD36KPPl7751j//ApSea5omwzRifKD7iaZp0nOyX/UbMGDk2Wee/mZjjqvw3CFDLj8um8s+ZFh2V8/ziJZPZGsqkP3bM0/dTjW935YYWcH5iz17nnTp4MGDGxxRi8c5bNiobrXJ5Gxd1238N15fyimEEGyDTWazud/F4/pzDz30UGgu24THk08+edjChUv2Zoyp7oWCBzL+tCxbnnXmuZ8edVSXzZLXmvBR0UsaUIEIyDagSD/EU178oPKAL75afW5aau0IoYThBpbwiWSSoPWS8sRBSo4yIgiasijGlRCJ7T6+2momksqA6uD4QKhZREtKSlk6WZPYp+PuXfZsE+sG3NM4UnUYYass+8Ovk4I+dlMgy/1sneTVx/ZtomvBV8v9Eytrkj/1OOhUMzWQjFEV8MBROKEsU/EQMIwKXcHwp+/7mNwa/i20E5PoQo5/psAkz9+ZVIBVGAKxkfar8PvC68PdS6neM5BMuNgby6nvuTKXzrppL8szknLfz+bAdevb9/xZ97knHEAazV5sDGS19UA2TPYKnSJUexZqnRWjjobwWSBC5NYl/Q8/XZisMeO7ZdxUWNxaKAAAIABJREFUFRfM5wCuaujSfPVljPboONLSx5cKLqiqCZdcYOOtkD5RSxHhuThFdGLYbUiqfp1oHxP/vG/Mce/8EHO6JT5z4MArdhPEfc00zZ8iEMQsesVa+R5iQpBceDknO7Nz571HTpw4sUXsuC6++OJ9PElvlVyUM41p6qal6fkoyrAJx/ec1UccfsQtV189/M/bYuX++c/Xzn525oy7CSH7q0AEyvL+lim82XKQ/N0ePU4e/rvfDfqqKfVavXp17Oabx/3OiMUn19fXm4Zuqhs4bq3mgSxPpdOvnXB8937Dhw/foqYTAeZ55QP6mrrxsK4Z5qZA1nXdpF5sH7KzANkV8xe9adqxLQJZbPY67rju2/SAvfPOOy/8cu6CyVsKRFCbXJJLnZIVIGH4I4889Ara1TZ27JCxHzBg0Ol+EExp167dYfWptGIqCtIA18XvIxfFzrfceOOYew/Yih4X32fq1Humzvv668s8z42jj2xJSYmy78I5ELPMTMDFzZeNv/n+Hp06NWqxh0z/hAlThlFGx3oB15VOPd+x30wg25duEk1ApMAY5RfPPrvXpX36nNUoIItf7+UDBr+jG8bJBc9pPHecxzpjuGBcUJQo6nv//fd80dhxwudPnz59/7feeutPphU7Jp3OykRxcT44HqQQggQ8WH7xRYOu+tmJJ+6037NNqcsP+ZoIyP6Q1f8BPnvGO5UJzsnoREz/PV7XkhiqwWhzIItcLHICVDUQoWl/c4AsfsG++lHVrRmHjDTtRIxoJkEgElop5dMetlCPwhZy4U/fMSqhZjTszQ8fyjd1AxiLzLUCv/mnhK9VW/lqNYC5PJxQtMR20jlYm0r7Kz0P1nEhvWwmVZpOVnWX7rpr773mpKcbO1ShtKDydqkhI4s53Yr4zkfUhkAWj50iw4oOFEjZEh8CL+cl07mPLzh9zxObu03Z2GPeGZ6P86j8gkG/ZYQ+phlmXDUqIrAMBTLqFAxDF04m90bnn+w9asiQIcs6NfKGXagDMsDXXn/9wbpuTiRAfh6Px3Wed4HALVXVCY2Txcm5msZe+c2vzx7Rq1evbW63v/bau/s9/uSjEzSmnc8YYxyHXdkN4faxApw5yuAvPU/51S2DB/euxsasho5LRUVF/NprbzhVgnjU48FuxUUIYBDs6wrE4rWWy6RXHXjIgb8cd8MNm6VCbXCNhUBWMx/WdX1LQLZeL7YPbREg23/wV4ZtH7ipRrbFGNlrxrVbsbJ5QHbanXde+NUWgWwo7dENDbycg1r3FJGi341PP/1GV0IaHDUspTT+9ODDp3w0e85EyuhRQRBQXOAgUMRxC5u1TOl6ziKTaZdOn/7wFpn0wvhNnnb3yV/+7/P7DctS3rmoE0VGUoVvZDKSMjork0qP7tu310cNdVrA627QoEFHOa540ratLnh8YVhLYf6GEh9GYG23I7qNvWr4FQ9ub96++uqrez7x1DO3U6qVU7Re2fAhhOSCvyoC5/Knnnqq0Q2cAwYMGsUM83YhBF5mqo7KjzebVQtHx3Ff69hh917Tpk1rlFZ4xowZxksvvTQmFkuMzGSzbTTTUuddaCxD+Ybrus9cO3I4aqYbTYBsr2bR37dcgQjI7mIzo1LKxHtvr73RLIpfi0tUqdwQCq4FeUC4gX2Xahci4RcBEbk6P115bN8mJHvhF+HM9yomaVbJVZJqJoIOdQPfXkbgNsYHmU1kp/GBnrpMhNphFRKhQgQkgE7A8R1F02JuOaAkQxDQMExCNZg4ALoFtTlaWZuFZVxCfX0WildWpA6sra0os6G2/Onrjm0SkP1y/topQi/tg6AV5R4h2NYUsuY0tE3TOHp0Amg6OgsAME1Ade3qLy/8RafDd7Gp2eDTve6663ZbsWLl3bphng9U1z1MntN0BdTwpo03bCIl931vseD8Lyef3OOVo4/+9dLu3TtspFvd2gcio3PJJZfsU5fK/IJS/RLTNI/UdZ2i1RDaIaEfK34WenoSlB06uf8efPAh19188/Wzt3cS2LQ2Y8aMvplMbhzTjM7oDqqoZJW+FjaAAUAmk0y/0Ldvn2lt2/5mbs+e22b4kEG9/PKRe62rqyzXdfNqy7TK8HpVQRjoH2wY2KCFlzuaJN09/S9/vnpbx4nv17t3//MtK4ZA1iqkICmNrfAhm83V20bs0McfbwFpQf/BX5mx2HogW/B5dbKZ1dOm3nlKs6UF14xrt3zl4jdMyzpsQ2kB7kJ5Tm7hyFGXX3xc9+O2ycjec899F378ySeTNcNoj2OPzB5qm9WxopQrH/+LgNZxnKU88G/tsEfb1+++++7N7LE2rftfX3qpzUt/m3mmFGKobhjHEtQBhfxBGGHMhQrMAICaRDw2aejQSx/s2rXrNpOiZsyYwV559a3HpOC9KaWGEJjfGEapFhUVod2bRyl91fXcu4ddfsn720vEQ93peef1O9yyzN8zTTsPrwXlpco0lQuJrDHWAcEcZWTt0cccPXb45ZduF8jOmPFGycsv/30S53CJZVkavifOf9NSJZCZTObT40884erhQ3/37vauq03/Pnbs2J8sXrL8zVgstg+OGTZXqsACx1N1xcbMuvqa2/Zqv+/9d911W0VDSINHHnmk6K1/v3+WzsiNUtJDcaHh+F64OxP4aqsvCII1bUrajL3i8iGPd+3atcGLmcaeX/T8jSsQAdldbEYsWCCL5q5ZM94sbTMi4HijK0SeIqMV0ob4pbRe04nAjzLVVd9cIPvse1WTmFV8lWTMJGgbhkATgV0TH5sBWYlBEeisHbKwCGQFU5v2KhBCpSj5eIoEDJWWhroKBwKqQVJYqTSHb2uTYCxdld3z23VpW6ccYqKifMZ1RzURyK6bIvSiPpi2RSGUYxGhr2eIkVNG+zPJiXKW8AOUPAuoq/t24aCfd8JIzSZb5DSxpDvFy3BRNH78+CPmL1h0B8ObP2W2ZZikvr5+ffwk3hRVLnoQBDU1Nf9rU1r62IknnvD5YYcdXCWEmaHUzRk5g2d1m6dJjV6m66bneXHOaenz//xHh6VLl/2utLT0NCmlqfxqUYOT96XEGyEynYbGZOC5KwjIq5988rGZDS0eWmNNn/749ZmscyWXUBwISXSmhVpbIdR/UvCAC/4PGYjHevXqtahz5y7VjlOVxu3loqIiouu6kU6n44SYZTNmzuxSVV11GQjZMxZLGHi8uJWKYJtIrsCBrmsIDFYVlRWf9dAf/7hZtOmGx14AsqYZ+7OuG3YIZMNEsEAGuFioi5mJri0BZPv2v3CuaccPKjCyhQSmXCa9+o5pk0/p1KlTswIRrtkAyGJAQGFHRwHZXG7hVaMu2y6QnTbtngs//uyzybFYrH0YFytUOy3+1BlVCxvVcIjzTQjpum5Kgnh27707PvZ/55y3RtN4bSqVQvAZ4Ng5jmO5lBb7udwe0x9/6lTuByOKi0s6BkGA0jC1EHPcXDhulOG//Uw286/+/frccPbZZ2+VSd9wDK+/adzA1atW3anrRhlqWfE7PPRUzSkwm8llBZFifhB4twy99PIFbduWrstms1kvb6QqRJlmGMm40LSyB/704P5ONjvetu3DkDMoRLXiT0DpmueCbRrhQjKXWXvEkUeMvfaq4dsFsrio+/vfn7/Zdf1rhBA2zi/0Va6rq1NrO8MwarM558+nnHbSY0d1PTqFW1ZCpCVAHOJxgFrfF/u1bZve0o7LypUr7WvHXHcrSHJlPB63JA1TuShh6tpAhxhGaDaXTT97eNcjHz/xxO5LGdtj3QknHJTZcBcEFwWdO3du89XChR3eeOX1noTSSxljXXAuKUcEO6bkFYwSyTnPCAlP/rbPb2/r9atfNasRsqHfJdHzwgpEQHYXmwmvvLKoOFNcPFEvLrnC92SYFLXefmu7QLbWT1ce11RG9tn3q25jZvFIyZjVEkAWjztMHQu37FXvU/4XYTgEOupiBBoBxsKoVu4HysDawCY5zI3n6OpgQzIAd9U6SK9aky6pWJfR6pGopT6UaDXlM67rtkOArKC+Argo3SDURlJOqYCdXN2SxW+0PfCWWxq+rbyLTWMcS23atHt++uX8eZf6vns6o3oH27ap0quiV6pSUYeODUoULaVDCFnNhVgoOV9LCK1BLON6nm8YhuULUQwg94jH7L1ramo7l5a0KXZdlyKowBs0viduTeI2L86bRCIRZLLZpb7rPNq716/v6dOnT6P0hg888EC3t95+b3xRSekvPM8zC5nwCA6QObIMA1KplE8pXWOYxpf19fULpeRrKGVpEMAMyyySPGhPNGN/jO71fb+9rusMdx2UATxl6ngREKTTaUEpWQYSHjj33F/etb3tZKztb3/b/3zbtv5sGAUgG9YyD2RrY2bisJYAsuUDBs81rdhBBXnRhkC2pRjZFSsXvW5Y9uEbAVmJMo7s1yNHDR2yPUb2znv+eOEnn3w2Wdf19UAWC4sAP/DcXFFRkcxms5aS3lOqdgXiiVjg+95KLuTnIGGJ5LzCF0GOEkp0XWsjuOzEhTjUMM0uAFCGcyyUfmRVne2YpS7pwPUcz3U+bN++/Z1Dh176akNTol5//fUOTz71t7+AJKdzzqkViyvGNJ9wpUA3zjXJg/pYLPZpsj65kEtRqessjftHXhBYREK7opLEAfV1ycN333339gUrq8I1hu+FQBb/XUge83234sifHjX2mhHDGtSw+PTTM899++23J7meezAuUAtNiQhos9ksFrRCSPkl53wNgMggTYEx1VIKyblXf8Zpp786+JLB72/6/Yfvde+9Dx4867/vjy4tKT0757m74TXcprRMLUIL52CbRpBMJpcXFSU+CvxgQTKZWmOaehJ3L4QQuiSsSNdYZyHEkYSSbiXFJbvX1tYSPD4cJ4xvV/6+huFns9n32rVrf/29d93+4a72ffxDn28EZH/oEfieP//JVxYVW0Wlk2k8cTmmQhl5aVLoI7ujgWz1BGYmRrUkkN10AueVvaqqCGbVzUatxInSIOIWPwYQIPD1AlQa2ID5gSurAL5eVgmV1RngJKZ+DzwDRWRd/2duOPypxg4TamS/nL9tRhaBLKFB/kZg5Zu/sAM2s2TeMSUH3tIIfWRjj+/H8HwEDk899VSn1ZXrBnzxxRdDpCB7o3Um3lhKi4sVoFDbs3l/UrXVjlHARLEnwvc9iWEEuOXs+B6ynBTDFrA5Bt0IFJDAm31+e74AjF3XDTjns72c86dLLx38UlM9OUePvr7nsuXf3B6LFx1JCDoGh93PoWwhZEAVe8QYSu+4pmkcvTDxRmyZJiWUos0rw7s/Hpti8hxPaStxS9oPXHw/oTG21HGcaeecc+bTAwYM2K5pvwKyvfuebxvxh0zTjBXqh6AYd2ay2WzLAdn+F841rLgCsgUQk4+obRFpwXXXXdd28ZLlr5t2rNumQNZxsl+PGjF0yHHHbVtacPvtdwz8asHCKQDQHscHjw+lBarsPFiUzWaXxmz7SM/32yHjiuNWW1eDix0cP2w/5VxwfIh8tCllaK1FiOa4XhiMkQmlmpYRBn0IyZXvKZWwYM/2e4yeOnXyq41NiLriihGn19XXP2EYxh4oTigEA+AxFBZnqPHFYzRNU+i6LjDGVTXSYoMxYwwXc2VlZQQjW/Mxrni9BHidEUKZ6/uA6WHYjIZzUNNYxRFHHTF2xNDLGgRkP/54Sclf//rghHQmMxh3RPAzCsdZ0J7i/Nc0hp+rrg/f99WUZ4xWdDv8sPEjRgx7YEvfZwhmH374iX3/9erLv7cT8QvQxSCdyihGer3LgB9eL7lcDsW0nBB003Nz+P89z8OGNsvzPM0wDM00TVrwry7E2qJkAfXLqVRqWYeOHW+cNmnC3xuja/8xfA+3hnOIgGxrGIXv8Rhe+aC6mPtycqDZl1MNgxYwFawQiLCjgWzLMrI4eTEUQt1o1TkgeM0D8jxAx60/9PzEZiCG8gLhqaYgSiUE0gJmGvD1coAFy9dCVdKDwMdYAROIZoFJPbDFtzsOyBJsA8OtStTEmWHcPNr5OPVL5v2sTQRkG3hdoMfrI49MP+eb5Sv6x2Kx4xEPFAIAOA+1onhzVDdCGWarqw5mXVdMK/6HNzPVvJK3Z8rmMgqIqCayPEisq6sTmq5VSCHfkEI8NmrU8Fndu3dvsoUPblu+/d5/fp5Npce4rnuyYRgs1LOGOj5kzfCGi+xRgIEmqrmGKMYW/47gp9DEUvh3oUFIx0hqQjzB+WfpdPrhPn3+75k+ffrUN6SkCGR79enXxzKsP5uGrYCskGHN8POy2UyNbRUf3iKMbPnAubplH1Q4Lvw+QqCVzWZbRFpQALK2bSsgq9Sm+YWN4+YWjhp+xcXbA7LDRowamExlJlNK9yxoeJXTC+fSzWU/opT+IRDeqaZh9ZFSxjGAQtcMxfwpPS1GmCp5xndKocJcyy+s1v8NAaySKRimkoLs0W73e/r373d/9+7dG6Tv3nB8cev+oYcevZhpdAxj2n6qsZYytcALQxI8SOSjnvGawOONx+MhM5zLrb9G8P/ndyMQiK8SnH8JhBxkmub+PM+iFhaJIvArDj3s0LFjrhnVICCLx/vHP95/9ocffnQnEPKTgo5Z6bEVSA6vAYyJLYDHQvOi77kVp53W89aLLhp0/9bmNS52//SnPx08a9acK2KxWC/dNtui1ALPHd8bNbN4zgjU8VHYGcHPx/8KMgo8loLuHF+HMiZ1HJKLIPC/2L1tu/uuHn7FjP33379B11hDrsPoOQ2vQARkG16rH8UzF1XL4oULaicFNDaUadgVGwAu+xvIyNbIZOVx5/1i/0WNLQaujltaWoCTVwsb1ZUT2cZANvw9plrJgAO2gFGGOilfNYJRHZ0aDKisA/jfwiQsW10Dgpmga3HgATq3MjBkBopJVfmMG7s2R1rQmxO0Td9cIyuUdw/SwhQ0ZipPLUS1uUzNor6n7X5QpJFt+CxD26l7H3xw3zUrK651ctnzi4uLbaXhUwuY8IaENyN0lkcgiDclvHHjjQtvSHhjCz0gwy5kbI/B53AvbO7J5XKebZmfEsIe/sUver7ZoUOHb7fXJNOQo8dGmoEDBx6sm/HrPdftZRiGUQDYCCBwCzNsMApvrH4e2CLYUFu7edYYj71w0w+CAFdHbipd/+Yvfv6Lu3r2POmjLl26NDhkQQHZXv36WLb1Z8uMxVTUtXJVQCDLFSNrmUUtIy1QjGwIZEP3hpCJTmcyLeIji0B2ydIVb9i2fTiCpIJLhGL7nNzCq0ZcMeTYY4/dbGt6w7E7v3zAQMOwFZBdL1fJxz6DFB+dddaZo7786qvKpYuWXm3HYv2DIIijFnNDBrQAZDdcLOFnrGdGldUW+kmrxZRws7klxUWJUaNGjZh98MEHVzdkLm3pOS9+/HHssal3/p9tmJP8IOhg2jGGn6m2xT1Pfd8UZDOF1+Pv8XjxOsk7JuDcklVVVWst2/oD98U83/dGJ4oSxxPGCLKUeN0E3AfPcSp6nHDc2GFDhzYYyKKt130P/HlqXW3dAEppDD+/sCBT1yC6kjBNHQ8+8PPwoRt6xU+P7Hbr5ZdfulUgm1+00Pvuu6/ju+/PvogwegljrAPOBeUrS8MGUbx2CmNU0MCrnZH8IrjQ4Fn4rsDz9Xw/ECJYTIUcMmXKbf9r3759oxwQmjqm0es2r0AEZHexWVEtZfHs/1ZPknrpUKF8TL83IEuffa9qYks2e4WMbEjJcoxvVH6sG9hxYUctCvERzKDFmMCwAAqgUcgFADUZgPlLUrC6xoN6h4NkOubgAKPIzmEfWC2U0eryGWMbD2RX18p9Pp63boowVLPXVoEsNgoothA7fzm2kEjw0nWLev+sbQRkm3BtXnnllR1qa5OnSpBnE0pQO9tGae+Ytt6GKgSG4Y0RE48KXecIGrHJBv9uMBXtidpHxzCMFZl0csbPfnbys+ecc86iptp5bet0vvzyy04TJkzsJYTsV1JSfHgm61gocUAgoQArQ1cLzHOjCvzg/8f/ND3cbjU1Xd10XdcJhJDzKKGP9uhx4ktDh178TWN9TdcDWcv4s2nlGdm8PVjeDqrOMotapNmrvP+FX1mWdWAByBYAczabrph6++STmtvspRjZxcvetGPxjVwLQkCUW3TViGEXbw/Innd++UDbjk8mhCggq1hUhiBHNfl8JDx/5GOPPfKf3r17twXQzyOUDI3H49isiZnT65l+9Vr8NgrlLUq/7AUBMC2UkKhFi+PWptPpV+2E9dATjz46q7Fjt6U5hs2Ft9wy4ZREoviSWNzumU5nitHIP1zEhcyxAmaeF859w1ByB2y6yrscKHbYsu2H3Jy83zD4AbF40R2EQI9Cc6Jh5BPqdL3i8G6Hjx0xrOFAFo/592PH/uSbrxcNoIwNisVinTKZHEWmtMDCFhZshYUp/tv3vYpTe54yfvDgC+9ryFfFXXfdVTrn4896Msou1HXtZAKkjW5aqEVfv4DFz8ungIULK7zHhLsb6xsxPc/Fa2wNF8FzGtBH//a3J76M5AQNGYEd95wIyO642rbKd66Ssug/s6onGbHdrnA8ARoVjWFkq2Wy8vgmMrI7BMjSfEY7WlyFUb3hlEZAiK4ECshi+IBg4HEJwjCAawBrawAWr6iG5RUepH0duI6NMTpwN3RMQSN5nSchEaxtMpD9ZMG6yVwrOn9rQFYBb6K44jBFTQRgoI2Nk1rU66SIkW3qBYRAbO3atea11167NyHm5RLEOVxCW0IIplThg0iJN6awsQq36PGm6Xme6kknhGAHnptOp1YYljnl4AP3/9e4ceMcxD47kiVHP9HZs2e3/dOfHvhtwMUQSul+sVjMCoKAoRYPjxuZvgJLhUCb446KEJx7Pjacp2PxxMt777/3xPE33rgSpQVNqWHY7NX3PMs07mW6bql8krCTSTXO5XK5VDxmHP344483K9lr7Nix2vwFiz+1LOuAwnHmGTCZzqTW3nXH1J/vvffezfLiRCC7cPGSly0zdoimadjBo5g4pD5dN7Nk5FUjLt+etACBbMxOTKaM7omvVRZp+ShoP5v5yDS1qx599NH/5tk/ffDgwbtlMu7vgJArbDtWhPMOP1RFxsrQPUVtU6PvMSM4eoFQZc3Nj5vm5Ftuufndzp07p1oSHCHz/+9//9u+774HTzUM+/eUka6UUksIlJ6qOaW+OBFMp9NpHGs098c55Ugh3k0kSodLma2aPn2607fvBccSxibrmtYD21SZpp6bB8FaReD7tzzxxGOPNGbu4WITv3YvHT58r3R1zVimmacKIUo1DVdoQFXDrtK7E+BIXqCRHIjVBMRtjz32aIPZX6zDuHHj7GXLVh6RzmT+opvWnkVFRSZqgfEYwu8GpXsNGevwgZp67EQLgiBISy5fTMTtOy4ed8OS4/faC5tII3eZxgz2DnhuBGR3QFFb81sikJ31Xt1EZpWi9Q8wsm1GloAG+DzU5gkvvc7LrOvRv2nSAvrsrOpJmll0laDUaBHXAoL58UR94WAqGdMNZa0lJSafhWwsD1ywDQs8zsDlOnADoDIFMG9pElauSYJPbAjABB/pkbz7AWZu4cMUKSiCteUzbmy8awEysh/Nq5qM9luCok/CFqQFGGOmQKzaUQWdAWhob5Ra93XvU9sfHH1BtsyVNGzYsGJNs7sEkh/AhTwglUzthXY/QeBb6HfBZSA0STKJRFFFLGavDqT4RiN8wR/+8Ae0fvpBblJjxowpSSazR2uG/tPKitUHMGZ0CAQv9XhgmrqJjWqeBKi1NGNtcXHRYk1jCwyDfXjXXXc1C1zmwRi5+uqrD0in0ydrmk1kEBDdsiCVrYeEHUd2TpSVlf6tsWbym44mYuMrho/sRyUpUiCZSvws9OKUjGnOqFHjXth//7JmaQ7vvPNOe/nyVedmMukSzTCJYRokcMPPoDokh19xxbuHHHLINv1e+/a94ALNNKegtGB9IxIujiWXhPOP+g8sH3nGaacpILsBIKfDhg1rHwRwfC6XO8JxvAO8wN+DUZpATCulxC6wjG1bS8rKyj7lvvPx4MGDFzRFC9vYq+S5555r99prb3UzDO2Imtr6/XnAOwY8iEkpdcUWA6knRC7mIOeVlZR91KFD23m33HLLelT35psf7PHamy+euHZtxZ5oueIGnjQ1E+0OMRwke+yxJ3w4atSVTUqmK8y/a665Zres5/3E1q1OuVy2DdVMZuqYphdgjyNwGZAkGj3/oudH5eXlTfqs0aNHF9Wlne6mZRyWqk8dlEqnOpim2QYT0XKOQ2N2DM0acwEPvjV049t2e7SbL4T/Rf8+feb36NGjUS4ljR2j6PmNq0AEZBtXr53+2Qhk33+3agIzi4cxTSfYXLCtZq+NgKyfrpLJqh59zvxJo70d8aY18z81k5mRGNGSQBazbDGcFbeKcVHPfQ4Uu8zRoUAKMDQKjheALy2QOoPKDMAXizKwfG0apBYDzgn4qHfLA1lkcdG6Cdf+zQeylZOEXnz+toAsMjQIoZFY1hl+tgf1dRXz+p2+b9cIyO70l1t0Aj+CCuSBrNLIFhg73ElBIBu4zoeX/e7iUaeccspGQPZHcNrRKUQV2GkqEAHZnWaoWuZAFZB9f9k4xqzhup3QeIBNT2FE7Zbst1oQyLKZ79dMZlZieEsBWYygFbg9RwloVFd+W8IP1BaUgQwy52obiho2ZHyA1TUcllbkYPnaHNS7GjAzHrK2BCBARogAMMmVkwNeGKZMQ4mobAYju20giyOqSTStl8AFajU9YODJbLr2i/NOO+iIlhnx6F2iCkQVaE4FCkAWNbKFrvoCkJW+/2Hf8/uOOvvsMyIg25wiR6+NKtCMCkRAthnF2xlfOlfKxMIP1lxHKR3JNMuW3ADRcCBbKZNVJzSRkS0AWWRk9ZaQFihNLAtjPVWTloqCRZEBsrEUAp+DLzXQbAqrawD+t6ACVlZQSqCtAAAgAElEQVQ5AGYZcC0BjstBV5kDAjy05toCkE34a8pnjm18spdq9vqqciI3ivtujZHFXWtMUEOBgZAuSECLlyDIZtOf9T9t/2N2xvkVHXNUgR9bBbYHZAcPGTTqtIiR/bENe3Q+O1EFIiC7Ew1WSxzq45/LeFCbGh6LGaM1Iks1tbG9dR/ZTRjZZgHZZ2fVTNFMxci2GJDFnGvs+KUEt+YJJtUoiQGhOgRSA2oArKoCWLQqBavWpqDeoUpSAAxtlojSpCKgRI0sMryKkVXJ5BRMkVHNXjPHNk0jmweyKC3AIEtV5w0jatF+C5skUOcLJFBAOuDErayq/2DdB+1PjZK9WmLGR+8RVaB5FUAgywxzEqVE2TaFfr55jWzgzek3cMCoX/7857Ob9ynRq6MKRBVoagUiINvUyu3g1326VHZ7+4OFfVfX+m0DEgM/n1BEJfZEoO0UUW4DkgQQaAAa/g9FUIYegIjFTOCEEuED0TQUjHrUZIzomq61bVPSud0eRQebDIoRyKGooIHSglYFZFUoLdWAc6ma1hgVwIUfNlBpWDOA6iTAFwvT8M3qepBaAjg1wPVRkiABTeM1lUIA4FGmpBUYhxDGZX4/QBY/C31tVV63bkMgmV9Z5X3y6edLFqOHQcYNu40k8VXOKtr7U/RMFwb+A3yCwbYS8HcqtUwdP/4eHcQYuJLhFJFEBFBk+PrBHa3npgw95OUdPH2jt48q8KOpQO++5RcYRmwzIAuCSy+XmTNkyOBRP4+A7I9mvKMT2fkqEAHZVjpmL36YOefdDxff7hllB3jYWU+YYuzQ6AMHTedh9CZH+yzEcwItCwMgJDSLRiALoAGjOtGZBN9PEZMRwqSQe3XYne+xO/V0BjGG7v9kJwayXEPgDhrDBCQPBOUAmgFZ3wh9YpellJygLkeB6jEATAIlGFnLAQIfNImMNA2BLEHzrkDF1wry/QBZHT3ggYMToBWPBQJYkMzCF6++tfgoThPKUQGtxST1pdIDY6e0pEA4A04JBLpKVQCNh7G7BTsyXJ5wgvwyzgNc6LiBKWp5MVl78zPjT7qzlU776LCiCrS6CvTp03+AbmEgwsaMLAguBHc/HDTwggjItrpRiw5oV6pABGRb6WjPnO2c+8mC6ttTQfwgl1oKxCrrf4KAhQAVoaaTIxWHAFcwpQ8leUYOpK4So5Ct1FCIyR2wdQKUO7Bvp91F2zLgBgN9e0AWiKYiVJX9VvNcC9hzs2qm0I2kBUrkusEIIErPZ84qXpQqcBZC9w0foSMSWm1Rjgk6yCn74AoPiG6A0HRYUyNg4Ypa+GZNDnLcBsHiIEEDz8+CphHQNQDheaCDngeyBY0sstoK+oEuM2AHq8pfaJ5GdhvSAnQH5crgnge4VakB5jJkfZj7wr+WH8Zi7QHDdcM1S6jlLQTwqkUMAfBYyMBqnIZ6W8HVM8PIXpRLmKBIWx7IBM0ELLfo9y/ddnwEZFvpdR8dVuurQAhkrUmU0o4bSgsQyHpOZs6QiwdfHTGyrW/coiPadSoQAdlWOtYz/hOcNefLddM8WtIlQDCCm8pEKAYWH0xowGkAnu4obafGdSBSU5IDZOxwe11ZTKvoRzTb90GnAWjgQOeObWS7Mk2alFOmMhs3Z2SV9TTixQ2ALA/SVW59VY8Lmma/xV74b80U0BPDUcAaAm4KIBBIIubG8+IglDwi3NrHc+A+AvEwW169BHWsoZ85UM5VGhZjOgQU3eoZOBJgXRpgyQoXlqysAx8ZTTAU6AuLEQJCbAbD88Ofof0Ygj/UyOKTqEKCOqTBDpaXvzD26EZH1IY+ssq1AH1kt6iRRZt7HENM+9EDS4F2V/iQCfSv//FG5UE5uhu4Go57AahSwDKhVoAzFwIWKLcFPF4FZHHsMVgB3RzymltVR1zkSANMkZOGs2L0i7cdNq2VTvvosKIKtLoK9OrTb0DMTkwCAh3xasQAAfWd47ki8LJzLr4oArKtbtCiA9qlKhAB2VY63H+fFfxqzlc10zxSejAHHXk5BU7CjB9k3nS1je5ruTzQ0YHhNrtE0ILgLARACGqQTUXHfY2i6jILnTuWwB5lFpg0AIps3RaavTYEsoEIc9BbAshSLd/s1UAgS0FTrC1GxiIGlUoHiv/gQAQHm+ngBQABMwAdqpevk7BgWTVU1SHoj0EgQu0rNlah9CJkePGBtUJ3g/BvCIQR4LI8wEV9qQ7JHQ5kfYZjoIHlmYAyA1dmIM3jNTNfryzLMgSyKJeQYAQMNDW+mMcegK9nFBuPrCu+XuMYNxzKTVBEKzDUCSUUuKgR6ONggS5c0N1vR7804ZCprXTaR4cVVaDVVaBPv4EDrDwji32k2Oyl1PS+J0TgREC21Y1YdEC7WgUiINtKR/zvs5xfzf6qbprLig7mRFeSAUk8BWSVJlaGwAUlBkozKRkwgfZTISBDIMuxGQxJSPzJBeiUY/sQ7LtXG2hfpoFOMcI1nAKbNnt9P0BWGVCFDGi4If6dtECBceQqmUq9wodKnUENLLKOeRcALAbRLMj5ACsqA/h6eQ2sXueACxYwI64240NJRoGJRTI3ZDHxgTKNHwrIChLKQnDcDF9TIQ4uTUNaJuSzr64h9aQEPMNT44hAVoFsBOZE5hcwGKCALDwDlmfkQyYeY4d9kNRTHrVqEQAmGDIndWflmH9OODICsq30uo8Oq/VV4Nzf9Bpg2fFJhmF0JAz9USAMYOGB8N1MBGRb35BFR7SLVSACsq10wP86y/nVnHnV01xWerCAPJClHvjIyOY1sSgvYEJXMoOQXSwAQQSyuG0dsrIIAL8DsjnYd68SaN/GAF2xgd8fkH0ek730fCBC3h0AbWxQy7v5A48LpQdSOQzgOSibKgVisW0f2UgKXDAQTIO16wDmL6mGVZUucC0OVEdw64FU951QjoHs64Yg9ocHsvkGLSHBRKDKQAHUtEzA319bBUlZAq6BEcKBYtsRsCJwxUfAMDEy9KHF31NuApUacsqKwRXUAYmsNaAdGTax6biIyQPZoyMg20qv++iwWl8FUFpg2/FJmqYpaQFa5iGQRY1sBGRb33hFR7TrVSACsq10zP82y/nl7K9q73A0BLJmCEgUOA0UI4vglSKAEbrSTa4fSOzGRw0lbi+jowFuoStAKMBAyymZg/32KoV2u1EwKQeGnVzfEyO7ZSCLoBubukJAi4C8wJYWwCeyyyhoVTZUwIGrrT1QTV2SabC6WsI33yRh5VoXUq4JVLdBUAIed4FoyFqGmttQF1tgYgsDv+MY2Yb4yCqWOZCgBxI0nYCnuZCSCXjmVQSybcA1fMUYM0ny0pGwiQ/HNmyHwzFEfSwDIjQQBJvDEMh6GwBZroQSuswIw1kx5sXxx0Qa2VZ63UeH1foqoDSy8bhq9kKdFi4MUbPPRSACNxcxsq1vyKIj2sUqEAHZVjrgf5sV/HL2V+vu8BhqZI184xWyc+E+OwI+ZOcQzK5/qO4sfI6vWDyVfAWGYuqQANUIgtlQI9tuN9IUIFvp1led0NRmr02BbNiUVGBLUQsbSiQUqA2hqmpUU81oCsCqVgsglAFQBshJ1mYAVlZmYPnKHNQlCbgyBoLooUYYG6nwPxk2dyGYDYFsnr0OK7nDpAUNA7LYxIYSD2xak+BpHLIyDs+8uhqS0AZ8DYGsyINVTQUqoL43JNIRyHpKM4xAVrlUIEutmHi0VQvDHdSNFxgyskLPrRrz8vjuEZBtpdd9dFitrwK9e5dfQAxtoq5pHRnVCIJYXIAG3JfcdeZcdNGgyH6r9Q1bdES7UAUiINtKB1sB2bnrpvms5BD0AtUR7ynda2gPhSwcPhC4FEANAhcEstjso8CM6r7XVcc6ejgZgCKFLOy3V9EPBWQnMT2BEbVGqPkNgawKMEBQrsB5gTlFFhZBWKCsX7HFzUeXAWagaSx4PkDaBfhmTRKSDoP6JIGalADXZyAZxu4K4CrsIQw4+A7Ibjzld2SzV0OALKiEIKmALMqFPcohLWx4/tW1kCGl4DOsA7Ku2OCHzCsyslpoh6ZAvrP+72o+IPmOvX35eaKa2wQCdx1MmROG8+2YF8d3i4BsK73uo8NqfRW4evToC2qr6ycKITpSXSMYiY3XrBBCCs+NgGzrG7LoiHaxCkRAtpUOOALZ/35ZOS3QSw6RUs/bQiEmCRnZ0CYKVLd9gdVUKVHKVzYMSVDaU/VaAyQHMJCRlVnYt1NxXlrQaNeC5jKyWwCyKpdqPRMbWmIpnlTZcWFTF9UYwnPwsQMfPXUlQG1KwroaB6qSLrgCnQt0yLoAKUdAzg9ZSKDIVWLnPlYqBP6hdCFMy1Iihh3oWtAwIItMtIrqAsIoOCAhy3XvhdfWGQ6UrAeyGHSgwGy+yQ89ccOGvrBOqkIoPVFOFSGYDRc8qJ9FcYkGhnCE5qwc8+JtEZBtpZd9dFitsAITJ065YNHiJZOCIOigmYYCsvjQKRG5bGbORZH9ViscteiQdqUKREC2lY72k7OcX348b90dDo2rZq8CcFW+oyS0jQoznTCz9jubfOydUkBNAVl8ngnc56ATDRj3IG74sHsbKvbbN8FB5HTU2iorGWwIC5FeuBW/gY/sBvZbLQJkJWMGSAReAByPkWmoYFUNadjchYZZVDG1PvovqPMT2CVMDPAFhWQaoLLaheq6HPjcUH9D7tUTErIeh5wbgOsI8DkBQrCJSiswKKrjn9Fwa174ApiqV8vbby2tlft8uR0fWaV9BdX9jMQsuJyD0CzIclj1zEsVe3GtDLgm1eIFhRQIy9G1QA0TjhehEOR9cBm4ipnlym4t9OBVThYBA4OECxni1YkErRr97K2H3tFKp310WFEFWl0FpkyZ1v/TTz8ZyzStvRCgpAUIZikFEfj+J0OGXHTdGWecMafVHXh0QFEFdpEKREC2lQ402m/NWbhuWg4s5SNbaFJCRYEKQMgzi9hBG7KNyl01fBTSsXCbHverAwEmRWcDBLIB7NnWCPbsaOWIyBWhN2kjgOxat77qxGZoZBUjuyGQRQ0vcqN4yHguyMQydfyo8cTtdgI+WkgREwKpQ11KQEVlGupSAQQqntYOQSkLAyMwyDXrCchmBXgugSBgQEioacPMq9BbF0EgOjmg2jRsIWtpH9kNgCwme1GatwtDjWshqAI/FxliBLLMQKdgHXW/cm0dfPXeh6muDrfBBV817hWic9cPMc4D/K201K8UkEUdcV5SIiVVllwmmCBcBO8Ya1vDY/DtmGcnHBEB2VZ63UeH1foq8Mc//nG3OXM+29P3MzqAAfF4DHzfB8/LgGVZuQsvvHBVz549063vyKMjiiqwa1QgArKtdJxnfhyc9f5nK6dmWayLAJOghhT5u4Ahc4oG97jNjKCv0BilgSzsJxc8UxUo1JA2AB1ZuiAHpuZBp45FXpsymtakXxanaO3VYB/Z5gBZ+tys6kmaUXTVeiCrPE/1fNiBVH63hbADxTXj1rmCtsi4apBMC6iozipJgedpwPQYMGScUYJAXSC6AIkNU4GEXI5BzqHgZCUIjnpStS+vAGxAJAhsLEM+VDka/HBAFhlhzn3VvBaAiRG1uYoa+PTdOWtOEKwYfATg+TQ3xR0j8A2FryEgFrZi5hHISiIkaqbDZLLQlk3jhEhfgGVSIfx1HIJl17088ZgIyLbS6z46rKgCUQWiCkQVaFwFIiDbuHp9b89+8SPnV6/N+XqaMEsOCBSQRfMsBgHBaFrVf6+ALNKKCGRQM6m6hZT8E7k63FcPQCOUSIGRCpQI7oJpCLn33rv7paUsY2qijY3EJypJGyYtaFEgq1hkmQeyGPLA0KUA1QVBaLFFCXCBIFSHdA6goioN1UkPPMUiWyDRggxlEcIDQRzlUkC1cMvd8wwIuA65lADH5eAGrno/wZDbxDNmykJHRfT+UEAWAxF4eMxKGsENVLtW1jrw6cuvzDvTiJeB0Gg+1IGAQJQuFbMsAZO7VPwsNsmhIgT/jdpohOZoy2YQKog0MBVNBEAZ5767NiiN1Y2dcfNxUbPX93YlRx8UVSCqQFSBqAI7sgIRkN2R1W3Ge3+wQB7+3v8W96tIZtsKaUnKdSKpDgFjSsGa9ywAkt+yloC2TCrKVWUMEOkil0coRVdRwizNQmUtmJamtykrPqi4xDzINiBm+iGs+2GALIJo9FIIGUYEsdichZpctPAXVFc/EcRW1uagqiYLOQ+TvGwAokEQCDAIKmo5BNIPLadYPgFMWsClBtwFSGc9yGQd5V8gFfOJLC8FShHw/XBAVjXuIcjUsYmNgRswdF1YvaYq9/HSZZX1qVxWtbsJQUBKBlzqUkhUMONBe8iko7usWsIofzUQECCIBQ2dhhUBTQMhECx70iWG5tAuXXZ7dmK//V9uxtSMXhpVYIdWQEpJ/vWvfxm2bfOePXuGNi3RI6pAVIGoAlupQARkd7Gp8Y8Fsqh6TXq0YZvX6IxYoUL1ewWyqJE1sdkrfOA2OLKouN2PDWAYQ6uDoAwzHCCZAVi7LgeVtRnwMJ6VmkpaoZTB6EqATReIgJXuFSFxPs8WpQPo2yUZOE4A6Yyv3AwCjKRFFhdXAqgjDbvitqqRTQTLy2eOPfrpxk6TUCNbNVnoRX22ppHFZi8dNcDCB8p08CWBXI5Ur1i+evaNffc6lygT3egRVWDXqcDMmTP3+e9/55w4b96CjvHiIq9/375fduq053vdu3f3d50qRGcaVSCqQGMqEAHZxlTrR/DcSikTc2bV3kQMa5QEqiF9i9LaBjKyzXEtKGhkNwCyIiQSGWplRdjsxXQgmgE5DyDjAFRUOlBT70DWkUANG0DTwOcY9iBB1xkEngOUaEAR/CLAFWi9xcOGMYK/YUqe4LgUsrkAcp6EQCBwD0F0aMf1wwBZFTErsCEtAKJTYJhUFpBcbfW6Twb9su1JP4LpFp1CVIEGVeDzzz+PP//8P0+YN39+X103TnNdbzfDMEQQBAsNXX9kwIDz/37mmWfWNOjNoidFFYgqsEtVIAKyu9RwA1RJWTTrzZW3mkXFIyTVicAta7STaZhGtllA9vn3qicyq/gqyagp1QZ/oBrUGGOqcQntsgCZSUGgNsmhqjoH1XVuPqnLVJoJTPcKBAJZAUzL64TzzU2ykHKGEgNsE0NPXS5A0ywQwoBUxoNMJgBXoMoUyU5kg0PNcWhbFTbQFcITdJmCRLCyuYwsuhaQLbsWAGgBUcxygGw02qgFUuQydZ+Xn97uqF1sakanu4tWQErJbrpp3ElLl30zIQiCIxOJhM2YRjzPQ7cRQQhZzQP/yd8MLJ/225//vHoXLVN02lEFogpspQIRkN3FpsYrH1QX+0KbCBq5AoETFRjn+v0A2X+8V38bsRIjOQGT6AFw7gEqfgk6KxAdgBrg+ADV9QBrqtNQl3RBMmRa0bEBhb9hnC1qQcP/UAtcsB4ruDcU7MfCv2MwgpIYEHR1YOB4AhzHhWzOBcdHKYMFRDfAR79WiV6tPPSEkAy0IAUlsqp85o1HNVpasLpW7vPJgnWTA5bYKpBF4YChGtcAPBaGGyCw99LJuf16tjk8khbsYhfnLnq6Cxas6DBuws0TDd3oJyXGEIYPTQv9nymlMudk5x111E+HXzty2Nu7aJmi044qEFUgArLRHMAKIJB1hDEFDHkZMoHQOB/ZZjGyz71TP0Gz4iMDJiwFZKUf2oMp2zALAqBQkwRYU5mDuoyfjwDAIITC2IVygVA5ij8RvIZAUIHW/N/wZ8FXF/WzQr1BqI2VgQTHC8BxPHA9Dp7PAJgBHsbgSmSA/HzghAaGdKDIryyfObbbDgSyIRB3NbE+zMBJ1s9f/O82XW+5ZT1yjyZvVIEfbQUuueSKQzNO9u8A5NBEIqHCBrzAVzs1uUwWTNPE6331T4/ufuOIoZc9+qMtRHRiUQWiCjSpAhEj26Sy7bwvmvFGTQmJm1OIIS7FGwVRSQDfDyP7/Nv1t+rxolGcChsMBLIYzWqGPrEBQCoLUFGdg8rqNLhCA2bElN9rwR5XsbBE5iNnC0D2uymMDWPKiiwPZPF1uKmPmtgwshY7+hkEXILnBYCOXG6Kgy8ZeBR1s8q2LBxcysAkOYh5FeUzx3bdMUAWTdOUWDcEssiQoyGBm04uWPhO2aERkN34OrviiquO/2bVyocs09qNoP2cxsD3wqS7fF8cwYd6VbjaWf/P71ZDGzD3Sh3NpabrxHVyUtM033OdCTdd//snunfvnt15r/Kd68gvvXRYt5ra6hdKSkr2TWWySmoTj8fBcRyIxWKQzWbB0Niabkd0Gzdi2NCHdq6zi442qkBUgR1dgQjI7ugKt7L3f/KV6mKzTWwKMdhlSMjSvHnA96GRfeGdunFarPhqn8qY1HyldxUypiqkQGxVFqrrc+AFDDim2GKjVsHgPy8lCP0KCjhFIc58hQuyA2W1uv6BqV7oSYtBAiHgQScDjJgMgxJySRdcbCxTQJeqUAahNLQUdJKBIllRPvPGZgHZrboWqGYvdP0lAAEyxwwTzhDI1i1Y9PbuEZDd5Nq59trrTli9du1zjGntsEFOLcRwPBVi3cTgIf9vtYDBx/pJsTGQxdeh10XgexCLxb1sum7M1SOnPtS9e4cIyH5P313z5i3dZ8LEW++2LevXKDTC1CwEsygtcF0XDeikqetLuxxy0KgxV1/9z+/psKKPiSoQVWAnqUAEZHeSgWqpw3zyg+piXZZOAYNehhCAiUb5yDZHWkCeezt5M7Fi1/iUxonOCX4y5xrkHIDqag+qalPgBhSoEVMg1gmwYasgHcgD2HwhNjemygNZIr+L6s1rZBHDIKBFAFuI88W3Qf7V9QJIOh4knQDDCAAjFhD8IJA1IA0Jubb8hR0EZNF5oZDQFaCVGCWA1rJeum7ekrd2PyxiZDee9WPG3HDi8lWrnrft2O64KPkunhm10HkmfZOJUSBoVRhaCHnXv6lSWgsBhmGA57vgeZ4vPHfM6NHXPBgxsi31jbP991m0aJH55JNP9/564dd3aJrR1jAMgnKCZDKJEbC4DHVSdfX/OvqYHqNHjx6+ZPvvGD0jqkBUgV2pAhGQ3ZVGGwAQyGqkbDLV4HK852vy+wOyf3tj7XXUajOKmEYbYgH1OEA6BVBV7UNNbRI8TBljFnBML1P5ZGG613oIkgcjeNwb8mqhIhaZzQJayTd64U69EIrdweAABKhI0KFmVnnQoksAAUjlPKjPCHA8CUSoTWvVAGdC0xnZZbVy3y/nrZvM9UTvrfnIYlQFniWqC9A5Ah9ox+Uk674aeMruh0XNXhtfnNddd9NJ36xa9YKhG2U4fqilREY2ZF2/W8gUwOuGr94SkMW/O54Htm0DrnMcxwk0KkcPu+22B7t3iBjZ7/Orcdasj/f+wx+mjrRjReWMsd1zuRyCWRkEQZDJpt/ao+0et91//72z0cXg+zyu6LOiCkQVaP0ViIBs6x+jFj1CBLKWLJkMGrscB59hMAFpcCBCkxlZPInHX/nmapLY7XLNTuzOGdjJXKBXVfkE3QlyWR+IpgPFxiuBjCjacqFiFfNXw3tXGMUaAr7CT/z/Gzd5FcoV2mmFrgWhpEABHhkyrgWwozS0PoG0wyCXk+C7KCvAWFwAHdIQo9+Wz7ix8c1ejQGyeJxcZXRRJS3wUtVz+/VsH7kWbDLzEch+u3btPyihbUI2NgzFUHOgICHIL2ZUfPOGv99o6fPdG1NdCwExzjkhgkAEo0eNGBYxsi36rbP9N8M0r3Hjxu23eOnS8xjVjpOSlFFCPC6CZYZuTf/LXx6cvf13iZ4RVSCqwK5YgQjI7mKj/uQri4rjJR0nEc0eqgIDUKeqGp0w3ysUn2IIKsIDhQkwChZ7rDDwNkhXufVVPS448yeLm1K2P7+89Apqlg2SZqJNNgg6VtVkzNo6TjiE+WLhp9LQagvZUkSuAkW8Bc41PKbvQGwexORfrSQEMgSwhS175GKR2VWvwa17BLIFgCM5UMFBYxZ4woJcFsDJ+OBzAb7yk62DIlpR/nQT7LcaAmSRQca6Fphihlwwl5DN1M7te2q7CMhuMsmuRSC76tt/6LrepvCnAoAVQggp5UoJIh1O4zzQzfd+bSgp2PBtVbCvEBIXNGg+7OSyd06dOnnGfvvt5zRljkevaV4F3nnnnUSW8w66YMUAEAjhrj3zzDPXNO9do1dHFYgq8GOuQARkf8yju4VzQyBbVNxhItPZUGRBgGAgwtaTvVArCjT0c/S9ZBX10j369OzUJCD7j0+8SyrreH9XWHuvWlvXKedJzRc69u6rI0XNqgKy64GoVDC0AGQLyoEwsCCcukrPWpAW5GFwweVAAXN0RsCgA5QWFF5VADcYnEBcFbQQiDiIwADuS2XNlfGyIPwaKNGry2dcd2yjXQsaAmSx2YtIBgamqyEjyDkYhMlksmpu71+06xZJCzaewGPG3HDymsqqfwBAaYFRL0hHeBC4UsobBg7oP/u5556TAwcOBNvWcX6oaRDkX6AX3tIH8HU1f1Bgg8+AD96fLXfbrWTFgAED1kZb2LvYF2N0ulEFogrstBWIgOxOO3RNO/BH/rGgqKS043jT1K6klDLcRv++gOzrX8hBC5bW/i7tGV2rk17CF4wECJJRk7q+CUepXUOQSvl6z9jC2YYgtsDKIkLddAqHOtkCmP2um33jbvXw/QIQNKucEaRIAEgDKAdwXQ/SbgYCvwosUlk+Y/RJOwjIhgAbfK4At8EwapcFtTU1c/ueuduRTRvhH++rtgRkdV3HJi2M+c05Trb3zBlP/ysCoT/eORCdWVSBqAJRBTatQARkd7E58cisqiKdl46xdbiGQGAaGlOgb2vSgpZkZF/6NDXss/+tuD7rWnu40iSC2hBoWmixlQeo+batEIzSIO8Z+51OVkkEFGUbAtMw7GALj7yutrB1r4BxXke5fjuaCIk4mkuQAbelTgzBJJGSuyRcP7MAACAASURBVCzrZwMerKNxVjfo4eE7hpHFuqMyFiUeTEoEY+DmIOf7/Mulp8ePvyVqbNloYLcEZFEjm8lkoLg4kauvT/ae8fQTEZDdxb7TotONKhBVYNeuQARkW+n4v/z+qgM/nrv8HFfGdguYKQLCMamRomc/BQoasodq9ALwCSeghYawuk8JIZRwQtDJSW2qEyaIrQsw9ATLBVpJu3YdDmpbxrqaGsSlu+1mr5YEsm9/UXXKwkWVPZxAZwHEIBAUJKPYbgahVBTPiALGq4fDsmEkrWrqklTkdbR5ly3s+ZH0u550fJVy4KLhawM0jM3/Dlu9JH4O56gmUL/n0pWBpJL7hgRBhU5AalIQl/oAPKv94uRDXz39QDK/sdOkIdICdC3wAw66roHG0FEBG84glUyLL/43f1k1GGaN4yRdIDIgPJBMUCl8TLElQspAcuLJAByBp0q4iV4MKPgEPHdJPTwd5QRhJ2zGUy4kLCJ6du/6Uvmpbd9t7Pm0hudvCciqsSVoo+bkPNc779m///XVHc3ITpw48fgvvph7CNE0jXseoboOGiPScX2ImfqK8ssum3Nmjx41hZqVl5e38X3ZRUrR3ffdLna8aG9CZJnv+QnNtrPZZKa+qLhohaazZbmc8+kZp/3sy4suuqiaEOLuqLpLKdlbb71Vev/9D/+EavSobDbTtbi4ZC/L1Muqq2uK4/G4L4SoI4Ss0TVteX0mNfuaq6769KSTTlpHMP5ug8fzz79T+tRTDx0NQPYmjFCmMWrpOtQlU0RnLN39xONnjx6+bdusN9+cs9v0J+47QfjQnnNODNsg+HXn+A7Yhp078MAu/73++qsXbqsec+bM2e2OO+4+Tde1Mkp18F0fdJ2Br9wtSLDXXnt9PHXqxP8V3mPRImk+++zkTvPnLzw0m8391PeDAyzb6hjwIF6UKMIFUr1pGjXpVGqVbcfnSwkfPv30Y/N25LjkF9zaRRdd1MbzxOGUwqHZbPZQ07Q6SMmLGWNFhFA9k8lk4/F4Zc4LvtU1bZEA+PI3Z/92bvfu51YfcMCOmzc7aj5G7xtVoDkViIBsc6q3A1875YlPz611ErdnRVFnj+pEUIIt7QQt4DXJgHJTbchz4oBgPgjUe2Jgaz5yFqGgIAQo0RAHAciM6szWzFJo374Nb1sCvi59K44m/JhvtJVmr5YEsjuwXK3urRsKZIUWSil4kAMCBuR8sz7rk6/e+3BVj5pMAKCFhv8a2oih7ZjAoAgSyiFQekH9sDlPGvkmuFBTzJmPtl4Sb+KMaCShmUJma2RCq7nuyZtOntrqCtaAA9oakMVghLr6uqxlGr3/+vijOxzIlpcPuNO0YkM8z4sZtkVc15UocRBCcMdxXrnwoguvP/v00+cvWFBVNOWuGztVrKmcVJRI9CSUGEWJIt33fYppVcXFxRD4XPnY1tXVScYYSnlzgfC/Nhh77IxzznqxU9u2q3v27JmPLWlAkbbzlI8//lh3HKftffc9eFg6mb7UTiROsROxmOd5GiGEoW4egwjyPr2qL9L3fW4Yhp9Mpj43LfNPv7/h9/8ptayKQkPci6+91uWJ6U/eKkH+ytIN7NxUq2nD0FD2sfzII468euTI4c9tG4R+2m3K7VOmGbZ9Egr3dV0nKBkxTZO4nlN5wH77Xz1+/M1Pbes9Bgy4qJums8copYfjGh7dKHBuYMCCaZrp4pKSm++cNunuZcuWWa+++u/2r7/+r7NisfgVbuB31jRNi8fj6mLDRLGCvzC+RywWE+l0mkspc57n3tSp894vXTZoUFWXLl1SzR+R8B2w7mvXro3de++9uy9atPxYQmEUoeQwXdN1PDb8+6a6cNUkSihalAlKqZdM1S2IxeKPX3DhRa//P3vfAWBFdbZ9ypTbtgFLUVAEiYpSNBgTlSixY4wxETSKUhQVpCsgiCCodKQoYsECigJq1GgsiYliAQUCUhQVKQrSFthy65Rzzv+/58wsCy5so39z8/lddnfuzJl35s4885znfZ4mDc/YdNppdRKBzv5gHaFgPUdzBQIge5QenVeXuNcu/7pgfJEb+ZVDTORI7ykFZjRGEOWm0o8CYCEMMeJIYKsxuBYT5EIDkfROxUjHkCCVQNy1kBHKQg0bxHiDOoiHiNAoRHwCMxkA2YN6JlQWyCo2Go6Ug3QjjHYnaHpXCVr1n8WbfpNBUcSpIdPGNM4Qgd48oSGMQI6hSYUFF2nVJid0pPTDXPrpAiML/rSYKICLM47A6Z08PxK/b+7wVhMP6s4eppWVB2QBpKgY00QqmUp1ePO1eYccyPbseffUnbuKbs/NzY2kbUsFKtg2/MdMQ/9n2/PbjtqweQP7/vsfrtI1/cZYLNbcdV0NxgovACQAFmWjGgYWPo3q1KkjAwBAKpFOp2GuophS7YNMOjmna9dbl7Zv3x4a0PaJL6ta4desWVP7oYfG/QFjcR1zWNus3Oz6qVRKM8KhUr9lAG7gqwtAG8YCY4SxenIcnk6n4wKJRTqlr+bl1154V9eu63ftijd9/IknRseyYn/EggPo8oEwYszZ1LpV6/733NPv9QON9vPFi1tPmThlaiw75/d7LPPU7SmTyew87dRm/UaMGDLnQOsYNWpUq2/WrJ2dnZ3dsqQkjrKysuRxgX3AGKdycnOGt7voghdefvm1K3VTvz1kmm0QoRHXdQnsI+wvgFh4KIGf4XgBEPaBLZxnwIS6jvtVOBp+85Qmp75/R9ebf2jUqBF8Cav9WrduXc5rr7112heLF18QCYeuNk3zXNu2syAYAmrhjwFCImCMkHYG5xxYE8L5A5Ik2Ef4O3wPLNtZpWP8j9tvv+MdStk3B/NBqNo7GXwwqMAhrEAAZA9hcWuy6nmfZq5ZvGrbBEuvfZpFdeRQB4I0ERUcUU4kYCVCQxxuNgBfKNwkOdJg6l0Q5BIKPyHOCDI1jgwJZNNIoyZqdGIOOrGOECa1MXbVVH0AZGtytH752coAWWDNocEL4lHtTDGKZGUhi4X4rjRa8/5nO89M8BCygHnFAmnCklZh4HIALg8uHHuMEKVKLYw59OMrICswNLEx+XeBDcQyLsoxTRThcaGl1g+e9/CvjxtGVnkEY0jmSmXSmQ6HQ1rw6KOTp3yz5vvuwMgiQiWoACDBGGPJRHyBYYQ+yViZi7Kyss6zLCsMrCIARHhFo1EJPABgAUCxHFf+LhlPyJ9DISA0EYoXF6NYLMqE4JsLi4rn39O/90MXXnhhtRnAf//73yc9++ysrhjhu7KysurYtqNZMpY3gjClcjy+dtxn/mA88ALg5IM7WAZArmmaJalU+pOTGzeZnJ+Xs3Xl16vHCCH+CA2kAAJd25KpXLZtbzrn7NYD+vXrXQGQXd56yuQp07Ji0bZQK4e5Cuy7MmB6R7OmTQY8OPz+AzKyy1avbjV54tRZnPNWphmWY/ddLQCAm4bxDBNO2s7YnQzTbASsMexbbm6uBK0AWKEesH14uABgCP+G46ss8oT8XTweF5qmpZKpxBdtf/ebca1atfqoumBx4cLVtcZNfKhDLBrtqhnGmbZlRX0AWzbYw3+ggH3yATb8nRANJdMpBL0OMPZEIiHfNYLdgoKdC2LR8FOdO3d6o7rjO7hXxWBtQQUOTQUCIHto6lrjtb7+ubj6i2+3TUyK2OkO0SXrigmTzBzwMpTDTUaTzU7AvKnQAAVyfWAK088AZHUKjF4KYW4hXSOoScPaqEFtF2kog7C3HgCy6qVIHwWPEWJcMRXA7LpWyQ7slFxQXfutGhflGFqBBLJrdo5jWux6hDUis2flYaKevZiqM+CbsKkjZieQrpsobmuo2MJb3vm04IQEjyBmwPIAZG3ZEIZB5AsPHkiXQNX3S0VCMfHqpYCszLsSBKQFiLgcafYulEsKBs8fefb4Y6iUpUP1GNl/IIRyyk6zAsjKZFIpy7IPC5CdOnX6lCVLl3bXQ2aEM+EljEmWlbuuu5VzTgzDqGvbNgXgA8ADwBAAWBg3/AzfKQBq6hzwQztgOtyRgCkaDkswRYhcvlhw9+FOnW56un379iVVPXaTJk361ZdfLrs7FA510gjNsxwHG5qOjJCJ0pYlt+ezr6FQSIJaeSXwmiOhvjBm+NmTUPjAzrIsawHB+C2MybWarl0CQncAYo6VgXUKxtxNrVu1GlAxI7u89ZRHH50WjUbbwlhsV7GhgnFBCNlx4okN+j8yasQB3UNWf7e+1cOjRs0yDKOVYYQk4KaUCk8mkEnEEz/oBm0ajUYjUFsfnMNycFzgZwCusH34D46XXwf4G/wMdYAawb8JIVYyXvTf83933rjLL7980VlnnaUKV8nXli1bIi+/+ve/Lvly8f26bjSjlMovcFlGGsZe9oECzif4GcYsmXIv9CUWiYI8RQJt78EOhQ1TpFKp9dlZsf7du3d7v02bNntpmys5zGCxoAJHfQUCIHuUHqJ5n2XaL/x658SMnnWGi0APC6AFAI1nTSVjVIFxc5VPqgdgIeJUJkX5QAaktcBaMRfpmElA1LhhLdSgFkE6gT4iD/543qxeLIICQXJqGi7gEFVAEHZSO5i99YKO7aoXiHCUlvqQDAuA7Nff7hzHSOx6TgzowpJT/n5bmoppIMgmFFGYambKocHGAqWRYb/2wS4jLrKQq9uIY44MBilskG7mfU7d8yRDL8GQ7F4jEujCv2RiG2hlpUcw2IuBAjeJYta2wW8eo0B2yJAHLtqyfQf4yOb4B62UJUuUpIriiQ7vvfnaIZcWTJ46fcqy5V91xxhHfN9jUzckoycE4wAmLDtDAPwooMrgiRA0sPAowgnGApizWCyGQS8LwM+2bQzMbCKVkoCqFFwKJkGTTvD2WDQ24PHHpx6Qldz3ZF68eHH92XNeGRQvTnRGhOQZmoaTaQuFdENdPwQrnUb3Hg5cy7LADU9oVAFteEJyXZeGQiHQvkog5U1ng3DTymQyP2uaHtI02gAatUDfCkAwlUoJqpFNLVq16j+4Ao3swiVLzp4+dfpUqhttyzqNSCdo5hY0bdyk36hRww4IZMdOmtRq2eLls7Kzs1vBFQvG6LquiEQiwsnIvjmGCciZ4cFHAVl43IMwDQ0D6AYZLLScEhDnwH4Q0KaqBw/FeELtAFyGImHkWDZC3LGsTPqte+/tP7RNmzbrKnsxgc088sj4Niu//vqxUCTcBkCsz9pLEO3Y/sOPl98iGGhhTdPkAGINXYcLuwYMuAT84PMND0z6HvmBBMBYfm5FLBSa+uST01861I2Qld3/YLmgAgezAgGQPZjVPIjrAiD7+Tc7J2a0nDNcrEvJAOUKuCi7LCK70jloY2UTkIaIZFcVOyuBLLx7QFYwhHTMkYkyqPEJeai+BLIAnhRTqBheFQMLSV9w9ZRyA8nqIgSpU8KKb2fxHRfc2L5ZpS/YB7Ekx9SqJJBdUzCOkywJZKWeVWqcldYZHiDg2DiQNoYpMh2BKObIJg5KizB69f1dqETkIMfIIIRdZLiaZNtVEhssp4CsBjgWc6mJVslmRAJeDRLR5PFHCNQjoIQ2RBpFnYLB7wxveUwysuUBWZ9BA2kBwfiwNHuVBbK6GZJT7wBq8vNrS1YMAFSd/Npo586dPkO2zUpnFumUrCspiW/TdSPFMSYh08jlLmuiG3pLjEnLdDptZOXkSODr7xc40wFwipghblnpT//Q7vLbb7mlY6UCSRYuXFjr+RfndE+l0r2Yy08EiQPMrPhAVGlfFVBGCNnJRHJdJBpZlM6k12FEd8OzkuvyqBk2GzDXORMhfE4kEqmTTCYJsJKwHkIxMLiCYAoNRwD6oCkJQKAMm3CZs6llixYDBlWgkQUg+8TUx6YRPXThvkCWc76zycmN+1YEZDt16tQKE3NWKBRqlQHtv6dFTqfTAiQ8MC5CkbRrq5WbC0AbjsM6gcQKx7bXE0J3YgG9U25Ep1pd13VPJTr9dTgcPpExTuFhQzNCSouatuT3S8cIhUNmQU5OXq+xY0e9sa+jw/4uWiNGjGi5YdOWCRiRdi5nupIJEFlTefxdBx4wAIRuEIh/6DpsjWPbOwihJbGsGHZsOwthcjrGqCXn/BxCyEnhcBjblsecm+rBKqTeGRHsy4sv+n3/22+/ffExdSENBhtUoBIVCIBsJYp0JBaZ+1nmqoXf7JqU0bLPcLFZCmIAyErG1fOPgilkH4iq6FYlMfA1kgrIAi2HkIEZCokManJiLqpbGyMd5ApeZj0wub8AsiC3hdhUgLEAcNMl21y74MIbLwmAbEXnBADZNd9sH+tqWR04BiALDDocmz2sLJTcJVg18LkCdG3IoS5K8hB69f1CBIysY9jygUR3qToHJLOLkCOBLGii1UhcCglnal3wn8496YJkZAHIImSIFIpa2we/M/Ks4wbIet31AKbSmkY7vPjCzEPuIztlyvSp/1uxvDtGJAzAUDVuuaXgMxSWOkpPsxhfHw5Hb3toxMNrCwuTqbp1TTudTjMNmNFkEhrSw2PGjMlOpK2rTd0YKjCtA8+TftCDnM43NMRsR3DupjRdf/7qq67o17FjR/XFP8CrZ+/+lxcWFo7Lyc1pmUqm5Tp9WQPMskiNbjrJTNPYYWXSLxhG6NWePfttyW1aP2UmEnIauiQcprUcx5w1a1Z01ao1rQRCA03T/E1WVlYIAKFidYHFpEoKIESpHhgY6OoAWV/mIJ/JMQamtFJA9s4772y1o6Bodl5eXksmsHwAgDHJc8SRUgCk6SCT4jyVSO7igj3VsePf5p199pk7OefpwsKwU7u2xcPhMN2xwzKWL/848t57HzZMZVL31M2vdzUhJOyAcx80XDm2Ys5B325LBvv5SRPGDmnQoEFBRcdFCKFdf/3fphvhcNdIJKKDxjUajsgHIhhzLBZD6UzKdRzni4aNThh0Z58+P0SFSDZo0ACkC/K4f/zxx7Rhw4aRgoJk1uTJ404JRSM9CKV/FkJEJCjGipiwHUsCb8uyEoZBn7jqssse6NixY5UkEBXtT/D3oAJHugIBkD3SR2A/298DZGMKyAKRB9pYT7cG4ESyfBJoAjkA3ezwkqaiEjTJmwyAUCy1ZgrIopQHZCkyKJO/l7b8Upqgpq4lI+uxeTB1ChduxAVyU8XbuF0YANlKnDNbC0Xj5d9sH8toVgdWysju+aBkvuUxhH8IZDBgZDByKUcJYZQCWRsYWelGoZcDZD1GFoAssPMgMSkFsmpbcJ5I9h4JpKMEilnbB//jOAKyfjMPAFnXdQ5LIAIA2WUrpbQg7NguisWyoVtcWT25ttRQOo4DU8CLDTM08OVZzy6saEp36ZYtkbH9772MasYDsWi0dSaToaCrBZAMU8mRkAnMKc9kMstatWze5b777vv6QKfhux991PCZGTOGRcKxW4UQYR9oyu+y1GECk5pJG5T+N5EomdatW+cvrrrqqviBnBHAe/beYcMabt+09dZ4Scm9derUybaZYj5B4eIzigC+geUFgIsJAmnBgEEVNHv5jCw1wvsysvCAUNCkSeO+o0YcWFpw3XU3tKpdp/Zs27ZbmuGonG73da7MdiSIRUjwRDyxglJt9F/+0vX9jh3bJQ5UR9iFsWPHnrx06Yqhhmn+jWhGDM65rJxs2VgVDYeQlU6DtvmHSNj48zPPPHPA4wLb6t9/cIuCnQUfmeFwbTi2sewslEml5XkD2l3LshxNp5M0xCY3adJk58iRI31D7XKHCs8R77338Qkvzp3ViTPeIxaLNUomUpIVBw7DY3tFJpP5MRoJP/DMk0+8XNH5WIlLXLBIUIGjpgIBkD1qDsXeAwEg+9ma7ZMsPesMB+uePhKAiiJiJO4EOyYO9krgYOA3fEl1K2Jgii/5Oyr/hxhHJnbAqRQ1aZgj6tUiSKMMA3NRFsgqILwHyPqNBwC2WDq+zXCKL7wuYGQrPGsAyK74ZttYRmMdGDEJyDTUg4V6AXsuH0AQQ4RBEx9BRKMogwSKC0289sFOnCJZyNYs+VAB/sDwsCG1tZgrRhZkBJ4kRB5vz50JHnqAYfflC6CTlVpSkUARa/PgNx86Npu9ypMWUHD0cBzkOFaGEO3moYP7/atWrVoHvPGrI9AAIbS19L1BgwYwJ16pZpjJUx+ftnzFitsByMr5CmA2LUuCTgAOMNXOmf1pvToNu06ZMnZ9hSdLmQW6du1+fiZjPaWHQmfKbzRYdEHzk20jYHpdy/753PN+M6Rvrx4v7m+94BU7YdKUTlSn03TdjMGxB+2k0vDKhi1hW1Y6FA6/ZWpi2IwZM6o0Rtjurbd2GUgoHSoIzQF2mbm8tJnN12xKwSnim1u1bDng3v59XjtQHZYsWXL21KmPP0aN0AX7SAsAyO5s0qRxn4qA7IABA1rt3FUy23GclkZIuQ/4MopYJAT7LzBGBaZhjn7qqcenVuW4wLIdb7z58VhWTg9o5oNmNNA0pxJJZf+WiDu2le47f/7cZzHG+2U8R4wYYXyzZu2CcDT2W3kd8Fw3oFIwXoF4UteNCQbho59++ulKnY9l96PrHT06c8ZGuQ5rBBpsOH+AOdd0yZiDNvv1O7rdOfiyy9pW+ZhXtV7B8kEFDlcFAiB7uCpdxe1IIPvN9omWEW0OQBY8QiUrK2eWlLwAOtWx9JMF7SRcFdXfgI2V3awSKlElDXA5Mogjp5cbN8zi9WppTCdMV8sA6PE73j1AJBldLl0RZBMIF0hYye0GSV947fmNKqXRq+IuH1eLA5D9as22cS6NXi+wQSQr6nv1lgGy0h9WOlEQRKiGUhyhEk4yr3+4LWSRHA/ICkS5YmT3BrIgN/A634kjAa4M75UAV8X4yvhf1QktTFGCIvbm+/5+HAFZmCIH5olSzIpLil/RdboWfgcvYLgEk54e5b4IIhiagXRKWetzWn/Wv3/vjytzEpYFspRopb6ewMaapinS6eTWuvXrDbq7e/fXmjVrVqV0rpUrV+aNGTOhN6Ja/2g0mpPJZGQTmN9lz12n5JTGjacNHz70gf2NdcWKFQ3HTpz4CGP8pnA4CkEHMnjB04zClSKTSqXeOa/NuSMHDOhVIYNY3nYGDRqU9f0P6/uGzHBvzTTydU15ngIY8/WecM5xwWoMZDnjO09pcnKFQBbstyaOnTg7Gom2hFNAwmhPOqVTDEDbTiTi/7rs0osH3HXXXWsrc6zLLjNixJhT121c97FpmicywSVTHjZDqjEPCeTY7qLhw+/702mnnbZzf+u+d/D91xTt3j07lbFyAWTD+PzmPphY0U3jhV3bNt/3xhtv7Krq+GD5Dz/8sPaLL88fTqnWpbi4OAvArBwfxfI8DYVD3116yaUDbr7h+ners/7gM0EFjsYKBED2aDwqCKG5izJXLVy1HVwLmkOzFxjhy0wEj3kF0AKMHABZGesKKkgMDV6eZYyUHWgS7CpG1kUGgv9S4uQTc5x6tbWMRtxspaTaP5CVnfDAGkC+q5XaoVmJC65tFwDZik4b0Mh+u2b7OJdEOzCqg5kAgk5q9QCi6i0fMwQEHaigC040lGCEF7t43VsfbmnmGnnIosDIIkSYIdlXXyPruxQoIAtJXqClVdZs6sGGIiS9ZhWQxcIBICsi9uYhxxOQBUYWbtCQFQD2V9BsBAwZMJgwrQxs4d7Hyn9gUzKMkKmjnTsLLDNkjnnppRdGVnRc4e/Tpk1/bOlXX90GjCxMqQMYAYUyGPAXFxc7GPOpA/r0GdemTZv9ApoDbWfIkCGnr9+0ZQxG6JqQGaYwhV23bl20e/ducC5xzZD5Ssfr/9y9ffv25YLk1157rc1rb749V9f1pn7wAgBZ0ErCyRKPx1fXycvrNmPGtP9VZn/3t8zo0aNrr/1h4/C0bfXUNUOTJv2M+QEE8A5+cZUCsouWLj1n+pTHpu3LyMK1h7msckB22epWT8x4QjKylsPkg4z8PGMok0qIrKysn3SN3vnkk49/UN39vvW2O57NpNNdc7Jz4SGo1C0ApB+pVCqZTCQvfPPNV0tjcPfdTt/+A2fs3rWrm26GDGlr6AH/kpISEYlGVhXu2t2jdeszv6hITnCg8b/99tsnvv/vj8FP9+JEKglpbShkKBs4xpjtOuz+O7vf+ni7du1AtxS8ggoc8xUIgOxRegiBkV30zdZJtgb2W2DuDexrGR2sZGVhztizyMEKyECHu+rbUn8DjaxkZMF+C9lIQ2lxyom1kvl5NKUTXlcjqpNeIq1SQ33hNSZJ7ld+HtruHTu903GLz7/5okZVZjOO0jIfsmFtLBKnrPq2YJzA0es5oR6Q9TcHxwaOyx6GXd5wMUVJmyZLXLTsrf9sbsvNHORIezUsI4kBtEogK5lWwMPKyUK5VEAXtXqIkQ89vs+w5y1LuMOBkQ25W+57Y9TZx2QgQnnSAiDclDZTds/7DUcSvPh+n+UDWdUshxmHRi3Hdqyxc+e+NLwyJ4QPZGXzj+0qE33ueqwp3XZSo8a9Hx75wAGn0g+0nfnzBV3xzSMDf/px41CCaRYwdlInG4kA8GFFxUVvX33VdXd069bxF41FoGO96aZb2zuCz83JyYn4aWKm56uKEEoZujHxqivaPVLTph/Y1qhRoy/98efNT6SS6VOUK4IKDvDYRugV3XxWyxb3DOrX+9UD7fPBALLfffddqxEPPjI7Eom0REQlcyl7Nh2eNhjn7KOrrrz06prs91863HRbOBKaQTDV4bzz2Wc7kwa7LDuVLP7L3Llz/1nevi5dujRn1uyX30kmk+dzCJd2HKR7VmaRSMROp9IPcZ6ZNmfOnCp7Be+7veEjHxn9ww/r+hghMypZcnjAVV7hwrKsJ4YM6j+qVatWOypzvgfLBBU42isQANmj9Ai9uihz1Zertk3M4PAZLg4jxE2MBOhhvQF7ektOQc8KbKyjgAz2QKiXAKUCD8CeiyMNO5AQxRvUzSmqn2+kTIpONImLKcgVPB9ZtfY9QFY2ioHmElHEXWe3nSj5K7jL0gAAIABJREFU3Q2X1Flb07jMo7TsB21YX34rTvl5d9F4oof/CkGS0rFAuhaoqX8/GAG8ZV0EHdUIYS3s7k6ibVt3o+Urvy+6pigtkIsh0Q30saZMcoPP+vZr6nEF1usgDkAWKYYIlkNCl2BZSHsvjAh3mSkSjKR+GvbO6POOTSD7wKiLft68+S0hRI6vw4TzUzKiwGzL4A4hAazUBXqBAwcCsiENQGLCSSYSY//+5vxKAdkp06Y/tsxjZCW7Dvpnb/vMtlZ0vrVL/0svvfijmpxMc+a/3uX99957mGB6YtnAApit55x/0P6KP/S4+eabf9x3G2Cyf++9g+8khjGWEGJIV2EvMlaypcz9vtGJjS8bN+7Bn2oyPv+zn69YUffJyY8NcRz37lAopPu6VPi7YmTR5lYtW9xzTyWA7BPTHn+M6qHzfTBcGnpRSWnB6tXftRo3fvxsXddbup622A91wELY+XXqPDNhwuheNdnvDh1u+g0xtI8Mw4jIxjkIKIH6gjsIY45wnC5z5swu1+t3zJjxl3/93XdPY4xPEhwC1eCa6kqmPJPJbP71uW3u6t+nZ7kguKpjfmj0hK7ff//9JExJnnq4VWvwAjne6t2/18Dfnn12QEhUtbDB8kdlBQIge1QeFoTeWpy4csEX301wtexmnIAOy5BAFthR2eklu9Rl4w+gFA/MKBN82SwBsgIAUI68YGKNCMyZhUM65vl18opOqB9JawKdYBAHS/N8yezuOR0AYKl1adLwBaaqueBFmVTqwu8WxNagBxH8X/Dykf+e4slbxj+XFJ+SsdEYakY6QN+VaqJTEgI59c+pCpwwNORwF9nMRgzr6Xha21hQ5C779Ms1N1MjC2E47PAgwUKSFffTu8AXVt2Y4C7qIEQs4QFZDIwsAFnBqbBdR4TDJnbsFCJOCa8fdYe+MOTc4wbISlmNTGVSaUd+OlNZq6nygaySFriOBW4RNhd87IsvPj+iMid0uUAWgBPFYJP1WZfOXe655JLf18ivc86rf7/2/XffHUcwPa0cIPvR5Zdc1rNz5xu/33e8GzYU5g4b3m8EplpvMMv38jJKdZiOlX79pRdfuL4y+1mZZaCrf+oTT3Vc/r/l0yil4L1amhKmXAvwYQay42brulEOkOWZOvn5oyeOH/1QZfZrf8t06HDrSWZUXyWEyJaMv8PKPCi4Luf2XS+/+OKz5X3+4YdHD1v340/3uq6bAwAYgCwwsupBTKxsckrj4fXq1ZZyD8MwRCpV/ig0zd7rvq2W9ReOIE2jePnKZZf+f43sJKprtXwg659HjuN83rdXr16/+c3Z+5VA1KRGwWeDChzuCgRA9nBXvJLbW7pF1Pnqq59O+3bjT2EIk0XIRJSA/bZiWCWL6pkKqt+4iCEXqXh0WF5JDghRGsFwKIQJZjgcjoQwEpc0qHvCtZSKhnBRJKCvFZDxvkdeIPvrpQ4XLrSevRdGDmPuR9xJF3Oc4ZLwYl4IQ5n9AhwNkloP4/kccoV7LmAOvQovAHEwzV72BTObe/9inwb2ff4uiJ+1tfeGMfeNdWWYkRwXBn6pzEtgLoRgglAVGsuhtQW6QLDOMYnUItRoTXStkezRw45s1CoFshJsUuQwgahBECMOxMk6ybT23dbtJUs3bds9D+5vyeQOeaQpK01Z8o61Os7gZY+JIxiyEIXjCOQ61jFiGuIQEcqRMHQNu04KZ5sIndPipO97/6nxhiqU+ahZdIhiZP8BIMJnZOHc9BnZUCjEwTcTNLOQ5sQ5xxDksc+RhR9LzxGdaiiZTNiO64x99dVXRlVmZ8sCWXi48L1sCcHCcZx/3Xpb54GXXXTRqsqsa3/LvDz/71e+9967EwimZ0o8SIgPeICRXXDJ5Vf06tap4zf7fn7Lli11Bg4aMo1oxo0QUFA24hQsl4TrjH3hhZn312Rs+372w48/azfrhVlTCSEtACwBE+751cLX8aAA2aanNO774IP3HzDVTDGyAGSBkVWxu3sYWZ6um5//wPjxoyfVZN9vueWWurYjlkSzsk9S+6hCJZQW13WFa/ecM+fFZ8rbRvc773rJclhHjIjuP5CCthskMRhjkBNs0DQtAUm1rhcTTLwEv32uct61GprruEwAs10GnW1INwwM+44xzuWc/wosidVYJFiWNXFsd9WAfr3v+PWvW31Rk1oEnw0qcLRUoErA4WgZdDCO6ldgxTYRXbF6293hcN4AwzDqcax8SvcHZCHaVOlzPYkCQUwQCOLMgHeiIBiiLkHnAHPjqgGt7DsG4F3O7/e3fJV+75XBT7SSXfsCGqq48N6lWWuZ3/t/r/Q7MODAevvrK/su27co6IsdwYWDEWdCMtiYCowMUB9TRGQ2kyf94NIHWMbIgm0asLLSdgswLUO24wjL1tfv3h1f1fvPeddV/ygfn58sD8hCs5fKnk8wIfAcgfkaXdNQJpMSUjsrH+TgYWYPFMAw5S0fCFVjEszWX3xx20V33nnnZ5WpXFnXAmDWlbRAMZGO47zbtUvXQX/4w4XVcgPwt+8B2fEE07OqAmS3bdtW995775uJNf2PAGRhfb49GMbYjZhmv6efnj69MvtZ2WU+/nzxuU898cREQmlbOfujaRKcgc0X4+BaUHNpwcEAsvl1at8/YcLYyZXdr/KWW7t2a/7wEYMXaYbZVHny+tINAJUAZFnPOXNe+AWQfeqpp/R//evDVyNZuXBcqC+J8WfQgN2VCXGOTPRCEKfo/+6XD2Lw4Cz9F1VjHZVjkOc76ObB6SIcDnsPE/4DsCdrgjAH2/6+f+9e3c499+zPa1KL4LNBBY6WCgRA9mg5EodpHNuEiC74cF1/w6h9rxaK5oC+VvmbwoO7VFyqKXDP5ktOgwPrwBQzK2e3pQ+Yg5i8eQOTqzrxlbXB3u9yarOc3+9v+X1/L+Me9vf5/QPZUqBaUyBbHoD1gbF/E5Ju8NgFyIswOEyAnphjBB69sl7SUQI0zMzzdwVpgedEIa2xoKa2vCnZDtlduGv3yu5/btDuMJ0Sx8xmygOyMJXt+Y5mLMu5cfLER/41YMAANn/+/KruF8NY+tdV+DqiQBbOEmBkL/tDr26dOv2Ckd2wY0f9++8d9BIl+iV++AHsEGgxOedOdm52lxmPTz0gs1lhAfZZ4L///ezM52bNGocxag9A1g8iACDLBfjI1hDIcraraeNT+tSUkT1YQHbkyCGLqGE2lQ8wEN3t2W8dCMhOmzYt+8svl8wzI1mXua5LAXDC8WFMWcXCJc5vHvM1wvL33iRV6WPYPkSB9/CkdPCaJpsc1ec8Pxo5PQbXJdWEJ9MDHWdjv759u5xzTssFVT3WwfJBBY7GCgRA9mg8KodwTDuEiC1asP4BatTrI6gZAqcDPwHsl0DWRZC/AKwXBvMuJhBTglmEQZdbynTtPfFVdvj+1N4h2yWFFI/YC8A9zP6BQkH2wcv7CGgRdEkuKx5kD5CVbKxs9gJvYKU/BusmQdLIDOnIsYhbWFDw9a1XNzg7aKjb+7CWz8iqG3Yacl+5e/0ZzZq8XxProsqcSKVAFpGwPJYAaKRGFh0KRlZO15dKCzwge8Ull9996603rtl3vD6Q1aghgawPijRg4qyME4qEuzz79IyDCmTf/fDD5vNfeXW8EKg9hqcBMPb3nAv8QIQaNXvVFMiCJoiLdJ38OkMnjh8zpTLHeH/LdO3aNd9y+KJwJNYUGFSi6WWALHM5c+5++aVZT+/7+SeeeCLvs8+/nKuboUuBPPWBLGi74dxJJ5W+W4FbJv/taWflquA8K++6SjUJTKERQjLvEHoBTK5tqyYyP9lsHyC7tk/v3t3atGldqRmImtQr+GxQgcNRgSOLAg7HHgbb2KsCBUJkfbbw54cIrXs3R7qGiXI6AJsuQF5+dz1BikEUDHruNck0woSsilUFMMuUopbRMmEKvyy2zygcqcNwKIG0kswCkAFKFdhouIGruE6EdYQoMDYKyAoCGlmwwQEgq0kgK5GujpALzV68WGrdkGMink5+h7blndmxY+UYwiNV28O93fKArH9805DxKdBhiaiVQParlTLZ61AB2TnzXrvi/fc+mODrTisLZNdv317vgXuHvEA17UoFZNUlnmI59e0ggnrMem5muc1I1T2e7334Scs5L86eSAi5FICs75IA6zvegGyHDl3zwxG6yGGsKQBGBl/7UkZ2/0D20Ufnh5csfec1TLUrdV2XQFYx1yDBUI22fkCCdH7w/g6zYbKO5T6w+2SCYmBl8IULfRIUQfKYkigoOTgcf/lwgSXwXdmnb9872rRp9WV1j3nwuaACR1MFAiB7NB2NwzAWALKfL9oyxkV1ehACntwKyEobGWmeDxdHgGjwey5BrJQUSMkAkdgL5AhgGgUXSQ2cFPZhC7w2KW9daqdKr8P72HypE7C8RFHFQOxpxdp7GX8b+2573xJC6KO6oe451cHToXTdvhQCRuHZY/lj9b0X1Rj2MCJ79k9NBzLOEWeOmt4DaQFYQnn6NRDASns0aY/l+fVKGy0FZF2QG+hQ7Yxi9jIEsUxqvbY971cBkN37aHpAdi/7LR/ICiHSyUy8w+uvvPLeoc6RnzJl+tRlK7/qjhEJw3kBDWVlGdnOt3YeeOmlv//FtH9Vvt77BbIg6BVswf4Y2a1bt+YPGDz0CZ3qf1XNXjCjgmXzkK5rjGAxbObMp8dWZSwVLfvRZ1/89qkZTz1qGPrvAEQp4OWlfBG0uWWLFv0riqgFH9n92m/VlJGVU/f8oDCyAGR1UyzSdENqZPeWFuwfyD61dKn+1XOz5idSmWtAIyuvJwSm/VWjGMY4btvWzwjhtKkbYKKoGtW83Gl1ndu3b1ZdE8HERrjgL42QAfKCMgw+lyDbdwjnSMdUWI69um/fu8e0adPm24qObfD3oALHQgUCIHssHKWDOMZdQmR/vnDLGKzn9XCFgZVEQL180IiFF4ErISbcmCCA0WviklrPMrouaHaRDVZqHYqx9aCpsgeTF2A/UpcDBekBX3UbAGbX91ctu6NwdYYQUWAwYTnwSAV4qGyr/O1BSACwnN71vhQU+2ATlpMpWAAc4SUbwqDpytOlybFwxAmkokGwALzvSd+SkRJwp0CaZFrVtj1HBzl+tX/S8QGkAtxUn/dqJPcXliFpj7WFnxX7LYfjFR1kG5J94Qi5qeKNZEfOqQGQ3QfIDnngoi3bd7yFEMrZ8/wBbS8cmovSgrvXz5kz+/1DDWQfnTJt6vIVX3UnRAuX+shC0w10rjvuu1061xzIzpv32hXvvPv+BEJpC6iC9HEGmzxQrzB3wWWXli8t+LGoKG9I336jkcDdNU2jsq2NwncUIZc5KBIJPff0E9NvO4iXFPSfjz+76vnnX5gmhDhVzipAG52XWOVF1FYLyPrSCF5pILu61dhxj842DOVaUHY2SALZ2nlDJ04cXyNpQYcOHfKpHl5ohsKnqkYrxZjCNYVzzoTr9nzpped/IS2AZcaMmfTYD+t+6JZMpyORSEw2xME+Qs8Y5/yrM5s3f7zeCQ3WZoVCKB5PoHA4JD2mJWfAbfU4LRv4yjqYwG9lgl3pIQUnk9JrOiHCdTOek4QQDnJR1DDiF1988Q/169dPHszzIFhXUIEjVYEAyB6pyh+h7QKQXbRwy1ih5/SArC/p5C35Sh9M7gG2EG8qm8A8E355IZWSA7fUYNtnRP0oVJ8z2AMkFbMrwR9YeZUHZL3YXR9IK0stiFn1olwByEpgCEAWYlcBnKrRULDRLZVElG5dVheAqdL/7tkPOXYJTlXPGoxJogPCECPQ+Aafkd1XEtjrcgxg2wtaOIwY3HQ8cA7rApAtfbk4tHp5QQRyaF56KEQIyzCEtJRqqKACP41N1VpAJIULHfZEbsvKlPy4pm12k5HYo4iP0LlytG22bLLXngcZ9UBgO5nDDWRvJ4RE4MFKNpsxH8ja73bp3LXGjKwCsv+cQKixB8gqH7wDAtkdO3bEevYZ0D8vL3e44zgalYEPKRQOKb1kKpVa1PEv115ck3SrsueFEEKbOHlq5+VfrZwUjURzYBueY4FkFI8uIFtn6MSJNdPIAiNLqbswkpV1qtQCl0ZAc9hXJhy2XyA7duyk7itWrnwkFovVQUTDfuqalAQwZ3nPnj16/y5wEjjaLjvBeI6BCgRA9hg4SAdziABkFy7aNg7puXeBP61kK4Gl9OUEpdP8imUUyCjVz8pxeNiqNCnG87Mta9bvs417lofoXAXagL1VLx8w79MoVtrprxhZfzsymlUypYr9BUCp1le2OgCB1b6o9StGWH3O89X1WGAAshhArDAV0JXLASOr2GOPY5WAV35J5LJq22VTuvzpPgC9kr2WXcU+4AdNBrgTACObUclrPjOsIKyE5mD1yBk4dall7VTRT9/8vtYpAZDd+8zfH5AFwGQ7mRRznevnzn3pg0PNyE6ePHXKspUrupcDZAVz7PeOJJAFYNmtW/c/FydSsyKRSATYWABcwJRSjaDi4uLdoXB4wOxnn551MK4roydObL508f/Gx6JZV2KMqe8iAfpRAGqHH8hOmmUYRqvyGdmDA2QJdRbFsnOaSv/XsoxsBUB2zJgxp65du+F1y3ZaGHpIaonh2qTcCsTuk046ue/WzevnPf3002rKK3gFFQgqUKkKBEC2UmU6fhaSjOyi7eOFnnOnDSDVm6aHKX6YoiqdKgcWVTKZAM781C8PPQLALAWjPnBUzGhZ8Fm2asrYywfMe5oUOPiuCqzApveSLIc/9b6PLGxvCYPvD7pn3ZLV9eQDEipKAO1N4wNmlOkEIC+Av8J+hCSEB8ZYJaUp+YD/wjBFWWYM+/5dschqAeWn6wNmYK65auoCv1msNLKSlYb9A50xNOBIPRuADR1p4F0OjV/pok0d29Y5OXAtqBjIwoMRHCPbySSZ63T4vw5koWLz33jjN+/84715pmk2hi52X0cMYJYQwosTxV80P7X5zSNHDtlYkyvbihUroqPHTurGER+dX6durLCwUAFmSiX7K7eLIRCh5WGUFhxqINshn2qhRZFYlnQtoLqSUkhpQQVAFtwK+vS995VkMvkXJIgGQN+PkKYUA9P+6p+vuW7wX/969S+ih2tynILPBhU43isQANnj/Qjvs39SI7tox3hh5N7plpniJvKmoyJuyyI3gJ7q5YNLAIX+73zmU0FFybZ69lKln/FxnvzIHk2sZDAlaPQ41P2ciQoyA6BWC0jA7SFLAKmQZ7aH7VWNDXs6y7w2Bw94S9Dpxbyq/ja1r0p+oF77Nqr50gnZ/FbOq1QOAdpaqZP1fHVlLZXNlgTlxCNZQKJQyuoyxJFKBwJGlkLnsXCRnSzc1PGi/ADI7lPv8hhZqc+G7m/7KAGyrvVul1u7Dapps9cBpQWu88lll13Rszz7LSjZ6tU/nDp2wphpjuNemZubi0FaAA2I0qaJC6HppIgLMe5Pf7xiYseOHSvlnbvvqQ8hDffdd1/zrQW7n9N1/VzXYRgYylgsJkGsbwPlMue4A7KmGV1khCNNle1VGY1sBUAWati73739kon4aMd2w8r1wLPPwhiZph4PmXqvPr16zGvWrJmnTaraDertt9+OfPL54puIYM3Bq8DljgxKAPrXYa7QdT1+zdXXvtm27XkrqrbmYOmgAkdvBQIge/Qem0MyMgCyn36xYxyW0gLQoXq4sJR23NdBwPvZY2h9xrF0eh0asspM8Svg503nS/AL2lF4V/iXCqVRVQ1aqhEL9K6KafXkB/CJUmZVgWi/WQvswgBUSiBMAMgqKYDUsZZhTrlsiFDbV9Dbu197QFKB1j2JW3t6e711eWPxI3AhxhfWobbhfW2k9EGxvULqa2E3gWHek26m5AvqZwlgPXmCagjzagGCCACygHe5i6zU7p86XlS3ccDI7v0VqAjIuoJ1nHcYmr32SAu0CDy8lNHICnYUANl169blDL5/RJ9oJDqMMWbA+EwzLLWrId2QTrSWZW8Uwh3ZtGmjl6rju3vHHXfU2bWrcGY4K/uPlFKaSVsI0qR871NgZaVZv2tXGshOn/b4NE0PXeB731av2evQM7KaHl5khiNN5Tj31shy4bAe+2v2grN5xIgR52zYuPl9hHC+SuKiSkusmgUFd61Ps2K5nZ98ckqV2XJ4uHj+xVfaLfjk4wnI5S2ki4qULWDZ7JXJZIRtp//XtcttAy+//A9BqtchucMGKz0SFQiA7JGo+hHcprLf2jYG6Tk9uACbdJAEKLBYajFVdiodEKhstPKBmulNwSuGkSAw9lfT9bLxyWuckppTyaSaEoT68BjavRToVOAWtK57TddDQhb4HUKDl3QpAKZTQ1yEEMzcQ7MZxrbUrsJPLtiDQU+3HPMeaQB8xt8NZaNlKeaWw/gJYn6gg+cuIDuBBUYUgLlQyWZSsCDAPgv2zwFFcanbgQLJe5q7ShPSJMPs25jtZdolfy8ZaKnxhccIaDqDsQOQRQjCVGHbtrV7w/W/z29yBE+To3LT+wOyMFjHzqRc7nY4fEB2laeRPfqALNSjV69+F2zbvn1qNBo7G3xL4fwCIBuJRFAymYTpfy6EWB1PFT9y0w3Xv9uxY8dEZQ46gKVeve496eeffxxeu06dLpbrEGAW5XeHUrluHzhJM/4qSAuOBSDbtWvv/HSm6AsjFG6iXBH2aP4rkhbIB14h8M23dJkUMsO9wQrFhUsS51KSofxoOSouKnwjOz9vyHMzZnxXmWPirZfOefXV5v/994IHUqnkNdFoNATSB1g3vEAfLYSwXSszq0vnW0ZceeWVWyu77mC5oAJHewUCIHu0H6GDPD4AsgsX/fwQ1nN6MKFpMKEtNaoSRskXpCP4c+3q39gVnDDBMGZcGIxjhBnhGkFc05Em8wDUJR2m05XWlFMHAKZgIgyiBXABAkkoppgT2BplYJulQCwYA/iWWhLAIoY0LuMXEBcOZ8jkXJgy8ZVgGLCjaxzoDIIY9SQHHiOr5ApIMLD2VHsBnCim2ILeYCREGEsWmMhGMEy8Cz2AYSKI0BiAWQneBceYuUhnDCNMsNA15BINiBPfc1fqM9VGpJej2heoWalCQQJ870cPyMp9ZdSRzlsao0gDltZFSAPiFjPmZHavv+73dX91kA/9Mb+6AwFZ286kGRfXz5vz/CG335o8ZdrkZStW3qGavY5OIDt//ny68MslXQt3FY3mnOfrGjxQqkc7FekrPUyFEOxn27am//WvHV5v1uykLa1atSrXkgmayFauW1dr5tQnmuzctXNsKBT6PYAyX+PpOmrGAxKpfIZRamUrKS1YsmTJ2VMfm/5YuYws4zubntK4b8URtWC/dWgZ2SFDhuT/tGnrF5phSiC7J6igYo2s/wUcMWJy7g/rVn5kGEZruCYAWypTwgiRwQXwbtvWR7G8rH49bhuwqWXLkwv39+WFY/DlDz9kbVy5pvl7/3z7nnTaug56/ORjPaTNwToh8ctKM9d1vomFwsOfffbpN4/5i0GwA0EFylQgALL/x04HiKhd+sWmIUUp1iWWXce0maBC6BB9oNgFgFecwKy9BLUMpiFZyg1FTGt3PFPiuFkJoSNqxlCeQKhWWCCTIhQiFGma1wPmCiRczCzGUdoRNOM4KAnZtqEw0jBLhQm3dRMZQhNw0+MYY0KYooYx5gwchhBh4GckHIa4nbRJEmk58aIUciNRFCUC1YpqKJsQFANCWNqxKv9wDtu0OcpYAqUER5ZrIydmIhqiqSh305qmZVMuCLYIx4ahIWwDJQJohMrZfoMhwTlijKfcDBfJFI/GmYaIGUa5gvGsLIOYiKMIBh98kAIAq8wQszlKEw05jotcglBaOAjrEIjGUppOAABrhMt5PoOAYxgjthQiUJcjA2sQCoY1SAJz05l0cttPf7vq9F//Hzs1K9zdgUMeuGj71m1vMc5zQpGw1GFSTAR05XPObYzxXTd2uGFBtHaMh8JhZFsWDlW41hDKoAwyuCkQSsNJtPuCCy5IHEjWMXnK45OXrfjqDkppxHZcyaZJn1bXFdx13u3apeYa2Tlz5lzxn48+nsAFbQH7p2FNgkTLTvNMJv3JNX/8092dOnU8YOjC229/cPrLr7w8Rtf1PwqONYgsVWlSkDQHWIcjU6fIdpydjLkLGWOf3Py3WxdlZ+dsYCwet2vVErQgE4rF9Hrvvfd+83Ub1l6EBL4EIdQsEoloUH+YtwCWN53KSMAkLxow5S6EHC8A2coEIixcsuTsJx6b/hihxgXS9xZjySBDbTOZzM7mzU/vM2zIoFcOdDhXrVrVcvTYCbNDZqgVfKXh6wZjBMkDxSidm5M7ZMKE0VMrPCUOsEA8Hs+/865ekpGF4wL6dpW65kqwGNbNHi+88MwzB9oGNH1df8PfumRFsyYjQrOhVgBmQXML+6403zYnBK+2Mpk3z2hxxr8vuuCCbwsKCgrLapo//fTTvB2F8dPefOuNdoKJK7lA51KMw76kAMYgzx1NE5l0cnuDeg0mdOt2y+NnnXWWXZMaBJ8NKnC0VSAAskfbETnE4xFCGIu+2dV2646i1kwQYiOKQfkJmVSgTIUYcPgfFmF5blDd4fF0iZtyGeM4lv7xZ/w3LZSbtyu1O5yTkxs1MY1SjGKUcJMAVQl0pLCFi9IJhnCcswjMPlrctd2waS2oV8f+Los6RhgcExwudJANUIwF5cCPYsyVIy1ljDMh3IzjuMWOEdpWUuuieBrVM7OQjgWPmtjMIgLVJibk5zJMZZSWcJkQcUfwhIOxxaGTKsPsmGE/lW1s1+rWDmthnEtcznEaNK3IQVFkShtYB5gLThBlRGDGuQXwnZPM9mT0kt02Op1ozBDIjWTpkSgROEdQTeNAJcsbt+M4PB0XhGW4w22CsaNxnm6QG1kcNVOrDZLRNKETHQOfrKs4BQLUrovhRqhBCILLEaWEaNxyGU+WXHfJ6TMO8alwzK3+gQdGXbT3rI80AAAgAElEQVR569a3GGM5DnDlOrg8CAE3ajgMhYWFC3Jys7dmrDTWNeie1xB3wfNYmhzJJKWyLzhbAXwahinXk0klXYzR3Pvvv++/B7rZT548bfLSr76SjGw4EpVgCeYchBAik079887udw6uabPX3LmvXv72O/+YSLRQCwBzzGYS6JghHXz3P/l924vu7tat0wGBrBCCDh364LUFO3cMdV3WEgmie8BGAlmYSkkn4ygajUr8mUgk7KxY1qp4MvE/x7J3RCIRjinJSafSzUIhszWltD6sE4AbAC8J5HQqiouLk1mxbKhlTBn8EzlWWAbstyoDZIGRnTx12jRCzQtlsARjsnEMmErGWEGzJo37jhgxrEIgO3bcpNlgvwXRsfAC2UM6nUZ2Jp1ufHLjIePGPVwjILt1azx/8H39FjGBmir2GVhZ0Li6MH3vWpl0z7lzXjwgkIVxzZw5s9Z77/1neCga6aTrem0A7fJ6S6kE3sWFhSgnJwce9K1kKvkNxfRTy0mtY5wnYtGoYA4z0sxpauqhCxEm5/z/vAUT9hX4ADgfgY2Fdem6LjKZTDKTSr5xwfltH77nnl7fH3Nf/GDAQQUqqEAAZINTpNIVkPquh374JsGyThemjkA8IHPBoTnL43Sl1yrQrzijLswkGwEFqSMX1crO9J3Z5xRIAJLn3b6sl/97f0D+319fJk5+Z2HBM9uL8WWulkaCu0hzQ4iAlRVRgQVKkiDFCDAqGf0KGtsIQihXK6r7/NBzCiq9o2UW7PvM9jlrt2ZusmVWOUZhHEaCa0hQDdmQa65hpOkCOTwpm9BgmwbiKFsnP7c4NX/E4OuyD2qufXX24Xj5DEgLduza/ZbrujlEU134mrQuU7BFRvxyDjdvDGDKslXsr/xbmYjhvcAssF+cSV8LgbjNrMx9AwdOerpNmxNS+6vblGlPTF7x1Vd3YI1G0hlLAgYKFD2lwsok/3lz51sGt7/00hpF1L799tuXv/b6GxOJZraQjB3WJJNKKOKObX3Srl3bu7t161bhNpYuXRp54YWXLk+UJHojjC/AlJiSqbQVkwzxtfAdhnX7bCBjjBFCBIcwXMYwaGy9l1zOY0mhzm4ylVij6doCguh5CKFzAdzBegA8ApAViFcKyC5YuPDsZ596ZppmhCWQhc9LAM+YwBjvbNr4pEoA2W9bTpg4AXxkW/tAFsYL49ApSWdnZdc4EAEigAcNHrZIN82mEv0LLMF2VjSMHMd2UvHE3XPnz6kQyMJnZ82adeI/P/hPv3A41JUQUhtqB8w2HI9atWqhoqIi+bBm27bQKQWG1mKMSR8/QojBMQpx0IcZuvwMjCNshvzvgDx948XFJYZpvpSXk/P0tGmTVgYNpMfL1TDYj7IVCIBscD5UqQI9pxSs2bxLO90GIKFBZLinu5PNXqAZpSrFy0u2Yo6JYNI+hNKoVnh3nxcGnfpYlTaIEPpil2j42Jyd07cVkz9ZNCOZNZ1FEMUQZqD0uaBrBQgNUJZhSOkCgO0iLWOhhrF0/tP3nrazqtuF5R98g81Z8n3hTZakXjVEXUOqbh2qI2AFuesg3cDIFSmp7dUxQgZ3UK6Of7ro1ycM7XEpnlOd7Qaf+WUFBt//4O83btjwD03TcsLRiIr4BADqZcsDQPMBEIAhALrE11CXA2Thc+ADKqdikQDg6xAuBvfu3eOpNm3a7BfITpo0ZfLyr1bcQXQtwlyOQObg2o4EXRTjd2/oeMOg9u1rBmTnzJl3xT/ffWeCGY61gH2KhWNyP0FawDj75LJLLquQkfUruHr1amPWrJfP+vnnzWMwoZdkZWXRVCYjQSnIDfyoVL9JS7obeEwmsIPwM9QSmFsATPBvYPqKCovWn9qsyf1ntWi+4YP3//MApfSPMEZYD4BZAJC2Y1UKyC5cuOTsGU9NnyqQ1taPW/VYXZHOZApOP7VJv1GjRlTIyI4ZO3GWpmkSyMI4AAjCekK6lo5lx4ZOeXRijSJq43GRf8ednRdphtlU1S+sNK2ZFNJ1zUklUz3nzXtpZmW+v/Dg/uKLLzb6x/v/6q1T7XaYacjNycMASH0JiN8EBop/qAts03Fs9ZBAMNKojjK2coyQwJrJuGZf3pEgBA+9vecdb7T77W83V2ZMwTJBBY7FCgRA9lg8akdwzH2n7VzzY4F2ug3aNaLss4CB9QMGCAcfVY4EhakyYEvDyBAIGW4KxehPfV554IwqA9llBeKEMc9umLaL5f7VDUEnNEXUicgOK1cysRxpXIaFyiYu2UwFVlmIoSyXoaxwYf4r1Qay6Tmffr39JgDukLxFXIBOGmKgaQNVsdCQpgMraEkPWAMszRwLZSH7xz/8ruGQuy/BB7z5HsFDecxt+sEHH/792vUb3gqFQrmpjGLsHEvd1P2pbtgpf1rVN+b3d1Q15+yTsEGoB4gFpDXbjpUZPHDShKfbnHAARnbKE5NXrFxxB6YUCH+ZzgYA4mAC2dlz5lzx2SefTrAc0UKyzESXIAYE5JjgBZddclmvijSy+x7gvn37ttxVWDxacHQlooT6INWXA/ipXH4SGGzXdzooGz3rOI5LCPkXIWRmk/PafNDyxBNPnjPr5fG5eXlgxVX6MAH+tbqhVQrILl68vPWjkydO081IW79ByQtVEFzwHac1bdZv+PD75h7opF216tuW48aNm6UbemuwxfIBcTweR2HTSDdq2GjoQw8NrxGQBUZ22LAHF1kuawrnn20riQsWwIhmbNMwez733FOVnoUBMDt79uwT3njnnesioUhXMxRuQSnVS4rjKC8vDyWTaU+DC0BW7ZN/Dsv6gM7ZNFEinpTLgRwjkUiIkKH/XFJcMvGxYY/OrN+qfrkNfMfcBSAYcFCB/VQgALLBqVGlCvSZtmPNjztDp1umAa0xgCnlhdUHshAIIKd4aVoldrkhBNA25KRQWGzs89qoM6sFZMc+s3ZKoajXIWPa0peWZEzp3YVNZSILOlPQKYInLTgIAKClnKOYw1AOW5//yoNtqsfIvpma89nXu25yDQg2wEhzNATzuw5IDSjoBKFHTcXbws0MgCx1HRRxrR//8NuG9/W9Ch/w5lul4v8fX7j/wIFtiwsTb2FC8ixHaQp1qm7sAL4AdGVnZ0sGDn6WjKvXgLRv6XwwoJshqSmExzHDMKyCHTsGDx829ZkDSQtks9ey5XcIjCMAYhKpJMqOZckpYGj2urlLp0E1lRbMnj3nivc/eH+CZoRLNbKwD1TDPJ6IL7j0D5fd3b37rWuqckoAaOrcuccJQlg9HM7u0g0jDzotYR1QL9gXeAdgBDZa8LOvd5VgDWPuOE4ik7FmjJ86afLuTZt2t2nTxlmwaNEZzz79wniExNXw9AqMYm5uLpJBDARVCsh+/vni1pOnTJqWlVPrQvL/aUQ4lnDsHMcRlNBtDU+oN2D06IcO+F1avXp1q7FjJ84mlLYERtZnMGF/uOuk82rlDpk8aUKNNLK9e/fO31VYskgg0hTWKw0BHUdKC4qLiyzbsnu+/vrc56pyXGDZTZs2hefNe+OUL5Z8eZdu6DfrmpEHx4tSvfQhDc5T0DX7zXDSG9ZKS6YcfHzBUg10zpiQZXYqOWrUqOmftQpAbFUPRbD8MViBAMgegwftSA659/Rda7Ymsk//KV6MorWyEYfOcfCOki/woNJVwIFmychWzHORLgDIJlAYbez7+vAW06o6/qUFosGjT26YXIhq35DWLZmmY7pZCHMNWTglQaQONlgAaDCRtgEuBRstF+UyhLLstdUGso/8w57zyaqim7huIuYipLtwQ6cow+EH0EaCXYKDMLiXwfSfoMgQHEV5ZuPF59a9764r8Lyq7m+wfPkVePjhcb9dumzZdJexvGhWTAIIwbgglCAClmqyi5wovaemS8kJuBDv9RJg6wbninp3HC6n0UEhWxIvsWrn1Zo0fsyouY0aNUrv7ziMGTfpgaVLlt4gMA4DwMvYFjZ1AycSCV4/P39B167dxrZte16Nmmreeef9drNfmj3EZaiZHAcY3xkh5DDoZkdf3tDhLw9ef/31a6tzrqxdu9YcO3ZsMxfjKyjRLy8uKm4ejUVzNU0zLMvSACABCM3JyQHg6lqWlaSEfqfp+gJCxVtDBw78qmzy1Dv//vcZ816aP14gcTWlFPuMrky+qiyQXbLkrOeefubB7dt3n20YGqQOyzhd0HS6rrvrvPPOHTt08L0HtI1avXp189FjJFD9VcaWPteyCdAwDFFSVJhs2arl1LGjH6rUtP/+6nrbbbfV2l0Yf4No+knyikc0AedSKhEXhqFbWbHsh1588dlqP7xOmzbN/N+qVaeaNPzneKLkciHIKZTS2oZh6K7rEsMwpP47Ho8LiLXVDc0uKiosicWyfsIEfyls/h9djy567rlpOwM9bHW+HcFnjsUKBED2WDxqR3DMf7r/6zXp0Mmn84iBUlYGhcFCCoIQPFNYSNSSAQeaYk6BkaWCIt1No2y6ue/rw86sOpDdKBpMmbPx0d08/8Y0NJGBNsyNyMQsoTsyahYayuT9HgIHCEgMVLiAnsmgfLGx2kD2wTfcOQu/LryJURPBzG5IGMigBkqC/lKHVDMH2TyDNI/NwgwhEzEU4emNF/+m/n2922sBkD2C52uw6YorMHTo0Aa2zdr9tGXzecJxm3OCI2Ej5OTk5W4OmeZqhvin17Zvv6Jdu3blhiYsWLDojKdmPjNe07SrgU319clVcS2oeJT/J5fAgwYNOjFl8Ss4Y623btt2ip3J5Gi6IQyNphqccOIGTMUyhsWnj0+a9O3/yQoFOx1UYE/WZlCLoAKVq8AfR6xdY4VPOt0hXNkBIU2yWZBsBekAwJICMwvJVQBkIaIVpm017qKw9VPftx6qOiP7TYFoMGzG2keTtOGNYJkFmBV8EGSsI1FG7DIatvSlUsUgJUdHDBn2D/lvV1NacPdzO+dsLondVJxISyYWuuSFC0QPlVN8nDtSjwsyAxgPVMMUNgrhko1/+HX9wb2uNOdXrrLBUkEFjs0KfPDBR2e9PG/eeNd1rgJ2G6QFmCo9J0Zo0ylNm/R5oAI29djc82DUQQWCChwNFQgY2aPhKBxDY2g/cu2apHbC6S4AU8hWt6Q4FXECbrSgE1XBCpKV9QIcwZIKQGXI+qnP26NaVFkjC0B2yIzvH03TRjdKz0aI0wIfIu5K91vJxHpAVqYjyKhcBWSl9tH5vtpA9obx6+YUOLk3uYwgomsy/0wm5jBNWi4psy8mM84UkEXIkEC2eOOl59Qd3OvKSABkj6HzOxhq1Svw+eLF504cP3lSLBZr6+tsZQOcNPZ3Nlx88QV33tW9+7+rvubgE0EFggoEFai4AgGQrbhGwRJlKnD9+J/XbLeyTzdC0LELcQq6anaqBJA1rJ/6/LOaQHbok99PSpFGfysPyKqEcpV5rv6/AtTwWwC1pru22kD2mlFfz0mQ+jdhEgJBHBLgVcAUkIUpVLAp3R+QvaR13ft6t48E0oLgG3RcV+C///3kkpkvPD81FoudaWVKrZ9A4yoyVvr7C9ue36n3XXctPa6LEOxcUIGgAkesAgGQPWKlPzY33H7Ed2sKUf7p0awIsizHA7LgFADNFeAU4Glkvd0rBZbAyGZqAGRnfDcxRU+6qSyQdSUDCrIGuWX5Dn6yPpCFd8kEO9UHsn9+aO2cpHbC36CbyxUMUsukdS4BfwLVNhQA2WPzVD5uRw3xfK+88kp+Op1uhJCOIAAN3pE0jJOvTPPmzb8Dx4GDUYRhw0Zcv2HTpumEkLrgq6sSr6QLhHCZs/zUxo3+PGzYsE0HY1vBOoIKBBUIKrBvBQIgG5wTVaoAAFk72vj0ZDqBIpEYYjaYyQMjWwbIgrMrOBcoZyw5vQ+pV9UFsqt3iPrDnvxuUuWBrNolYGOxYCLs/lC3uhrZax9a9xIwsgJR7II7A4bceyIBvLQd4/uXFgSMbJVOrWDhg1SB+fMFnT//xqtC4dAgXQvptmNhXdMxh++DRpBtO1vOaN5i1PAh9yyv6SYXL15cf8aMmfcbpnFHJpMxiKbsohLJOMxYMMd1/tO8WdNrRo4cqfzSgldQgaACQQUOcgUCIHuQC3q8r+7a0evXWEaj0xPpBNIosJLA9ICPKpPNXpDuJf1jDzKQvf+ptRPTpOHNoEMVkhKliIFPqOAIzM8hFqEscPaBLOIujxStq/f2pOr5yF770PqX4rjeTQjrkBeGMHFVEhSXBrqIgOXXfjSyAZA93r8NR+/+de7c7U+2Y880zXAdP2krnU5jIxQWmUymOGSGJj3/7IyHa7IHQght4MD7rv7xp00zDMOoD3YFkJQGQQGptPShTefXyX9iwtiH763JdoLPBhUIKhBU4EAVCIBscH5UqQLXjPzmm9287hlmJIw4A4urSgJZAc1eG6ulkQVG9v4Z301MayftF8gyEKtKFlYxwGWALIuwdfWry8j+edSPL8ZJvZtl1ikFyG4jAW4JHJhoEgDZKp09wcKHqwJ///vfz3j77XfHpWz7j7FYTPY/yqjWUASaEnlJPL7G0PF9p55y0rsjR46E7sgqv/r169dg27adk6Kx2A0gTwcmFuJ0wc0DvGQppbtr18rrMXHiuKDhscrVDT4QVCCoQGUrEADZylYqWE5WoOvjBV9vjkfOcJgL9Itnt1UJRvawAVlo/VIvuHsL5rAoX19tIHvNiPUSyGKqYQg9ACDLGcgLNKQRDQnXDRjZ4Ltx1FVg6dKl+qNTpvSkeuhhXddjkPwETCnnSAZGhMNhnkolliEmHrjllo4fXXXVVXZVDPQ7dOiaL3DqwWgkq7vrujqAWEi6krG0SpQrksn4iuZtzrniwYEDdxx1BQoGFFQgqMBxU4EAyB43h/Lw7EjPmcWrV29mzXXTwAKyYKXh1IGBLFC3uoaQkdjY558PV91+S2lkv5+Qoo06gbRAxsFCPKwA91ho9iorLYC4XBVPCrATc+ZG2IYG1WVkr31w4+w4zr9ZUI1AAILD0ohgjAxiIgdcG+COTUSp/RY0m+ncQmFSsvGyXze47+4rzMC14PCcmsFW9qnAm2++c/68118dFwqFz3cdRgBgOo7yXQZmNpmMu4I7azEWL1lp+70ePfptadq0XvEpp5yS2beY0EBWUFAQSSaTsTFjJp6QSMTv0Q3jBvgmAkBmjoqUBSeTWCyGEomSAtMwu8yc+dS7wYEJKhBUIKjAoaxAAGQPZXWPw3V3mvzTym3J7LMEphgT8E4FMKuavZSPLEDLPRpZCBDgriObvcJpALKtq+wjuz8gC2AVQLIPZKHcVJ7RXFljIY6cdMrNJpurDWSve3D9rDit14kTSgBAM27LGFQdGx4ziyUj60JQgtTsij0+smfXC+y3jsPvwLGyS0uXLo3MnPXi7cVFxYMwIieEQiHMmFBBIhDuoRHEHAvpumbtKCj4OScre1Eyk/zEoNo6QrQiIVAm5aZENBIJp0syDXSdnhnNip1duLuwXSwWyzdNEx4ppYwAZj8AKAPbm0olXITRhPlzXxl6rNQqGGdQgaACx24FAiB77B67IzLyG8f8sKIQ1WvhMIEFgtQuZXtVFsjKeUUvEMG1bWSaOtI1gvTUuj5vjzh4jCwAR9DDCoERaGSFF7zghyQAoDUpdVI7/nfCx5Pa7axOwa4bsXZWQqvXSVCdOMD0IkeCZCoMSC2SjKwPZAEg6MDWeoEIQbNXdSoefOZgVmDp0qV1Xnp5/pCiwqJujuPkmOEw9oGskgEAoNWk7CCdTgvXdR1CiM0534AQ2gXfsUg4XCueSJ6s61qEUqoBIAbA6ulg5QOcYK5cj22l05TSTy688Pxet99++w8Hc1+CdQUVCCoQVKC8CgRANjgvqlSBjqO//WqnW7cl0QzsuAJpRJduBQI78h18ZGWeVplkL7jJmTpFvOTbPv8a3eagMrLAwMKNlGE5yS9lBcDEwgsYYuY6Di/5utpA9pphq19I0Pq3ECNMpCsCZhLIcpco9wIvaYyVRtSqZC+QFlx6Tv1AWlClsytY+FBUYNKkx3/1v+VLB1FCO2JKY4wxrOumBK+OY0ldK6T0wffIT+aCmFlP6ypZVhk3C+c7IfLnsi/4XNg0kJWxXCGcD373u7aj7rrrtqUYQwRf8AoqEFQgqMChrUAAZA9tfY+7tXd45Nvl2zI5rcLRHCzAaoshqVktC2Rhp+UdjGAUMkxUEi9C0ZCJQqn1fd4cVT1pgWe/dRPnHPsaWV9aIIuMNQTDIQhmNcEGTFkYWOmUfXKo5ITZQ8/YVZ2DccPD3z2/w87pRI0Q5YTKfhi4oTMHIwognjt7aWQJ56VA9opzGgzucaUZdGxXp/DBZw5qBQYOHNbsp59+vFM3tDtM08xizJPfUCWJAXZVMqsgj6G09D8ArfBfJBJB8bj0hpVgVjWO8VKQy12nKJ3O/PuqK694rEuXTl9gDE+2wSuoQFCBoAKHvgIBkD30NT6uttDp0XXLfy7JOisUztIsh0lxATChnCi/c+kjKxlZ5evKHBcJ7nJTp8JMb+j/9sPn1ISRvZFzDlpVAs1esqELfIWklEF5FYAWVwimgKzgghJkuVu+avif6ZdWC8j2eHLbc2t34BsE1kKIasTljvTPBUYW3gWzfwFkodkrhIs3Xn52/cG9ro4EQPa4+gYcuzuzatWqepMnP9Y1nkgMDYcjIBOgDmMSlAIDC6wsWHT5gBYALIBaL6VL7jiAV2BnAfjC34UQIhwOF+/eVfDi1Vf9cXq3bp3WByD22D1HgpEHFTgWKxAA2WPxqB3BMXd/fNPXm+JZp3OhEQCyOoEpR9DI7gGycurdkxcAkI2EDJH+f+3dP4gcdRTA8fnNzO5dThEtTIJBiFZJEYMKiggWphER0Ua4FDaxMoVNCkUhYGWlrY2FHBYhCIK9RQoJKBJRIRBQUAyoIQZyuT+7OzMylwQLQXghwQd+DtK93D0+78J9s+ztblytdk8uv3Hq7YO3GLI77+y1euNVC8rNkJ3cfGrBMIbz+Ksn46Ox/fhg8Phjd1jMt4eV4eKeW33VgndOb699ff7KK11pJ2UyKdvz2Y2AbXZegmsYrr/81vjUgvHj7+fIXvnp2UP3vylk/8NvVl/6HwIXLly45+TJd5/quuHlpm2OTJaW93XdsDSfz8vKysr4ngbX/2M4/idxfC540+zE7fhnDNidf399P/R9vyilXFvMZz9sbW2efvGFlz47duzoz5GX8HIeAgQI3A4BIXs7FP9Hn+P1D86e+HN2777NzVnVtJPxtdWreiilb8fnzfVV3U/HsC1dqXfe6GdleXm6a2lXs715dfuZRx8+9dqRcibK9f3vw93vfXjm+c1675ND3+089Fqa64/F1otufM2Eqq/GoB6Gtill/IWUaVuWSl2XYTHfOvHqgbcO7y3Xol93nH//8z+OfvnNL49VpWmmy7vKxmxzaNulqpqNP+zLUNq+WnT9+Oa1Vd029a7JdDoti3bSrf/29OF9nx57bs+3t/J1/R0Cd0pgfCmtS5cu3XX23Ln7Pvno40OlmTwxbdtHNmZbB+uqeqBpJ0ttXTfDWKVdN77TQd8vFvOt+WxjqZ1cnC0W300nk6+2FosvHj904NfV1dVr+/fv3xaxd+piPi8BAv8mIGR9fxAgQIDA+ChsOX78+J6ulIfaqnlw3s1211U9L6W+XFXdj+vr6+fX1tY2dp5L5IMAAQJJBIRskkNYgwABAgQIECBAICYgZGNepgkQIECAAAECBJIICNkkh7AGAQIECBAgQIBATEDIxrxMEyBAgAABAgQIJBEQskkOYQ0CBAgQIECAAIGYgJCNeZkmQIAAAQIECBBIIiBkkxzCGgQIECBAgAABAjEBIRvzMk2AAAECBAgQIJBEQMgmOYQ1CBAgQIAAAQIEYgJCNuZlmgABAgQIECBAIImAkE1yCGsQIECAAAECBAjEBIRszMs0AQIECBAgQIBAEgEhm+QQ1iBAgAABAgQIEIgJCNmYl2kCBAgQIECAAIEkAkI2ySGsQYAAAQIECBAgEBMQsjEv0wQIECBAgAABAkkEhGySQ1iDAAECBAgQIEAgJiBkY16mCRAgQIAAAQIEkggI2SSHsAYBAgQIECBAgEBMQMjGvEwTIECAAAECBAgkERCySQ5hDQIECBAgQIAAgZiAkI15mSZAgAABAgQIEEgiIGSTHMIaBAgQIECAAAECMQEhG/MyTYAAAQIECBAgkERAyCY5hDUIECBAgAABAgRiAkI25mWaAAECBAgQIEAgiYCQTXIIaxAgQIAAAQIECMQEhGzMyzQBAgQIECBAgEASASGb5BDWIECAAAECBAgQiAkI2ZiXaQIECBAgQIAAgSQCQjbJIaxBgAABAgQIECAQExCyMS/TBAgQIECAAAECSQSEbJJDWIMAAQIECBAgQCAmIGRjXqYJECBAgAABAgSSCAjZJIewBgECBAgQIECAQExAyMa8TBMgQIAAAQIECCQRELJJDmENAgQIECBAgACBmICQjXmZJkCAAAECBAgQSCIgZJMcwhoECBAgQIAAAQIxASEb8zJNgAABAgQIECCQREDIJjmENQgQIECAAAECBGICQjbmZZoAAQIECBAgQCCJgJBNcghrECBAgAABAgQIxASEbMzLNAECBAgQIECAQBIBIZvkENYgQIAAAQIECBCICQjZmJdpAgQIECBAgACBJAJCNskhrEGAAAECBAgQIBATELIxL9MECBAgQIAAAQJJBIRskkNYgwABAgQIECBAICYgZGNepgkQIECAAAECBJIICNkkh7AGAQIECBAgQIBATEDIxrxMEyBAgAABAgQIJBEQskkOYQ0CBAgQIECAAIGYgJCNeZkmQIAAAQIECBBIIiBkkxzCGgQIECBAgAABAjEBIRvzMk2AAAECBAgQIJBEQMgmOYQ1CBAgQIAAAQIEYgJCNuZlmgABAgQIECBAIImAkE1yCNPjkuQAAAL1SURBVGsQIECAAAECBAjEBIRszMs0AQIECBAgQIBAEgEhm+QQ1iBAgAABAgQIEIgJCNmYl2kCBAgQIECAAIEkAkI2ySGsQYAAAQIECBAgEBMQsjEv0wQIECBAgAABAkkEhGySQ1iDAAECBAgQIEAgJiBkY16mCRAgQIAAAQIEkggI2SSHsAYBAgQIECBAgEBMQMjGvEwTIECAAAECBAgkERCySQ5hDQIECBAgQIAAgZiAkI15mSZAgAABAgQIEEgiIGSTHMIaBAgQIECAAAECMQEhG/MyTYAAAQIECBAgkERAyCY5hDUIECBAgAABAgRiAkI25mWaAAECBAgQIEAgiYCQTXIIaxAgQIAAAQIECMQEhGzMyzQBAgQIECBAgEASASGb5BDWIECAAAECBAgQiAkI2ZiXaQIECBAgQIAAgSQCQjbJIaxBgAABAgQIECAQExCyMS/TBAgQIECAAAECSQSEbJJDWIMAAQIECBAgQCAmIGRjXqYJECBAgAABAgSSCAjZJIewBgECBAgQIECAQExAyMa8TBMgQIAAAQIECCQRELJJDmENAgQIECBAgACBmICQjXmZJkCAAAECBAgQSCIgZJMcwhoECBAgQIAAAQIxASEb8zJNgAABAgQIECCQREDIJjmENQgQIECAAAECBGICQjbmZZoAAQIECBAgQCCJgJBNcghrECBAgAABAgQIxASEbMzLNAECBAgQIECAQBIBIZvkENYgQIAAAQIECBCICQjZmJdpAgQIECBAgACBJAJCNskhrEGAAAECBAgQIBATELIxL9MECBAgQIAAAQJJBIRskkNYgwABAgQIECBAICYgZGNepgkQIECAAAECBJIICNkkh7AGAQIECBAgQIBATEDIxrxMEyBAgAABAgQIJBEQskkOYQ0CBAgQIECAAIGYgJCNeZkmQIAAAQIECBBIIiBkkxzCGgQIECBAgAABAjEBIRvzMk2AAAECBAgQIJBEQMgmOYQ1CBAgQIAAAQIEYgJ/AWncRp8c/c/4AAAAAElFTkSuQmCC;clipPath=inset(19.43% 9.33% 20.7% 9.67%);" vertex="1" parent="1">
          <mxGeometry x="200" y="150" width="130" height="50.29" as="geometry" />
        </mxCell>
        <mxCell id="1LwYjgLk3Wemf2uPsbQc-32" value="" style="shape=image;verticalLabelPosition=bottom;labelBackgroundColor=default;verticalAlign=top;aspect=fixed;imageAspect=0;image=data:image/png,iVBORw0KGgoAAAANSUhEUgAAACoAAAAlCAYAAAA0lXuOAAAAAXNSR0IArs4c6QAAAIRlWElmTU0AKgAAAAgABQESAAMAAAABAAEAAAEaAAUAAAABAAAASgEbAAUAAAABAAAAUgEoAAMAAAABAAIAAIdpAAQAAAABAAAAWgAAAAAAAABIAAAAAQAAAEgAAAABAAOgAQADAAAAAQABAACgAgAEAAAAAQAAACqgAwAEAAAAAQAAACUAAAAApXBf2QAAAAlwSFlzAAALEwAACxMBAJqcGAAABnBJREFUWAnFWGtsFFUUvo+Z2ek+uhVaQMBEBFKJJCYaAgk/TDAqJUQDSkkkUSMBouKjJKRB/VFjFNr6oFExYnzERxCrQoiCitGfJooG4wtMIUhEsCBtd7u787r3eu5sZ7uPmdlpeHiT7czc+51zvvvdM+feKUYR24re7BSmJdsER7Mx5jiimS9MCCJg4HgS5w7seiz5jy+oqjNSwFXbjdYRW/uecZzCQsa48CYwRpSi0cmNaNGu9fjXeh7rEu34UDT8coKfBBWaBWf1/E1oHBOKMOHD06aSme/eg3NhxiRsUI4d/dPZKAQGkg48STUv3k/6FAw1nRt0HpWxwlqoog+/JxqPnBKnOGfJMCcXOkYINuak6PRXH8RDQb5CFT36l9WPCE4imZeX8oepfixr7wkiKfsDFV3xgn3TqKN8Ixw7EBPmeKJjmCpII9Ytn23Wv/KzDVTUYLhbOBaQvHg5GeZLMBsxpHb7kZR9vkSX9xqbOKELg4wuVb8g5IblveYWP/81y7ryxdyVOathgDEr7mdwSftg8YiiGmnVnNO/KX6qPFaNoibTNjPuXH6SkhXIBhVGL3CtRtUKRVf3ZecP28mfmWWUT+ay31NNR000f+PujsSPXvCSol1dQhkqxPq5Y3tj/9uVOxYaMtXd618TqkdC8W5+SFl3CAe3CiZ3oPotZ8naWh9XgYD9PaFV9Pg+uFs1oXPOZAp3AuADCXKXXsAeubTHHmSMNbuF3dd8vJOC1c51MRSPVWTOOMDnDjiivCnQutfziHHqg6jqkocWQkY+79QmY4yZu/Rt3bk3BVaBJAd0eN0UME6pQFPSBDWncN1fQkfo3r4z6ORZC02/AsLZGcSZWTeO5CKIml62NfeOnAJZ3jMyl5OG1dwalc+RmxJBFOlMVzFaPE+HiVHYjYvuHXMUeNR/F7gF6tOGlbd3G61KQo91mDm7Acm1iZB0EuVAGn95uIAatGhJuvhaHf3xt4V+OmEiy+FuKMfMIKolEaEhSQvBOLN1PYE78W1b84Jxb8mLMx7/OyaBzwQGRxiyjQwoU3lGrZ5u+bNUtAWUlQ27rwekkZYAsjGIICft9UqEJ4LMVSSUpgR5eSiHNxbPmxJQ3jxweR+4g4C9axKgaBzOkyCvZBPSJEEOrgomRz17h6CoS79F3wxSDoOo2FW22FfuTh6u0wn0llLImX2ExtfCljm2/CERx9xr8NovuU5BxTwtlTpfQ3k6fOajf9F9S9JoxiQFbf/0PCpAaSsn4wBZCpMmFN68kpLyFnCEGkbB6CH7tqQHMMvtIpAv0ZtATDKI0EzIye8GCuhcxgFVwSbAjFm5sWow7pQAeYyM/n2djUdLE1u6bXSQcdFSLFHjYL87Cmu5434dJWKljc0PNt6HpYIY5Q2O1u04jWwWwBZmQdQ4okqDm05QR4cOXLO/Bbe3s9LOFNP4hoJJPxa8/qcwg0Br+kaQY2aDBBonWXYnczsOkyupUzZWvMVIliSYF6KxRhEj5gOSpBwrEV0zM7XvjWPZI4iQedVvco0/6EjGITf1NLKtTOBy+tlFATPHABp4YOqklk88H6W1a2/HrDmB75KlInKDN1LRGiPDowKpCmlFc+07N+DSrlAiKp28/0jqNxVbzxfXRuZR/R8mBKkxSbY+NhIG8kJF1kt7n5h1WHLyWgVR2akn8s9RouY9QKQrkFVcspHQwSCYK6GKkaL5mm+nGqL9D005o1PjcRpLgcPoKrnK6qCsfBMmYFeOpXoSxYTT1f9ka8VniJxZ4AvY1p351rGdRRI0kSbg1CP38SjHxWq/qqodOth11YLqfvlco6gHUgXrxIoK8njngGhKYSxzNlU840RWFg4qRBUKNTu9+NXXQEUlcNm28/s51tu4Xai2q/sMh3FQdri4snXQRNFBMfPrg0/NvjkIGqioNJjfwlYjeWpwtz5QdAJXWdxl6XKVkAfyEFvMnfyMJiI/OwJbKNGetS1ZilkXJqV9IdBRzQDMS6YB1ZvgJjgMxnCgpuzptztmgfzBLdjDmM2CaZlXoPqclcet4jpGy1UPiyFPFVlBXGkr811WCkLJ+amJ0ZeCKRZHQnPUM767b3DuUF4/xLjd6FYfb2CCV9sckf9hcK0ERCZEzTYnxMLdnVf/Xs9VJKLSyapnT7c4WvxWh/PZ9ZwGjXMgycxhN6ZK8XHFyX6xp+v6wSB8ef9/wfItE70728EAAAAASUVORK5CYII=;" vertex="1" parent="1">
          <mxGeometry x="275.95" y="465" width="68.11" height="60" as="geometry" />
        </mxCell>
        <mxCell id="1LwYjgLk3Wemf2uPsbQc-33" value="" style="shape=image;verticalLabelPosition=bottom;labelBackgroundColor=default;verticalAlign=top;aspect=fixed;imageAspect=0;image=data:image/png,iVBORw0KGgoAAAANSUhEUgAAACoAAAAlCAYAAAA0lXuOAAAAAXNSR0IArs4c6QAAAIRlWElmTU0AKgAAAAgABQESAAMAAAABAAEAAAEaAAUAAAABAAAASgEbAAUAAAABAAAAUgEoAAMAAAABAAIAAIdpAAQAAAABAAAAWgAAAAAAAABIAAAAAQAAAEgAAAABAAOgAQADAAAAAQABAACgAgAEAAAAAQAAACqgAwAEAAAAAQAAACUAAAAApXBf2QAAAAlwSFlzAAALEwAACxMBAJqcGAAABnBJREFUWAnFWGtsFFUUvo+Z2ek+uhVaQMBEBFKJJCYaAgk/TDAqJUQDSkkkUSMBouKjJKRB/VFjFNr6oFExYnzERxCrQoiCitGfJooG4wtMIUhEsCBtd7u787r3eu5sZ7uPmdlpeHiT7czc+51zvvvdM+feKUYR24re7BSmJdsER7Mx5jiimS9MCCJg4HgS5w7seiz5jy+oqjNSwFXbjdYRW/uecZzCQsa48CYwRpSi0cmNaNGu9fjXeh7rEu34UDT8coKfBBWaBWf1/E1oHBOKMOHD06aSme/eg3NhxiRsUI4d/dPZKAQGkg48STUv3k/6FAw1nRt0HpWxwlqoog+/JxqPnBKnOGfJMCcXOkYINuak6PRXH8RDQb5CFT36l9WPCE4imZeX8oepfixr7wkiKfsDFV3xgn3TqKN8Ixw7EBPmeKJjmCpII9Ytn23Wv/KzDVTUYLhbOBaQvHg5GeZLMBsxpHb7kZR9vkSX9xqbOKELg4wuVb8g5IblveYWP/81y7ryxdyVOathgDEr7mdwSftg8YiiGmnVnNO/KX6qPFaNoibTNjPuXH6SkhXIBhVGL3CtRtUKRVf3ZecP28mfmWWUT+ay31NNR000f+PujsSPXvCSol1dQhkqxPq5Y3tj/9uVOxYaMtXd618TqkdC8W5+SFl3CAe3CiZ3oPotZ8naWh9XgYD9PaFV9Pg+uFs1oXPOZAp3AuADCXKXXsAeubTHHmSMNbuF3dd8vJOC1c51MRSPVWTOOMDnDjiivCnQutfziHHqg6jqkocWQkY+79QmY4yZu/Rt3bk3BVaBJAd0eN0UME6pQFPSBDWncN1fQkfo3r4z6ORZC02/AsLZGcSZWTeO5CKIml62NfeOnAJZ3jMyl5OG1dwalc+RmxJBFOlMVzFaPE+HiVHYjYvuHXMUeNR/F7gF6tOGlbd3G61KQo91mDm7Acm1iZB0EuVAGn95uIAatGhJuvhaHf3xt4V+OmEiy+FuKMfMIKolEaEhSQvBOLN1PYE78W1b84Jxb8mLMx7/OyaBzwQGRxiyjQwoU3lGrZ5u+bNUtAWUlQ27rwekkZYAsjGIICft9UqEJ4LMVSSUpgR5eSiHNxbPmxJQ3jxweR+4g4C9axKgaBzOkyCvZBPSJEEOrgomRz17h6CoS79F3wxSDoOo2FW22FfuTh6u0wn0llLImX2ExtfCljm2/CERx9xr8NovuU5BxTwtlTpfQ3k6fOajf9F9S9JoxiQFbf/0PCpAaSsn4wBZCpMmFN68kpLyFnCEGkbB6CH7tqQHMMvtIpAv0ZtATDKI0EzIye8GCuhcxgFVwSbAjFm5sWow7pQAeYyM/n2djUdLE1u6bXSQcdFSLFHjYL87Cmu5434dJWKljc0PNt6HpYIY5Q2O1u04jWwWwBZmQdQ4okqDm05QR4cOXLO/Bbe3s9LOFNP4hoJJPxa8/qcwg0Br+kaQY2aDBBonWXYnczsOkyupUzZWvMVIliSYF6KxRhEj5gOSpBwrEV0zM7XvjWPZI4iQedVvco0/6EjGITf1NLKtTOBy+tlFATPHABp4YOqklk88H6W1a2/HrDmB75KlInKDN1LRGiPDowKpCmlFc+07N+DSrlAiKp28/0jqNxVbzxfXRuZR/R8mBKkxSbY+NhIG8kJF1kt7n5h1WHLyWgVR2akn8s9RouY9QKQrkFVcspHQwSCYK6GKkaL5mm+nGqL9D005o1PjcRpLgcPoKrnK6qCsfBMmYFeOpXoSxYTT1f9ka8VniJxZ4AvY1p351rGdRRI0kSbg1CP38SjHxWq/qqodOth11YLqfvlco6gHUgXrxIoK8njngGhKYSxzNlU840RWFg4qRBUKNTu9+NXXQEUlcNm28/s51tu4Xai2q/sMh3FQdri4snXQRNFBMfPrg0/NvjkIGqioNJjfwlYjeWpwtz5QdAJXWdxl6XKVkAfyEFvMnfyMJiI/OwJbKNGetS1ZilkXJqV9IdBRzQDMS6YB1ZvgJjgMxnCgpuzptztmgfzBLdjDmM2CaZlXoPqclcet4jpGy1UPiyFPFVlBXGkr811WCkLJ+amJ0ZeCKRZHQnPUM767b3DuUF4/xLjd6FYfb2CCV9sckf9hcK0ERCZEzTYnxMLdnVf/Xs9VJKLSyapnT7c4WvxWh/PZ9ZwGjXMgycxhN6ZK8XHFyX6xp+v6wSB8ef9/wfItE70728EAAAAASUVORK5CYII=;" vertex="1" parent="1">
          <mxGeometry x="475.94" y="465" width="68.11" height="60" as="geometry" />
        </mxCell>
        <mxCell id="1LwYjgLk3Wemf2uPsbQc-35" value="" style="shape=image;verticalLabelPosition=bottom;labelBackgroundColor=default;verticalAlign=top;aspect=fixed;imageAspect=0;image=data:image/png,iVBORw0KGgoAAAANSUhEUgAAACkAAAAlCAYAAADfosCNAAAAAXNSR0IArs4c6QAAAIRlWElmTU0AKgAAAAgABQESAAMAAAABAAEAAAEaAAUAAAABAAAASgEbAAUAAAABAAAAUgEoAAMAAAABAAIAAIdpAAQAAAABAAAAWgAAAAAAAABIAAAAAQAAAEgAAAABAAOgAQADAAAAAQABAACgAgAEAAAAAQAAACmgAwAEAAAAAQAAACUAAAAA9uoEXQAAAAlwSFlzAAALEwAACxMBAJqcGAAACDJJREFUWAm9WAtsFMcZ/mdmd2/vzmcb2wHb4CqGgOxaqdpEQQRRRU1VtVA5oS+i8OhDUYkElRoLUtJYUd1WTYA4TZpULThQVW15FNOgmERCkCgRaUraqCJJgRZXJVVLsHGIX+e72/f0//d8Pp9vb32OQsda7+zM/8//zTf/Y2wGZbYvPWEsc5XIapBQB+CVqVVCjPFrIM0TfQ/oF0tIFAyzgq8SH+3dziYTRI/rgs6kLCFV/rBkDIQAUxewpa+D/Wo2zVlBbtwrG66OwxXPcWdba87zQhNQo8PHDm9l/w1T5mGTUko2NOoekv7pEoMf7ePZEoYnnMNdXTIUR+jk3U/at3qMrZKeE7aXDz0npYvb5iv+mrCXhy2ihE2aFhxA9gR8BH5Yyo70JDcdOITzzaVkSjK5ptvqkKq6DDwPyHGv1wPoS0xRb1y9y95RCmRg4Gx6fDA+BPP7XctqBIzE697wpBRNG0zE2NLerWxipr1AJodlzY8xZv4/AAkREuFJVp9K27tmAvSnZw5+5afJtpSsOOeY5syp6/6t6BGIytQnj22reHu6sSIm00700bkC9DAzGTZAZvJJWwDOhyhKjmGC4eqPTgdI/QKH++rP0ivHrejrnm3MlAv8tjAzxSMAd9+qwPIlHBqqGSgCYCQl4e9XJLx41oHzlyXEUKbcBCE0HRLC+MzRjuirOaNTIPfulerREXsAV6uV2eydkwl8k9HWhRye2KCBhonMdiRgKgEXadVVhmPMj7mDf3Jgz8sOREKTXd4EY3i4nI+23KzUP7OG+T43pXo8ad4HjNdKb/byZ+Kx3obMPb5eA47b7DmVhBNvpWF0wgUXwcc0Bm1NGmy7qxrWr1SgqYbBI0ctfzOzMUoJHrdXfemcuRmhP0PwfZ/E8idsR+yUDlJRRuWrrQBkMOID3P7rYdj/0hiMJF1KqcBQP2NK+HO/AV/rHoRLV234dIuAO1s8MCycLGN9wuF4/LEj56U2BXL1rtRByUVVOSu4SMU371BJF3YdG4E//iMNUWSOnC5juTBhEBMSBG5f4PB3et73cT385RhoMuXrlWMH8cT3Pz/xe1Lg7d3jLZLF1npWenKB8Bddhm65kUPK8ODldzJZgKhiok/e99lK2P31OkhZ2dCmOjA07sLB00lQ0C9uW8LAtYpydaBBz8qAJ2JfbN+ZbOO6qnW4rqFl4zz8LNAtIK5JjGIO7w07kDY9P1CIPQqYBdUCmhco/rHn2IpHGPzlnxkfSOsiDVzHnAY0xB4djmuq0Zj2PT6e9jZT/cwtOvONsgVzEYxcSjOjKQ+rhIRljSr0PdwItQnuHyv9ouOmgKKH2JwwJMpSQJEM9t2ZQLM28rYmbSKusZS9iVfF2B6GK5FA0EOgp8axYyB7lGrmVykIQvqppXGegsc5uReUIVZ/sqEOnt0yH1zXg5oK4QMeS7t+pNJ6yBJ4dgrXpp+sjbytSZuIqyomfsMNw35KCM0KYzPHLi2WwYvq5Q88qMejrY5xSGay/keukG+UwBm8i5E9lvbgzpuj/tTf/mMis/kj9hwDHCs5qZYf9+0hi1yotmk7u3nfjsqLTKaf41osbyOkR4n79YsO6BjR61Yl4Bwa3ndqFFR0AU55GGkipl67kIbv/+59+NTiCKy+Je67x5uTvjl9eela4CKjWa38DOHh0ux7fnviAq0HR45Isf/d9DXPcarzYuG9P3QkIBFl0HNyFH55YgT7HP1T84/2jf6Mnyub6hR4dmsDVMc5bP7FIPQPWFm3CFiaCw2EhgkYT4saF8rE7Yv/Xdu1rs3C/QP09v5Qtn2hc8SVon0yNGm4ZEM3g1fO2/C5T2iwsiUKrYsicG3MhSsY8QP4NMxTYe2KCtj9jQV47BzZZf7cW5cMPxUFLez/iYIuw7mKhU8BjTvbeu5vOkOyPpPU6XpFKmfeSA6gK9SVW7sTOib0DTosbYj40etgTSTXpESuYCan/iMHh+CB9hqoq1Tg0Gtj8PTxYT+3Zvkiy4WNKzqoesXI7Usq6rvWMbxPTQNJH/c8PbZiLKOfce1sXqOxsEZpxcKr0PJmF1Z9XIfGGhV9k6H/uXAWWTv1dgpGsJ43zBPQs2Uh3FAl4MDpMdhzYrgko0KNQpXO73juofmnc7anmMwNrNmdOmZb1trcd1lvpCyTGgGqRgQc//AHDcFSjqRGY/Tdu6MJLg3a8N19A36uzc4W/tbUyAsnuxa2Tx+dugXlBuN8vHMiUrfWMcsrX74eXq/0eBU45njO73PL+W+KeCqbG5+8DOOYssgdgpqIVIAuJjpnzhWJ925vuKDIZDdX8KbqRxp5z2wP/sWHQNVIJTpQsKzgEuu9i5cOTNQBMlzBe6mb/nlf5+J3ZgVJAg1V837AuHzP9/yZGmHfCFTREOhcmx/VMFBXoT8UpFrEJAn13M/SqpPuFnoubwWzE8Qw4wKjs3LSH8vTE1ocDyD91G8frM/d5QqwFgXO9Nk1O0cv4H/SWum2PNdGacwxRlEt1ITvJpyzf730o+abStkIZDInjBebjZhZ8R82mL0p6c3hIR9VtNw9upQu+bJwdU2uz9kMeoeCPPxg1VkGzmnG/Vt8kH7pMdwQw2JOR591i2JRxvCGL50zxzub3yyezY+EgsQrnFx0g30vkoKtPP8qkiNGCWhgRAuoT3j3kp08pOJeKEgS3/ftBVc1BS+easygI5z7w7Aea8hoNTIrfH3s4GUiamjM+taBHUsvF8MqHAn36mmydz02dJPQIp+3Ha8OK0nozqepFXYdC2w7zbCuf6A6mZPHulr7CwWCv/4H9eDo0AGmIREAAAAASUVORK5CYII=;" vertex="1" parent="1">
          <mxGeometry x="900" y="303.25" width="92.53" height="83.5" as="geometry" />
        </mxCell>
        <mxCell id="1LwYjgLk3Wemf2uPsbQc-36" value="" style="shape=image;verticalLabelPosition=bottom;labelBackgroundColor=default;verticalAlign=top;aspect=fixed;imageAspect=0;image=data:image/png,iVBORw0KGgoAAAANSUhEUgAAAZAAAAFlCAYAAADF4L5mAAAAAXNSR0IArs4c6QAAIABJREFUeF7svQeYplV5//895SlvnbZ9WTpIKGLhZwtqQJEIrojKJogiCIIlS5Ol67LSQUBAEFBAUNAsKFZsRGJUItEETaQ3ge0zO+VtTzvlf93nXRKTv7izAwszO+flmmuXnaec53POPN+5z90Y/McT8AQ8AU/AE5gAATaBc/wpnoAn4Al4Ap4AvID4ReAJeAKegCcwIQJeQCaEzZ/kCXgCnoAn4AXErwFPwBPwBDyBCRHwAjIhbP4kT8AT8AQ8AS8gfg14Ap6AJ+AJTIiAF5AJYfMneQKegCfgCXgB8WvAE/AEPAFPYEIEvIBMCJs/yRPwBDwBT8ALiF8DnoAn4Al4AhMi4AVkQtj8SZ6AJ+AJeAJeQPwa8AQ8AU/AE5gQAS8gE8LmT/IEPAFPwBPwAuLXgCfgCXgCnsCECHgBmRA2f5In4Al4Ap6AFxC/BjwBT8AT8AQmRMALyISw+ZM8AU/AE/AEvID4NeAJeAKegCcwIQJeQCaEzZ/kCXgCnoAn4AXErwFPwBPwBDyBCRHwAjIhbP4kT8AT8AQ8AS8gfg14Ap6AJ+AJTIiAF5AJYfMneQKegCfgCXgB8WvAE/AEPAFPYEIEvIBMCJs/yRPwBDwBT8ALiF8DnoAn4Al4AhMi4AVkQtj8SZ6AJ+AJeAJeQPwa8AQ8AU/AE5gQAS8gE8LmT/IEPAFPwBPwAuLXgCfgCXgCnsCECHgBmRA2f5In4Al4Ap6AFxC/BjwBT8AT8AQmRMALyISw+ZM8AU/AE/AEvID4NeAJeAKegCcwIQJeQCaEzZ/kCXgCnoAn4AXErwFPwBPwBDyBCRHwAjIhbP4kT8AT8AQ8AS8gfg14Ap6AJ+AJTIiAF5AJYfMneQKegCfgCXgB8WvAE/AEPAFPYEIEvIBMCJs/yRPwBDwBT8ALiF8DnoAn4Al4AhMi4AVkQtj8SZ6AJ+AJeAJeQPwa8AQ8AU/AE5gQAS8gE8LmT/IEPAFPwBPwAuLXgCfwJwSWL18uRka25/RPfX1PmkWLFmkPyBPwBP48AS8gfmVMawI3fv3fFkS12q6lOH5FnucDDIjSPBdBEFhrVFaorFmuRqPDwyOro8j8sZIHjy9a9KZkWkPzD+8JbCDgBcQvhWlJ4LrbfjsjKgVvrc+e8/dMBm/ikAOMschawFoLxuhHw8JCW2t1DqMbRZ482EmbPx0ZXP3PvZXggSMP3md0WsLzD+0JeAHxa2A6EnBbVOH2e0le+UC52nuQLJe2geBgTACWw9o//Z3KOEQy4NB5hqTTRlyShTHFwyPr1/+U6Xx5X/7kb/0213RcSf6ZiYC3QPw6mDYErrzxrpm2Wtu7pz77sHptxjvCqFzraA3SjP8Wjg0CwjmJCkNRFAikAGCQpx1wDgjJofJCRUz/R2N0zU05xu44duE+Q9MGpH9QT8BbIH4NTCcCn1/+s1fUqv2HybD2nv6BubsbzZgyFlyGMBYwxrgvoCsczwkICUeapu7/ozgEHZznqTs2DhhEkYwUaeMOlbY/9/cHvurR6cTUP6sn4C0Qvwa2eAJXf+Pnf1UdmH1kXO75YKnSM7fIDfLMoFStQpEFYpnze9DX//0IITYIC8AEdwICzty/ZZ0WStZgoFZRw8PrfpClrSWHLdz1sS0eqH9AT8BbIH4NTAcC133jVztUZ80+jsvqYYrJgWql7qwM0gopBTqdxFkcz1kdZGmQ85x2d0lQ3BZWGDqRKbRCkWtIKVGqBmAU4NsuoNMOquUQxiTfGFrz1Ekfet9eq6cDW/+MnoC3QPwa2GIJ3Pytuwd4dcGxQVw/JYh7eiwPUBQa1WqEJMnBGYPzbtD2lS5gjE7I7cEFDGdScMaCwuiYc4ms0AijGExIaGUBwaBTjQodrHIIZiCFStN0/fnFutZFixbtnm+xYP2DeQLeAvFrYEsmsHTpUr7d/zvoXdXeuZcGce+OrVShXKlCazgfRqUcQ+ckIpqc42vazdYv0qT1X8aodeBGCR6UuWB9camyTblSfVWu7I5cRHURRGA8cJFZRQZI4+wZRCFDpz2GIMgfaY48u+gD73ztf27JfP2zeQJEwFsgfh1skQS+uPyf5g/0L/hMVJt5jEYEiwCFthCiu11lVAYpLPL2WJMh+9bQ4LqbdTv/Q1SUR489dq/CWsuu+uEPQz4YVqNqdSce1d9Qq/e+DzJ+falcD5rtBHFUgQCDLgxkAORpE2ForMkbZ+Wr/u1zixYt8lbIFrm6/EM9R8ALiF8LWxwBevl/5Zv3vbNnxlbXiri+QLMQFgLKGHABt22lVQ4JBVs07hlet/KLOl7/g2MXLuw8H4zrvvfbsmpne8+Yu/UxyrADStW+EqwEuUFIkMifovIOpFSA7vy7StYd+v63vto71Le41eUf6E8JeAHx62GLI3DD1385b2D2/M/E1YFjU81gRTdUV8OAuy8GphWMaj+eNFZfAJ7f8cED3tAYD4hrl/9yv9lbbf8JjeA9hkkwEYHLAIxZaJMBVkGatG3Sxgnve8srvjyea/pjPIGpSsALyFSdOT/u5yWw/HsP7N03c8EtqWbbKc5hyfENDUYlSuwGETFAkYzdVjRWnnnowW/843hxLr3nHjlzbXjgvAXbn5sZtntQrnevr7UTJ0b3MSl0MnpTliSLD99/z/Z4r+2P8wSmGgEvIFNtxvx4/yKBu+56LLJR5Ugjy1chLMnCarCQozAFBNW2Mtr5LSREK20MnWxHf3PTpvoqrlv+056wMufEev/sMwsRSisjF/Lrkg9hIEwOoTr3rlvx+PuPfd9bfEivX7NbLAEvIFvs1E7PB7vzzvt7TXn2hX0z5x7bTBUUJWsEcNtLklvoQiFgHKGMnh0bXHX4oe/c6Z8nQuqab/zynXO33vHaNgu2tmHZ5YaQiJhCQdocVYmHBlc+fNCRC9/g/SATAezPmRIEvIBMiWnygxwvgVu+9ftZc+buchOT4QFjiQJCCxZaFKrjoq5MXiBkAqWo8u9jq1ccvuiAnR4c77X/9LirvvbzPbbb5ZVfbhrxuoJLhEHJJR0qpRBag2pgnhpZ9eTCI979qgcmcn1/jicwFQh4AZkKs+THOG4Ct932X7Pn7Lj711KFt6fGQkkFEWrkmgSEwWQFJA9Qj2rfHln5yMcXHbj7mnFf/E8OvOH7/7Z9rWfetbzcv1+nsJBh2YkHfUIoxLx4emjNU+86+l17/mEi1/fneAJTgYAXkKkwS36M4yawfPkf+mfvuOuNzQ47yEggFzlYoKFQIEkSlIMysiQdKYXhNUY3z1v0pgUTag51wx3/tn119vxrRNy/f1ZwhCUKFQbanQTVWCJE+sTgisf+9uiDXvv4uAfvD/QEphgBLyBTbML8cP8ygeXL7y3Vt9rtAi1qx3cKAxspdPIElhn01HrRaXbAof4A3VrygTcv+NFEeV737Xv3mD3vFdflNn4jl2WXD9Kt5mvAbYrAdP4ja4wsPPQdu6ya6D38eZ7AZCfgBWSyz5Af3yYT+N4vVx0mS3OuaxaoWM4AScl+wNhoC5WIt7hNvrpu7PHTjhtn7sefG8B1d9z3ntlb73i1YuV5FMBLZeG1KaCLFPVKBJuOfqsx+NSR480v2eSH9Cd4ApOAgBeQSTAJfggvLoGbvnf/Tv2zdrmtlWMvHsVIsgxREAEm19IWdzfGnjn7owfs+uuJ3vVLt/16dn3unCWi1HOCiMsiLyyYFNC6QJY0MbOvnI+sWXHGY7/Y5fJly1i3raH/eAJbIAEvIFvgpE73R6JckKx/1scKFi5tZUVfHMcQzHZU3v4lWq3zDtt/63+ZKKNbfvzjSmOkZ+G8bXY6zbJwTy0YEAjkeY5QcEhpEDD9SGPN039/2Dte/buJ3sef5wlMBQJeQKbCLG3BYzzm7O+VK/UgtgkiLY2wKIxKtCpZpcbKUbGgU0+WLdunG960CZ8vfff328U9s65ggXx9HEUdrYufrlv99PWLD3rNbzfhMv/r0OXLl4fD2Pqtc7ba/uNMVBZm1BqkEkJZ5Sr8ShhYlUJ1Rq+PbHLKov32Gpvovfx5nsBUIOAFZCrM0hYyxkOWLxfznyhvE8e1bTXC7bUJd2JhaRsw0W+ZiGEtt9YaBa25NSmDahVJ6xkg/Z3Kxh6PRfrkFWd+YO14cdz449+9q1Qp7auyfNXqwXV3nvL3b3tivOf+3+M+f9vdswWLXz9z1jZH8qCynwjKFRaEyE3mstyjgLlERejOkM4bRx7ypp2/P9F7+fM8galCwAvIVJmpKTzOpUvvkc263S2Ie14nw573aRPtEYU9c8aaCdfUj9zabhQTZXKzbnVb+qImTdSvI5I2DVjxNEz6L42hVXdxlT1YzFvx1PXHHltsDMsN3/ll7SPv/usWo2qH4/zcdOc9vc2RJGAlGTBWqmrG5ldr/fvXagMHcBbtEZaqoJq+mTIwKCBCBq1SMJ2hHJgfPP3EQ0d/ctE+E8ovGecQ/WGewKQg4AVkUkzDljmIpUuXh8P12btpVtkfIjqIseqexpZKRgcwKgCJB5PWhdhSnXXyNlvWrZfb7U9uwGzhChSGQiNkml7SiVXpk8ZmPxes8488HLvvquMOyF4Mgl+4+Rc71/p73iWD6FWtNI1LlWpJBMG8MK7NZ4zPNoZqXUlE5JjvKMSxRFrkkAFDnjZQr4R/bI2sPfXv9t1p+YsxHn8NT2CyE/ACMtlnaIqOb/GVv9hThDP2U4gPy22wW6FFQKJhjQQ3ATgPnZVR2BSaGfd3EhHryhFyJyROQJxfQQGWiiGSmFAtK4swEAhD9UCeDN6YtVfe9ZUzFj48UVRUYXebsTlv6x+YdTS42LeddPpL5SoUs6AOhM12BzIIUC1XUWQKQSBBmpemOYS0EFxTE8O2KdrXFemqz3rfx0Rnwp831Qh4AZlqMzbJx/vxC77fF5S33T/R5RNUUN1LsUBo6psB4arVcsvBLAOz1AiWiqx3k/zo+4bRv/ENfz63NC3gyrDTblW3XDrJjOBwL24pNLhu/0d7aMVVYT743RuWLRreFESXLb+3NKO2/UEDAzNPa7VbewZhCM0BZQ3dwHUxrNZLdGvkaUH7bJCwkK4XeoEsayOOZBJJfKu1dt2pixa+YuWm3N8f6wlMZQJeQKby7E2ysX/8gu9vXyrvcLgOZx7VNvFWox0DLaXLkSCLQUqOgCwNo2GVhUUBMAVD7gnrbA1Qh/Fux47/WZpknXBOvhE6TkNr5ZL2oBVUkbrqt1sNVFeiteYGo1Zec8UJB43L0b50+fJwt4G3HhVXZ5yYZcVO2lpUajFyDWS0NRWHoH+TEUPWyd2963EJeaftRCSUggRseGRk3S2mNXbJoQe9xmedT7I16YezeQl4Adm8fKfN1T954c92y3Tlk5WB7T441pG1xISIqhXkFlBkYTgLQrstKGc9kEVCNojZEKH73wJCyMgK+R90bnuL5IWsAsosd94SuO0tEiXkKUyrgbJJ1s6t5p8/55NvuHA84O+456kP83jmiRbhnlSGhEvh6mWxQKJcLSE3Fjl1LjTKiUXIGXTSRsQ4IsGRtIYfT5PGdXnauenD7339+vHc0x/jCWxJBLyAbEmz+TI9y7GX/mxPxvpONKznkFYalgteRq2nD2NpgbAcQJF42AzG5M6uENRDnAkwRttAFH9F/o4/FYxuwBQJh7bkH9kQQEV/0jYYmSNORrSLfkpbLdQony9vrJhbzi4+//g3XrUxFFcvv6c6f8Fux2tWOcxYvkue5ywMA4iQnPsGhdJIihy1vjrStAOrCicaLM9QkuzZzujwT4qkc+Ngntx/0qI3Tagg48bG6L/vCUx2Al5AJvsMTfLxfeLye17VUrUzhawvVCaOotIANKP8CAMrGQqdAuRkJiuE8iSsdD4QbqX7u1XdJfichJBYOH/6BtGg3/65cGrizreM0W6XayGb6wJGpYDO0RdFY/1x8Z3mqvvPuuas9zw7HmzXf/8P+8+au/X+ucarAy63StPOQK5VX6VWhQwijDQbzg/CuLUhF61yyNeNrVl1r+2kd4S8uPcDC/caGs99/DGewJZKwAvIljqzL8FznXbZj3ZsBHMuLsTAe7QJWautUK3NAJMh2mkCHtFWFEXYariwJdIBisKyYoOQCEBx5yR336MtKheR1bU+3LaV+7t1Yb1da0RACNH9f52Bywzl0IyFRWt5MvjkBV/+9P5PbcqjX7f8tz2yHA6EQTBHG2xT76vvkmkzVykTBeUSmU5jrebYWlMUK3XaeTA2raeOPHif0U25hz/WE9hSCXgB2VJndjM/18mX/HhWEcw+qcXqSzSrcC5icBaTa9n5L7oejwLKphChhVK5i1wqRRVocozkDFZbSIqwIqe6SyJ8LpyXYq2sSyxkotsqVvAARaFQjstQuYLVdESKKM7TWrlxe7HuwaVfWPLuTRKPP4fouut+G5RK68Oip8KDuGb0qmF9xBF/k21KIuJmRu8v7wlMGgJeQCbNVEydgRyx9J5YlupHyfLA0txWZloeubwOyyg2iYJsAU39xynCijK1pYWUAq1GExEPEIkQrUYbfeUqTJq60Fzn1qAtKm5BZ+XKQGkLZcgPAlTKPYjDCFknQ9pqo1YpoxQVY3HcuLU5/OBl159ywPOWKTn+vNtmc1vIy8/6sA+xnTrLzI90ChDwAjIFJmmyDfFTV/1u/0YWXclLM3bOVQzGI7i+G5RJjm7U1XNiQFtS5IQOBEe9VEHWaSNgHDrNEViLWPA2s2rEmGxEMz2srWprY6AMqgXYbGPF/LhUrRpNfhHmIrdCTrkkxTrOhm/Ik0euvf60Rc88H6PDz/7p3iKIT+yvhW3bXn/5ZacfcP9k4+nH4wlMVQJeQKbqzL1M4/7U5/5lV1S3vqip+LuaHSrr0Q/LAjCuYRn5KSivY0O4LTm/6cVP+eWUu5ElKElAmKzorVUeGVm38i7badxnrVohWLYehncMMqOCjKUqDDIl+rks7zpv7jZHac1fnyVptV4rgdv8988+/fhFA/32R188/V0jz4fig+ff/eb6zN3OGxlL31wPWSsbeebyWl/rvBer9MnLNAX+tp7ApCHgBWTSTMXkH8gx1/02KHeC44OeBWeva+YVK6qAjZxjG7TxxJTze3Qd3xSmyxCyAGm7hRIlAqoOKqEeKtLBO5J06DahGw9sLHOcCjGuQGPbMB54O2P2bTpPV+Tt0dtbsf3t7csW5c9H7bBz73oD6/+rixtZ9c1gIcowCPXQvcW63x/z9Yve/8Dkp+1H6AlMfgJeQCb/HE2aEZ562b17FKVtvjLYMq9BuQedXKMSVtz4GDfO8nCFEWkrywgIw2EKhZhbBCaDsK0nmRq8oj342B03XnzoJmdtL176tXrG2ur6s4/t/CUoHzz922+WC3Y/tcl6D0xsFWmuUeVAD2slavgPn6zNefxr46nkO2nA+4F4ApOUgBeQSToxk21YS5cu5WLro45Z1Qyv7KAUmEoF7Q5ZFOSXoLLmcBFTzhqhOleaQrEsKkEAmzYQ6MaTtlh7QZA+e8fnlx28WcJgaYwrzF+/UfRte/oY7zmwwSPkMkQYhrDtJubVGUrp6p+lax86/oaz3/uHycbYj8cTmGoEvIBMtRl7mcZ76oW/3E0O7HhFQ/e8bU0rh45CiAgITMdVygULwMkXIkpg3WqEYEUBoQrUwvzxiI2d3xp65vZrlu3T2hyPsHjxlVEwd6/98mDBx1usfEBeqqJhNVgcIM8TlAMO1lmPBTU0s6EnTrj2lH1v3Bzj8Nf0BKYTAS8g02m2X8CznnHNf34gw5wrR4vSQB5UMaY6iCsc0jbBdA5rI4BHgI1hCwOhLSLQ9lU6xpJ15+Zm1ZeuP22/zdbi9ePn/OLttb5XXLq+Fb8yD8pQgaWhQHONokgQUQIijdm0UJfJLWOjD5180xmLBl8AEn+qJzDtCXgBmfZLYOMAll5+T68qL7jEBPOPfnp9joRexlWqG6XBVAMcCjARLCUSmgAoqPmTQYmnkGroDjRXnXz1WW97euN3mtgRh33223vMmPHqS1rt8v6JrkHGEWRMyYwayiQuiTEKYsSSgRcNCDv8QHv0sQ/ccuZB/zmxO/qzPAFPgAh4AfHrYKMEllx81w49c17/j0+uzl5bBHWYOEbCcoDlCJBDMOriUYK2gSvTzk2BWGaoyuQx3XnmpKtPePNm7Q/+t6ff8eHtt9/7qmYrrGlbgxASQhpIAQjBkOcKeUZjVBCsg56aGouDwUMv+vArf7jRh/cHeAKewPMS8ALiF8dGCXzqc794balnlztH0nhB23KkdEZEhkaKkCrrumqHMYwBqCy6tClKoo0yG7lCDz903lWbeavoiCt+/SHDZ1+V5qUeJnoQyQjM5ihFAnmqEYURqKmhodLyqoUobKDVfOwTRbLuhr8UCrxRMP4AT2CaE/ACMs0XwHge/5Qr/uNtVm51Z8eUahkTaOscPKJf7+EsDoHQlTAh8WCwCFgHoR1eLcyao764eO/N/lv+Iefcte+87V5706q12dYQVZRLdTCTQlA+IwIEMkRKRXs19a1K0FMzkHzwinzN/edcfcZ7fR+P8SwCf4wn8GcIeAHxy2KjBM656an3JHrW7c+sGZOVGX1QsMhcmXbhfB6MSRhLxRENBFcIeQKu1v6Tzf941A0nH7jZfB/PDfxD5/x4uzk77PmFoQY/oJNzyJAiwTJIRh0QQzdGbaQ7vFAZoiBFbyX9QTb0+8VfWLJp1Xs3Cssf4AlMIwJeQKbRZE/0UZdc+cjhPJp3czNjrvp6Si/nKECuqcMgRV8FTkCoOVRXQNpWFOsuj4efWXbVsgMaE73veM879cKf9oxV5p6GeM5pw4kBFyE4UyhFAXWhRZEbCFGFocKMeYqA55jdJ36TDv/+6CtOeIt3pI8XtD/OE/g/BLyA+CXxFwlQcp6Zf9THOqbv6qGxFEEpcJV26cNlAKUFuAhc+XWKdqKkwpAnqSgGPz06/MCVL4WPYenS5WFr/ms/nsrezw+1DURUAoeGUYXrXqi1hQgryDINrjXqEcecuny4sfI3R1yx5M33+SXgCXgCEyPgBWRi3KbNWYcsXy62G9t7cYb65UNjCTgVQwwDhCIAVch1Xc5NAUpAN8wiS3P0VERqWitPbs5/+NrbFy2inrWb9UM1uirhwFFNVf1iI6Pe5iXnSKeuhZQhn+kCigsElBXfKVCTBvOq7InO6vs//PlT3vKrzTo4f3FPYAsm4AVkC57cF+PRSEBmPPvKxaI27/JGUoAFsusst9SbnLoLUtK5AqSlDuXI8xw95TA3nTUnN+c+cM1LJSCC9X7MhANXNhKNlBLjrUQcl0Gl4TWF8jLlijvy3KKKHFvX5ePF8O8/dPFxe//6xeDkr+EJTEcCXkCm46xv4jOfcu1TRzZ17cahRo5yT831J6eQXRIR4XazDIzQ0LaAUgo9FWlMe+1Zo8MPXPpSbGGdeNm9pUbcd0Ji6+enWiIu1Z3vQ8oQWZ4DoURqcxfHW4JArDPMCNPfJWv//chrzjzwd5uIwx/uCXgCGwh4AfFLYaMEjv/879/NK9suXzOaRWG1jtzobql2GQE5JedZJyBKZa79bDW2EMnQRY3s6XO+umT/9kZv8AIPOPz8uwdmbbPnOYMtfHx9O0cUVmAUc0UUqS2uiENnhWRZApYW6A01tqqbn3TWPvDJy0/a5/EXeHt/uicwbQl4AZm2Uz/+B//o+f/y1p7Ze3xrbcP2s1INOazr+SHBESoLSRYJV8hVBk4lTIRGaEa+mbef/MS1S/ZfN/47TezIw86/a9e++Xt9caQj3pJoAxlQGK9ApRwjKwySIgcob4WcNmmKmRWGcj74pZHV93/mK8sWrZnYXf1ZnoAn4AXEr4GNElh86c9fHVZ3/s7qBluAUi9MEEFzA240ylqCOqGTu1obyr0AuGlTJvoj+dizh157+ls3ewvZj15238GlmTtfvXq0mJsZOAuEKgI7KymO0Oi0gYDTThZM0sbsKkey9tFTS7Vnr7nmk4s2S3XgjUL1B3gCWwABLyBbwCRu7kc44YLvbx/N3POO4bTy6pYtoWMFbGhRCkLEmYI0FI1lYa2C5IDJmqjHqmE6qz7W32zdvmzZPmpzjfGT539rYITPOa02a5eTx3KOJNcI4zJiFoEZhlwrGG5AA7M2RWd4ELNrbDTMnz362hPe8s3NNS5/XU9gOhDwAjIdZvkFPuNpF3y/L69t+4U2Zn4gE/3oQCLhOQQsKhSAZQBrnW8dAQPyzhh6Kgw2WXezaa4495plf7vZ/AwfveBHb6/O2+2a1SPYyUR1GC7AeQihumVWyAqh6LAMOeIQkEUHPWHyyNjq+z9062fe95sXiMaf7glMawJeQKb19I//4T/1+V9/QtZ3unhtEldGCwuUIyidoaqBaENIrxMRyk63BUKWIRLZyrzx7JlJlv7jV5bt42owvpifJRffuUM4sPOZ67LwyGZRQyFiQAYu+kpqBlsoSBE634ziCoIXKLEEsR76YbbqwWNvOu/QZ1/M8fhreQLTjYAXkOk24xN83pMvv/uNvLrztQ3V88oWK6HNDSIqFdJpISYBYTEYeda1gTUFhM0heYaIdf5dt1af8oXT3nQPGOumsL9In8UX/uTYsG/rC0dV2Nu2dWhRgiHnPtXAsgJMWai8oIqKECWOtD2EuQNlZCOPXlgvHj/3c0sO3+wRYi/So/rLeAKTkoAXkEk5LZNvUKdfedfMuGeXJcNpz5Jnx3LIvh4kWYqyYAjAIVkMbmV3L4vK3iJzJdXJH9JbZT/sjD1x4fD263/1YiUWfvyC7/eF5a2u0WHl71s6QMZ7YETsfDGU3BgaBm4o1DiEMRqtZAS1mkCZtwez9Y8ec/2pb//25KPsR+QJTC0CXkCm1ny9rKM945r7Dmzb2deNmtL8DhfQgoNq3EpKKEQZkglXzt1SFp8tYIxCLCU6rXWY2S9/3Rh6/Bxjn/rgXUcQAAAgAElEQVTFjace1XyhD/KRi34yr1La5hYtw7c1FUNOAhKWYW1BBgdiTQJC4xPQukBaNFEKFbaZU/rF0B/vO/KqUw544oWOwZ/vCUx3Al5ApvsK2ITn/4dzvrtd1LfTxS1ee/+YAnRQcsUKGSSkjcDdq1u7zn/kuKakwqyToVIKEYocEWs9atprr9Oq8ZPZrbFHly1blG/C7f/XoR847ft9s7fb44oc4kMjqUWCGIzCd5l2YcUlEjXFIAyH0jkgcpRLGlGx/nSTPXDF5SctSiZ6b3+eJ+AJdAl4AfErYZMInHD5v763Zfsu0eXe7RuZQlCqAiwE17SRZWFROCsAlJ0O5nwjRZqhFAJ5az1m1aSReXpvOtb8VmjTXzO98pHLly0a3qRBbDj4Y5c+8JG4b9YXhtp5qaUiIIwhpEboLBABoShXhaPdbqJvoAyBzhM6WfHhL5z4/3wBxYkA9+d4Av+HgBcQvyQ2icAxn7tnRm/fDseNKLFkfaeIZakHjPwfkG77ytgODAkIOSJYABn0IG1liAMJnicITQf9UQkys+ivxw81Os/cXejWvSNjo09FEVt51an7rBjvgP7hov/YqzJvu1vXtoqdG7l0AsJ4gcAaxJojUAwqKRBGHPWeKBN27MJ1Q09ceuOpe7/gLbTxjtEf5wlsyQS8gGzJs7uZnu1jl/xq95RXLpWVGe9oFgGsLEPyyBVVVLbjrBBKCrFCwugInAVghYbQBr1hgHyshYrrod6GKKdgsjBRWHm20xp61JihryFe+63xZIh/6nP3zKjOeeUlq9o4YlRxWEm9SjZkyCuBwNDOVY5qSSAMkrtHxv64+PqT3/TwZsLiL+sJTDsCXkCm3ZS/OA+8+JKfHRjUtrpwbSfY3QZ1MGoqxQ2CKEAzbUFbhbhShiItoRe5Yi7hMLYSUnNwRRV9C6RYj6gcwaoIzBpEovNgGaMfu+S4PX8xnpGees2jBxbx/K+taLV781DAhBQNxqEbKfpCgZgsnrJ6LG088bHPn/jWn43nmv4YT8ATGB8BLyDj4+SP+j8ETr7kx5XERoeL3p3Oa2ZBHyXwNdIOglIFYSlGI2kDgrmcDCqjLixDYJjLz5BWQGhG1bOggxStNIFEHbooMHdGHREGbx5de9/Z155+8B83Bv6EC+7Ztjr/dbcOav2mYWUwVliEIkRvEKEYW4ftZ0RPN9Y+dO6M5qpbXojTfmPj8N/3BKYjAS8g03HWX6Rn/sTFP5hjggUntrLoyLBcm1lYBoUICgJBqYxCK1jOwC25042LjgqovLq17v8tMzCSOgYamDxG1u6gtxJgdq8ZTMb+8+NXLN53o7WqqOHVgtHXnNiwlc+uT1kpsxHiMIYsWphT5auLkacuqKuRWy46bb+xF+mx/WU8AU9gAwEvIH4pvCACi6/89Vaa1T6WpDjK8socyBoKE8CwADyMoKjxFNfgwrrwXm4KwOYbBMQiY/T9EFqFQKFRDoB6nKNs194yOPTEP9x46kEbdXh/5LJ79hqY/cqvrBjKdkuKENRNan5vOMTS1Vfa5qprrj7j7etf0EP6kz0BT+DPEvAC4hfGCybwDxf9ZB7C3qMsqx2tTXVrxSrQpoyCBQDnsALggoRCASyHsRkscihG7nYJxgNEYQ1Jo+UKNFZljgV9eKw1+ND7Ll/81v/a2AA/ctF3av0z9jh7pB0cbW25Hgbs2b5S59r1T99//fVnLxza2Pn++56AJzAxAl5AJsbNn/V/CCy5+AdzOqq0KKrM+2SuazsXqgTFyyggYCjZUHa7FpKIWKag6QsWLCohyRS0YijJEOR1rwqDmVVrTOPZDz+79qHl42mLu/jSX+xpbN9pacFKIdffgXnm2188/V0jfqI8AU9g8xHwArL52E67Ky9durzarg7sV6osOE7Znr8eGlMBC6tORAoGGM5gJYcRcP4Pzbr+DxEFMNqiVo7RHGkgNApbD1RQ551fDq/+w7FXnfyWB8cD8xPnfnsBiqC4ZtmBvsvgeID5YzyBF0jAC8gLBOhP//8TOOPif3qNkb0fZFH/QakKts+MRGqE264yMoQVtJ8loDhA9RczlUMIAZ0XqEQxWJ7CtBrYeX5vu7nukaMvP+k13/CcPQFPYPIR8AIy+eZkixgRNaGCLL1aVgY+aMO+fTq52LaVMbRzqnxSQ14YyLgEIw2anSbKFSoHb8A0lTxpYaBUQgkJesPWV+W6xz529tkLO1sEGP8QnsAWRMALyBY0mZPxUc64/EdzFYt317K6vxU9by10vIu2cVWENYy0WpBxQBVPYHS3eq+g3iJGg+fKNX/aelb0L8MjD7z/guMOGHwxn++IpTfFmvXUtQh6tLI1I2QttFFZCOpbyDgKFNoaDZhchrYokiRtFY2xyGJssD3Ymjk4M7n99kVUt95/PIFpS8ALyLSd+pf2wU+56Du1IihvW+uZ/7qevnkHttpmj1K1b2aj0650ikRaXbhSKIGQgHIFEW3M8jUBxr7eaf9h2bLjPtiYyIgPOWS5qO5Y7e+0G7Nl3DNbxvGcAnwrGVe3SzTbQVZrcwwLq5wFFc5lxFkUUlcqo3lutCkEt6rdHisq1ShTurO+0x5eaVGsy7PWOmOSVUHIV6usMVirVge5SlbfvmxRayLj9Od4AlORgBeQqThrU3jMlPi369re2dX6nG0KI3dMFO8LIllXKikzzlFkylTjUBTttKGK5lM2W/+bc085eJN7dyxdulSuNfvuwcM5+xpZeaOVwQ6F0bO1VQONThLG9R6MtBK0lKHsFBjq6242OGWoLL0Vrhx9EApIxhCEDGnSgNEZ4pKA5AZhJAxneiyUdqzVGF1bK/NfJe3190qVPVY1rWdvu/AwHwU2hdeqH/rGCXgB2Tgjf8RmJrB06VIO/A1/cLdBu+sDMxn9+UI7F37stLtenYqtLizk3LcZWRe5NugUCfnuEZcjrF43jEp/D3KjUVjjBEQb6rgrYZlwfU6oF25RZIiiCCpPYbVCvVZGkSVIOi0MDPTR3huyLEGlHMLoFNDpYG81XJk0hx5lpnU/isYjfZF+vK3zp7x1spkXkr/8S07AC8hLjtzf8KUgcPhpP3p7y865eUz1zwsqc5BmBYI4cjko7aSDSm8d2lL5+RyG/qNOvNTPhMKNqbPJhp8M6/7BohKXqMWJK7dC22xxECPNOpCcIUnbqNWqgFFIO21wrhAwjVJoEIqiEfH8MWFbP9CdkXtlqP5wy1kLV74UDPw9PIHNTcALyOYm7K//shA45NTlWwcDu315TPfvt3IwQ2/fLGdlRJFAs9NGpd6DZmMU9TL5zA0MNcCyFoppaLJIGED2SByWkCQpTGFQCasIWAirLJhr42thTIogCKAKjTQvEAaxe968SKmWJIJAI+AFKrGFKZordDb2W9jWdyJh7zd66KHxJEm+LAD9TT2BcRDwAjIOSP6QqUng4GX3fNhWdvjicDsqaR5DGwYeSCrj6BIYeyoxkLXAWdG1RqBdJ0VqhkVFILs+GY0giCARglnKVaFvCwQidr3WBWXUaw3GJJiIoJVFoTWiMHBbYtZQj/YMaTqGWon6s7cRSNUIJPtPqUe/WTfrftVXTf/gW+xOzTU23UftBWS6r4Ap8vwUdmtyXrnlgg+PuzDiIWctf0Vp4HVffmqt2lvFvUCpjmaqYAV3VoNkCjE6ELZwumFdH3fjiHB0/zSgtHkORs4TKupFyZCWdR3uAAT5293/M1j6vmWQVLqFMTCybGwOWAVmMydOVK+Y3Cv0/YBZ1Ep4sjm66if9VfF93V5x39d97a4psiL9MImAFxC/DiY9gQNP/tbupcrsA9Ik2amvor/71aX7f288gybRyYI9T1HRNstWNRVUWAPCEhrtBFG5BGYylHgKuUFA3A+EoZd89wVPXXnJH0I/JlRLuCsr9EW93ylKS4NTNWHa69ogNHQMfTH3j8ZVInbZkVTa3loqFOw+zrcCoMiaGOgrIxbZs9yM3pqPrfleuOf6+15oEMF4+PhjPIEXSsALyAsl6M/fbATe+6lbt+monrf3ztjxQ4UpvRGsCCM79kPTfvTob1x86Krx3PjQpb/42zza5hvrk6BHh1UYhLBS0vscnBlI1gGnFzy99i01vxJg1ATrOatjw03I6iBfiXau9u6HQYNb8nWQ8126HvAkHtoJj3WCwdxPGPVDIdXgbvvLWSyajlQolzXa7fXoicvQeTub1Vu6v9NYdSs3w3d//ez9ffvd8UyyP+ZlI+AF5GVD72/8fAQOW3xlvejZ+nVhMO8ILee9c7jB+nNLBRcTzOpRrTIfPOLms96w0WZTdP2/O+ufdij173RzU9X+ejRhaKUZ6j39KHIOTr4O1nFWAjnFaRuqa0lIt2XF6O/OWuhGZ5HF4fq9U9QWo4aLBsKkXXGgLS4moRnJAvlT3IbYc/IDQf+Rn8SKrlDRPZBDF6MIuUaW5AgEHQPUSrZVibJfm3z1FzVbcc9tp/t8Ev/TMjkJeAGZnPMybUdFfos8r76/XN/68NTUdh5rxwjKs5A6V0KGetxATa6/nTcfPOnWi9+3YuOgLDv0nN8ew0tbf37diIqZDMBYBCkqyPMcPKYeJa6w/AZfBokG9Uvs+j1oK8sJCJkMzGzwkdDWlHWdFqnPO4kPCQe5RehPzYzrdUIVh106yXN7xWTVkCOfeqAYCWENuM1dp0ZqvEUFJZXKoVUL5TIQ8M4zQg9+FWb05m9+euFjG39Wf4Qn8NIS8ALy0vL2d3seAoctvbJeYLu9cwy8t1Sdd/BYy/a3Egkt+mBZGUHMoDIgZmOYP0Otaa7894/eecn+3x8P0EM+/YM9av17fHnluvx1hkkIWYHkFfAghLYZDPUoodwPa932k7bkAGfO6uj6N577dD0iZIE4UbCAtAGs27Ii8bCuRL3mFpp3W/Y6XwiJCYmQoW2rrgVCf0qyRHIDwThYQBtidABDnnegdAJTdNBTYs2ZNfZtPfLszWsY+/k/L9tHjeeZ/TGewEtBwAvIS0HZ3+MvEjho6fJdhZz1wUL3LIzLc3cfGUvBwxKMKEGxGLkKXKKfZECZZ4jMMKpm3WWl5Omzb7x44y1vjzn7uvKQ2XUJi+afXdgYQdyH0dEUTIQIgu42lXERUxbKUsMrMisovZDe/eTHoP2rDZFVzo/RlRHajmIgAemKDflHnJeELBWu3TVpy8tp0AYlIvuDxIOsG2klAl1yomSlQmYyaGr3GzC0WwlCEYIVBWqSYXaNPTi64sGr5szQd375zLev9UvKE5gMBLyATIZZmKZjOOaY64LG/O3ewqpbHZWryrvTLKwMj+Wo9fQhK1JEtQpSyquARKFCxJKBZy3URYYZ5eyRbPDBo79+0X6/HA++D5zz07crue2tbVWaRS13lQnAZeyiruhDHgsN5RIJjfNzUC4IbVl1BYRb6V78ZENwcrQ7EeGwIMd59wp07H+LxnPbXRTKtcFn0g28es6G4c4CCW3ZjSG3CUo9JYw1hwFODnkJoxikEuBFhgovMKNqV6n2kzcyu/Zrt5970CPjeW5/jCewOQl4AdmcdP21n5fAiUt/1N9Q0cK8vs0nRlX8uiSTUDqAkDGEtICgnukKijInuICxEYThCEyOSKWooYWqHLmwWPvgBbdetfFKvQeddOOCge32vXHVSPD2ti4jtRwyjFGWoUsEVCZzlocVtI2koayGsQpSSmRZhpBHEILqzgtXct5ZHbbrKzHGIA4lVF4gpu6KRrnmWCQ85GznnLwcQOFc69wlKdJWFRklIe1/We22vcgCchnwhsOQdWMFQiZhixzcdBDyFJUgKULZuZvZ0auGkuKnfkvL/5C9nAS8gLyc9KfpvY8+5ZtbhfX57+bV+YtXjMldWrYEY+klK10RQy4UGM+hWY6MXuQkICx2W0dCKYQqRw9XqMr2v2eNhz7+jxe++zfjQfnupfd+JO7b7dqn1iYBogqCKIYkEbAKhen2IyEDQbPCvczdlpRSiOMYUViiSsGupEkQhM4aeS5Ul5ISKXqKLAlLpeiFRJGTM9y6LHYSCxIaZbvOdfKTdEulFIgYRYCRv2SDdeKSEeWfJCUKV8SRItCAlLLYEYocUqr7Qzt6QdR+8oe+SON4Zt8fszkIeAHZHFT9NZ+XwDHn/Wiu0r0fDsozj1s7aua2aDuJlwEeOPEQLnGCSoNkzp+Q0cuT8jZk4ASE5RqhLlDlQD3MkrT16PHfPPdtXxoP8kOW3rOjqez8tXVN/vqchzCcuxc+mQKUqUFbUPSydxYCfZzvwzorpNPpNkTsqdacxUERXJVKBZwzaKXAtUUUhLAFiYxCFETO8lAFWTTCWVK5LVyIL7XxpSxFwwvAZC7mS7jQ4QDMkJNdbggp7mb6Egfrzu1ur5FjngeCGm49XEtXX9RbGrn9q0v2b4+HgT/GE3gxCXgBeTFp+mv9RQJHnvntBQmf9XfVgW1OGG7q+akJ0bEShge0z+NKgJBXgToSum0d+o2dvBMU3irprQtngQijUTIMFUGZ5KNfZa2HT/3a+e9bvTH81FyKvXKXj4wWpXNzFswSIUVhsa5w0faUKz9CL3LaYupaQy4yS2v3d7JQ2u22E5QoDtFsNhHJAEopBCIg1zgCKZ0DvFKqQhUWMozctpWyFHBVQFPIcNfFAcsVioLySKhgCp0fgBv6U7hwX/o859Q3nLktMCo/r6n0PAdCU2DrCn8ozlZcAP7od28/bdHYxhj473sCLyYBLyAvJk1/reclcOTpy2cW5W0+ouSsE9u6NLtBRQmjanc7hzwElooOWgSM0UYWuBLupasFR8Es8q7/2uVOMHphFwqxzTGnTz6VDj+4+Buf3fcH48F/0EnfXqBk5fBc2wOYLM+p9sw0TMpWIKIW42yYcdm0hqluNgi1jbKRDII4z7KaDIJeIWRvsz1WV0pVAB5nOeV6cGoL4qwSCAEZRAiiCrJcg4vY9RehZyQx0LbYEOVFG2QUsdUtlUJphcK6dENIl2z4nIA4OlAU8cstCiop75zuGoHSmCVDDATpqjLWXi6Tx7/8lWUHj46Hgz/GE3gxCHgBeTEo+mv8RQLHnH3bDFPe+ZCmqp00WlR27ICc2JHzbcQhOYxzWJtQmUKETCAkCVEhlBGwPEDKFDJewErbTeArCvBcIygKzB8ooS4aXx1dce9p4y1v8o6TL6lU1bzZTEbVMaUKCZuEYTmPRFBQWniQKVtEkpVyyYo8YZX+mWJ4LAmYLUo8lvUsK/qDQM6QsjSbi54Fhge7GGN3RBDMTpXtobImo80cYbkHmWLgInQWjqWILFc2hUKGCyitgYB8P9wFCHCyYJx4UD78hh9NsjysAnUtKRhDQf/PqCQjRWgx9GiBOE8wfwZfJfNVF6Sdp265ddkBE2r/65exJ7CpBLyAbCoxf/wmEVi89K56m5cOsaU5x69o2D3arAcpryIxMfoHQmQJ/f6dgvPUVcWlbhrCSEhF5dcjWM6RMiCVKbQgf0VBrQMhCyDSBjVrsGAgGlLNR4644czXj8sK2aQH+AsHUyfFB9PdaoEc6I1LPQvWt5JX8kr9dR2FPYeb+Xblntk9WRGAiRiCR91wYNqu4q5ilrNIlKAAAXpmqsNFUVnCCQk5913mOzfOqU/bV84S4xLafVFEWoCoYyDSHFVhUI+SJ3j6zLkDc4a+ftVxB2Qv1nP663gCz0fAC4hfG5uNwOIr74pMs/9gW5lz/OrR/A2JrGK0ENBRL2wYot0GYmERcwUhMnCWQZC/QZMPIIK1EQoWdF+cstiQMZ6DGY3AcJQ1R5Qr9MgUJb5m6c2f2euzm+1hxnHhv1l6j5yDxqyWDnfWYe+bFKvtB9H7Km3LvdaEzqFOiYlU3oT6rFthnW+HIrM47VEZ2sai/BAGTqXfKSeFdRMbKbPd+YNcvS0BTR1KrEBJCbBCwxYpApZiVj//Xd5+/LP1Ob/7/vXHHksJLf7jCWw2Al5ANhtaf+GjL/rNfkG0/dmjbfamkTRDyjl0GEPJCDltYWkgVAUieqEKytimiKRuZVwql55rAUUCQvv+2mDGrAoaoy3327vQBUqUnd5WiItRVOTKS21p+IzJ0uHvIxd9pzama7taPmM/IWe+q9lmryyUKHVrbFmUKzEa7RZUWEIQlaEoRFhZRJy8Id2se9quIyvFJSm6zPiuv2RDGBeEBSpMIk06KPeUsGb9StTqISpx9odYr/vUP56y10/8KvQENicBLyCbk+40vvZhS+/eVdZ2WNLJe4/o5AESSq4TDDZgMFyioAxuwyELjZAzCHJXI+9Wu3W5GEBBv4mHJbRTjXK5jGYzQTWOYPI2ik4DkTXolxJhPvSwSh/5zHevOOT2yYb8iKX3xE1jdwji+e/IEB9c6ODVhsnq0NgYZsyai0ZukBcGURBDcgrjpTa5xn0JUhEo126XPi6H3SUYdsupcLflxdwWV8YzJCaF5QKl2CC0oz/st4NLvn7a3g9MNiZ+PFsOAS8gW85cTponOeLyO3tbyax/KNV2PmnVWtWnWan79qO6UwKuox8lDrpy6da6YoLkNHbi4bZtKLFOuQilvLCuZhVnMYRhyNpt1CsRksYQyqJAkI0+KIvV10m15tY7rx5/t8KXGtYxZ3+vvF5X9ij3br1wfQvv1az8V41UoVIfQK4sKnEFWaqRdjKEMeWQdOtzaeTOAvmfAo7dYozMSrfVJahlLrfIeA4bcgyPNVwHxG1m9yRoPnsZ7zxx+Z0XvHfcXRxfai7+flObgBeQqT1/k3L071v2vYWivOP5o0ll96SgTOwIXFIMLg2X6kt1W8JS9BET3bwL+q2aMrLJcUyJhJQjQa/NMCyj3epA8hJsrlAOyEdQQCBrCzP6r6y94nrJ1/3k9oumRg7EIeffNTPL+t5sg96PIOx98/BoXpdBGYEsuV4kDMSKcj6ANE/BJSUcUiIhNa/qlo535RhNCGEMQvKjqAwmMNCSozAWWZpCGo3ZNbuiVKw5Re381HLf4XBS/qhM+UF5AZnyUzi5HuCwz/5gj+rMXc96dsgsauQxZFTv9uPbEL7qxIJKfljKzqbtfLI8KDqpG75KSXXUl5ycyPShciBMU8lCCaEVQk7lPzqPB+h815ih2/Dw6t/dfvuiDY1iJxeL5xvNIcuXC/3AwJ5NFX2U8YGFMuqbn3Q0wrCOsFRFqmj7jr4UjKBcEZITKnmiN4T7Uq4ICQj5Sgy4sM4h38raEFHsKgc3hsdQCxnm1vWv0+GHPvWdi/a/d2rQ8aOcSgS8gEyl2ZrkYz3m7O/NSOTsxbq01fHrGrZHiQqE67lBPcS7taacgFD3Pitdpnmxoex5t2MfNVyi5hrWOYhJVFxdqXbiLI8yL4qQN+/LWqu+EKv2PV/93P7rJjmSvzi8Q87+3tbNTuU9td5tPqp0tHtaEJMytIxhA4o+A/JuAC+lITrrjRpYESuKQpNksWiNIKRsfoNcKSQqd90RqZQKBRr0lQVM54+39LCVZ9101v7PTmVefuyTj4AXkMk3J1N2RB9a+rP3sspOn1s7iu2MrAJh5Eqkk2lBL0Dq+0dbV8xVpyULRKMgxznTLjdCMnIM06/ezIXyBlRWJNfuN2mTjjSlGf6nety4Opj36M+3lBDVoy77Uf+aNXJhrTb7uFxXXtPOS+DlAXQ0R04Z7rRFRaG8oLQOi4CsM0o4NMJl7AdUJiXv1vmNyyXkViFTFM0mkLTbqEYcFdEaDvWKJSMwt/jqvVP2x2tSDtwLyKSclqk3qCPPv3vXqLLjuauGgoNzVCHLVbSzNqxQ4JI68zEYAyjKmmPUIIq73hv0cqSigoJ1o7EkFXkqGISSiIxARVKkUWdtCeu/Kfi6a770mX23uKiiQy5bXsKanr15adaJqel9mwkGwsFWgVJfP1JDFXzJmU4BBgqCiju6LiTcWWlkkVDxRcZDV3aeRYAMJdoZJWdyZG3qamgxo9r6JW8/uuTWsw749dRbXX7Ek5WAF5DJOjNTaFzvvPKuaKAzcISMtjtv7fpgYLit0T93AFmRwDJKNadIIufwgEHkxIP6XVCobmao+yBDKC1Up4OICfRENaSjCfrjCFVRDLN8zS3MPnP1Dcv+9vEphGWTh3rIku++FfGCkzI2cOBoGoigPhMp1QOToturBAW0Sl0eTElKWMqhcQ2uqDJjt2gjBR+QZadpa5CyanKLWGrURTsr6dXX8tHHz/36pR8Y2uTB+RM8gT9DwAuIXxYvmMAxl927x0inelmqZ7w9tb3IbYCgLNHKRhGGypUfYZTTseFFZ6gNrKFsagZWlkjSDrRqoxaGKEmBZGgUMyt1hCYZ6wvaXx8Z/M+LvvH5g//4ggc6BS7wwU//85uD6tafXt+J9mupCBkvQQtJfaxcFFscU6fCDGnSRDmUCI3qcjVl10+FhIYsOycgFlAFRyAsItNBDYNPzQwGP/mlM//mh1MAhR/iFCDgBWQKTNJkHuIhS5eHaTHjCBEvOL+t6gOFqLtufwgoRKgAQ8dll1P7Vgo9ZSYAbLePOJXl6CigXCdnMLXsSyELhaoASsiy3ij7pk6fOv9Ln5leyXDv/9Rd7wx6dzg7Q+/rOqaEnFrvBgE6eQ7DCgQBh9IpSiEDyxOXHwNTA0wAy3i35ImzRBjKpRhZW4OlTVRFE71YdWNPNPiZa89auHIyrys/tqlBwAvI1JinSTvKD3/2Z69FbdsLxjrRfqOpgA56oLhEhgSMU0tY2rc3rkS5oF7iRoJvyKZWEC7aSG1I/9BpCxVh0B9b1GV6l2k+edYN57zp/kn78JtpYC57Pcn/tty7/ZmDHblXW8cIK31gUeR8GxAUecVR5G3E1GCKstR12W1j6Q1bg6QpVHDRKHK2A7zIEesxzK21ns7HHjjxGxcuvHMzDd9fdhoR8AIyjSb7xX7UEy9bXhrNd1jcxozTVg8lfTkrQ1T7wON4QxZ1AW4KJyCCtrBcsiClwbkmgFAUQR84YhoAACAASURBVISSa5AU0A6+TlBCilk19RvTefq8W5a+4Tsv9pinyvUWL/1afV0+61BR3/bksTTesZEHKPXOBDWWaiRtiIBRt3hIRv3SqZ8KWXYhDFl3jLssfsqvoag3Sdn/qUKgmugNmqiIdd8qR4PHf/nUA1ZMFR5+nJOTgBeQyTkvU2JUx1z4gz2afLurO7r3zR3FwcIyCoSu8KGrRu5yObSr2UStaru5gV1zw1raaBEotITR3PX4GOgJUQ+Tp3jy7Ll2ZO0/fvVz07tN6xFLls9Jo3kfFbUFJw61ZV/HxBDlChJdQFuFUikGVObKwbgPbR2SVQeq2EsBC9RkkepmdaO1Ap1DZCOox+1V7bFHj/7hpQd4X8iU+EmbvIP0AjJ552bSj+yo837896PBdtcNJ3GdrAlGPS+k6+jR3apyemH/J8OcKspSYygXvlu4drGhKCNPcmeB9Fd4inz1TT1y9bk3nvqOVZMewEswwCPO/vEuw3n9fBNudXCzCKFl5EKkG1m3ta60FNBLopy5Doeu6JgTD+n6u1M73pIMXcPcvNkCzxNUohy1OLnaZo+ee/uyA9e8BI/hb7GFEvACsoVO7OZ+rKPPuG227tl+ydp85qdatowgDJHkGWQQuwgrriUk1cDSGywP19eCKvIWUCx3vcGdvuSgwF5QyuHsXn6PaD91+k1nvPm+zT3+qXT9w5be86425lyaiRk7D7YUyn0UIl0giGJosvysgRWdbjFKZ3VQpj9tZQlXlJHyQwIhEFNv+XYHAXIS64dY++HFd3z2Lf80lVj4sU4uAl5AJtd8TJnRfOjTP3srStteNJhWX5+JAEbkLvLHbV2xANzEkDZGgAA6U2C8W2k3Nx2wUABSopMmrs5VLQTmlMwTLFmxrLc+vNx30/vfy+Dw028eYNXXfGow6z1xNIviqGcmsoLyZyLktE9FbX4p14Z1/U3MUL0x6oRIW1lAojquHbAUFjwvUAJDlQtVMeuvFs1Hl9124btGpszC8wOdVAS8gEyq6Zgagzli6U1xbvc4XocLPj2WxZVCcOgggxaZExBy4gpTBjcRIooMKgrX74NecMpmsIKD6ukmaRv1cghRjK2bJdIv9QTrvnDNKfv4LZU/swwOOeMnr2Llv7p0fVreN7EhojhGbiwKSXWwSBwoGqsA0xT1RpoSgzPpeqlnyKBE4Youck3RWAIVEyI2rYfD4pmP3H7OX//r1Fh5fpSTjYAXkMk2I1NgPB8554evSIMdrxnrVPfNEUNTX29qOSu6FghVaxI2BKOEQvpNWFEf8G7VWGVoC8s6R3uatlANc8zvD24v1jx5/u3n7/O7KfD4L9sQ9zvhl0fX5+1x3lgiZlGWecEkCi5cRWPGu90cuaEv8jt1BSSzFkoo5CxzAh5S/azcIMo5qjyz9XDwZJndf81Xlh2ZvmwP5m88ZQl4AZmyU/fyDfwD5//8gEQt+Eoh+mdSt0BI7n4LpsJ/lllq7Q1OOR+Wiv3RdpaF4MzVZqK+FplWKLSC1m0XEVRSIyePmux2X+jvL8/pwaffvXPYt+v5o+3wfbkREHEZHYgN3HMw2sJy1Xop67+b7U8CgoBKMabORxJzCZ4ZyMSgKhS2nY171MhDH73+02974uVbUf7OU5WAF5CpOnMv07g/sXR5tVF7xXEtNee8kbagyuGwnMEKKvHHu727SUBoL556e9tusyhXrt0JiEWhlOv1HckEkV1zb6RXHfXNsxc+/DI90pS5LfURSe/f7gheXnBhpoMZZE8UQQzFDRRV62UKIROuqjHTEoXa0P0xZMgtCYh2Pdd5piBTgwrXmNGTP5uNPPzR5efv9+MpA8IPdNIQ8AIyaaZiagzk78761l/1bv2mS55aJw4c7RiUS8KFi1rEGwSEWh9pkJeDmkPRdwSF+LoM9G43vULl4Nygt5yD5U9e2y9WnHb9aVOjo+DLPUuHfPoXr+Wlba4eabPXU78VHZWgqIe8pZ4hBYQQTiSsFihy7fxRlHxI9bEYp4oADDzXkIVFCQUGaratxh4/3Ty28pqp1pjr5Z4Lf39qAOc/nsAmEPjghb86MGHzLhvNajs3c4v/j73vALCjKtt+T5l22/YkJCGEIFUQUVG/X6UX04AQNhQFQRAbKihKT6EXBfmUovIJClKyECShBQJEBTsqNSGUNEiy7e7eNv2c83/vmQ0fKiXZJTHZO6MhyWZm7jnPmXueedvzZjNUWxxKZtDe0P3OcSMjNMkKUjIGTg39Rky0nAkFEQdgGRJaG6Me5r70nV+cve8vN2IIdX3qibPubeyPx11EndFfq8YGDYgByuBaPBGLC1E2H/HG9GkZYwcRqrsbKiwLwRIRIYEJAaagYAgfbOZBnvffTN2Xv/vLtHd6XT9bg5l8SiCDQa1ur1Gk/aI/fROc7S4shU6hGiowLKwop4karDR1zw8sFARaA8JC3YXQYCaAwBasWB+iQEUBOJaA0a1ysej56+k/nzn1mbqFdBATP+r8J4+k2e1+VHL56ICYWiMLY1ChShpLMYIFhqhfkkjoR6gVw5nuta6iWLsXHYyUxC5Y4AOLO39vqbUn3XXZ5GWDGE56SR0jkBJIHS/+xk79hHPmtUB+56tc1npSr0fAw0pyJ9mklMhqMT98oNDXLmkVgAb6rRero6WPwXQAmzLgMoCMI/ocWDcnAy/dkrqvNm4ljp61aCfmbP+jsm8fUvYVGNk8gGWAL2PdJhjdWNoCCbHTo5Xgr+tzkq87EgiXEXAVARM14LK4yiI9J3RcdMBvNm4k6dn1jkBKIPX+BGzE/DF9l9of/EmXZ+4bGjbURAyEY6NaDhBngSrcrAYIhFRB0UiLKsaxBItkwUZXlu8DlTXIMO8pU3adcddFn/rLRgwhPRUA2mfNzRH6gS9XosxFfuQ41M6BdCyIMAMO7UFKtaUnYwUcfVeoSIaBdWwoQqSuXDcU9mgJIKr0Q2sj98LaitOslzt/kcZB0kdsYxBICWRj0Krzc4+/4JF9We6DP11VjHdi+Ry4KgZq0qTPuUACMYHqUvQYYurq3hWSJH3QDeWAQqmT2IORDSaQqPPnpO+1s+74wdS0O94gnqtjZz91QGy0Xd9fNXaWPAPCMgFME6KBVGkd68B2t9giWKtl8UTiRFfpYKcQTPmNMGoFVFbAopUfZuWrl906+8iuQQwnvaROEUgJpE4XfjDTPu78J4/kuV1uWluWTSrDIaCJ6i5gfw/paGE/rbirCcTX2Vh+FIJpZcEkNgivBrZ0oTWnvFLn0kty+d6rOubMGOh3O5gR1e81R559/4TYGPljBSMmBsqG0DIALAsE5xDHsVbp5WhzSA4E2xkSQ4OFFqEmEC17IkD4EVhcwMiRxlPdq//8lQcunfJ8/aKaznxjEUgJZGMRq+PzP3/h30/1yfgb+iKDRlaEDfC02isBA7gwgCkDm6rqGEiMJIIUwpI3X+FhCmkIBcOHZjvoMuLuc245Z++f1zGcQ5p6+9fm5swxO8yMxIjvViILPMYBMg5Ig0MYh0CihEA4SuUjwaNkpZaZSSRlCIRYtQN+Da2RGLYZmVml3Je/3HHOxx8e0sDSi+sKgZRA6mq5Bz/Z713xZL6XjDlzTalhZlmaoLICYi7ebBJlYOMihd3vsBodIEISAQWBpGCaNsShAEsF0Mg9yPHSy2HplW/dfWnaj2LwKwJwxNkLT80Wdr+63zezNYxzOBaAZUIs4wECUWDEWMiJcRBzIJgudWyKYOEhAHiuAosb0DbCLpc6//HtRy78xP8MZUzptfWFQEog9bXeg57tMef9etvm0Qdc/VqneVSfoEDyAmIaordKv+lqAtGVIElzI/RLxdjmHCwwuAGhHwIEJWixXRjXRp+q9jz31V/NnPzcoAeUXgifu+iJo0xz1x/1eeaofqkgNk1QmNJLYqBYrCmTeg8kEKLMRKcMm3khgaA2lqJQq3IwTRMyORVJ7+XZjeKl76duxfTh2lAEUgLZUKTq/LwvXPi7jzqtH/3Jyl77o32hBJFJlHW1m2SAQNBRgiSCmxRWJAiF3nYLYonZQAQs4oEjemHbJnGb1/fyOb+ak7ZUHcpjdfycRw918ntcX3QzE4qhhJBzAJPqnlJSJMq8KJ6IMjIo7/4mgeg6HU+nX3uBrSvW21osoMHKa3npdxfMv/LkylDGlV5bPwikBFI/az2kmZ4w54/788a9blxTJTsV/QB4lkIk0Y+OrWvR+sDOeEmWD6aKojqTJBRCMdAfRKA/vgattg85VbySVZZdmVY+D2lJ4IQLF/1XpnnPGzr76Z4Vj4E0LIh5DJKiMgBmx8VgEAGUEB2fwva2mBWn6V0FOherGplgUAZNloS8WHeLqr5w5r1pRfrQFqaOrk4JpI4WeyhTPX7OM1MzIz503fIeb9tSFIM0BFBM7sHCNa3/aupgOpIHkoiCELBCRLe6BUM3OWKxByPsUGSgaybxVv/4V3MmlYcypnq/9gsXPv7BbNue16/thX0qHjb14qAMAYJKkBinUgIYi4ARlHfHLCxd1QlChVp8EdMfqtLUAoythoSc6JxH+1/5esdVaZvben+2NnT+KYFsKFJ1ft5JFz9/bOzs/MNXe/pHKCcDxFQgdDUzCpkkLVSxE6EmD4Vmh9A0IqmuNECFReDShRYnDLKy97yq99oNC2ZPdesc1iFN/5SLfrO93bb7j97ogclll4PiFihs7IUWCBIGpuySEBiW5mDKHOZdKVwhzJALICIAobS0C7LZkOBE6x40/JdP7bhk6htDGlh6cd0gkBJI3Sz10CZ6wkUvfDkyd7iiBEbDmv4+cAoWCBmARRK5dqLVeDk63wesEFSCBU0gSDFCKGBIINnAy8qes8WaJT/ruGaGN7RR1ffVp17y222M5t2+/0YPPa7sUiDcBmVha2GkbiQMVELGPiFoKSLJo9glcrkEAR7EmC2nbN3BsJkJyMbrHme1V07quGLqqvpGNp39hiKQEsiGIlXX5yly4sUvfStyPnDx8p5SFqvQPeWBbVJgEbZQpRArU2f1oGR74sbCGAgAYF9uRXQgnYEHLZmglpHd58g3ltyUEsjQHqpTLlk0kjd96OI13fQUjIEwMwNgY8fHRF5Gu7Ag0lYhdodcTyAYBxEk0pZKKLhW523mSCDdvzG9pSfeefm0FUMbWXp1vSCQEki9rPQQ5jlr1hN8JR9zRmCPv7CsuN1VLYE0JVgGAUso/XYbY63BgO4SCmdQzPTRReocIql0/25OsAo9rDlx5znyjWUpgQxhTfDSr1y1cATYH7n4jV76pYrLgDsWEAcFFWMQ6LLSuld+8jtmYYGZdGhBy5AlKgJeqN4kkJzoSQlkiGtSb5enBFJvKz6I+SKBvOGMP7MnbJ1dksTyqQJloWMqBkMqbXAIrHTGfh8K20dJMLQVgi4spvufh1KAwQJoyYVVJ157rlt943/SGMggFuMtl6AFYjbudenqbvhiuUbfQiARCKz9IAoIYKtz1Ni3AJQJaJPorpEcM+UAwkABi2NtgeRl7+PcX3pyaoEMbV3q6eqUQOpptQc51/b2uaxp7098twyjZ3e6gRVyFMLwwTABDIEpo1gwiC6spOugSbANN6aPIrFQ8IRO6gXGAmjNBjVbdJ7nVl//WUogg1yQgcu+cvFjY1jLXleu6oLjylUCzDYHLBCswkkSGhj1dRthJJDEKsHmU2iBYJknhTAQwJFAmIA8KT5mlF44+fYfTF85tJGlV9cLAimB1MtKD2Ges2bNoqvY8d8OrO0uWlvzbY8poDYWgERAI3SFIKEkBIIFg+gssbDnBHYnZAb0VytAHBssS0DBqLpZ2XV2tbo6tUCGsCZ46YmXPTE+P+KjP351dTgZCcTKZkCZAcQyBKAWMEZAyWriSsS0Xq2HxTSBYAdDPMJaCDlKoZFF0MQri/x1T5/cce2MNIg+xLWpl8tTAqmXlR7iPL940SvfiOztLi8Kmin6NU0gQeSCzTlm6OqKc6EYmEggSoEjUUBcQSQJKMOAahiCIi6MyMdeVvWeJypLf9YxZ0ayu6XHoBA45Zo/7GoVPnjj8tXhPlUXCSSnCSQSASjsVPgvLiyJciaUQ4xBdCp0kN2QHFgQQFa6kJO9j+Zhxck3X3LE6kENKL2o7hBICaTulnxwEz5+5vNfYvmdr3q96jcEnIJiMRBDgYpRNJFAhL25gQOXEiwkECHBVFgHgp3yFBR9D5wMwDaNJKbumpmkuOT6jitmlAY3mvQqROCEi3/78czID92wYk34kZrHwUYCMQKIVKjrctB1RSEAomtzLE0qqA6ABBKTEBT2DIkI2CqGZlNBMy8/oHpfOPXnVx6+JkU4RWBDEEgJZENQSs+BL1+25Fjl7Hzta73ltpBTkFQAN4mWcxeEg0+SzndIILaUkMGguVIQKwNqIoLAMHWPdIeUoZGWLm8svX71zZdN6k6hHTwCJ17xx4N5884/Xr022Mn1DbAzWVAcNcpiUNIAqRIpE8xywMJCjIskBCIgwvReTPONKNgihDaLgS3W3SN6n/v6Hdce1zn4UaVX1hMCKYHU02oPYa5fveTFyZG9w/VdPowrBi6YNgcv9LSSK2b2+IyBHHBfWUJAVkQ6jBtLBgFj4Jsm9FV6oNEOYFwDuTXsfOGCeZdMToO1Q1iTYy97arrZuON/v9EdjfYDG0w7A5KHukyQKhuEiMGgGCzHIDpaiAxiup5AAq2VlQEbaODCNjkT4v5XbhprrPnuD+dM6x/CsNJL6wiBlEDqaLGHMtVTzv/LfkbLnje+Xgl3LscxGDaHSIRAKQdBGPiU6bRQQ0mwRARZEWuFLFTKChiHHiGg7PXDuBE2jLDjxd7rz3xr/qUTnx3KmOr92hmX/uFLLL/dVZ19siEKHeB2BgTxdX0Hw4A5xqEICuv/K4HEEBEfQEowYgp2LGBckxPF5RXfD/tfuigt8Kz3J2vD558SyIZjVddnfuXCf+yV32bP619cXf5kTSlgmKtLk8pzfMdFAsHsHi5jnYGVE6HuyR2hIi+zoFtil8IQbO7BSCda0hR0feu2sz75aF2DOoTJnzjrZrs73u57TsuEC3qqlAuRB8N0IAZvgEAcHQNhunGU1C4trApBCwQD6DENNIHwAHQMZITNKqq68vy5l+z9IxQ+GcLQ0kvrCIGUQOposYcy1VMv+usOubaPfn9FV/mIrooH2ea87r3NCNcEEmJ6KL75qlhvSI5EiRMUDudQURT6JAEjZ0DsF2F8K++WncvOrYK4ZfGc/fHy9NhIBKadM68lNsdezrMjT+lzCUjaAAwJRLmaODhYQAVBFTL9P0UoCIIEopLWthABRWFFP4QsSBiVMTpJ6dXTb7/0k3du5FDS0+sYgZRA6njxN2bqJ1362zY7u+es3pL8eq8bAM1mgHKGQQ4tjxESDNIqTSAGIIGgCizRLW0Dw4GS5FCLAnCsGJrtUDrRuqtl//OXPnD55/o2ZhzpuQkCnz//8Z1rovV638gcEFAHApaD2GAAFNOnCVgxBawVxG6EqIwV8Bgilki948Fj7FIIEHhVKBgA2znO8rD72ZPuuGqf36QYpwhsKAIpgWwoUnV+XvusuebI1gNOX9crrii6AiDjaMIwKdVvtzHBOhDUuxLAZQS2QhVYAqEyIOIOVDEbKw7B4CEUzAAycc+jjvvK1++5eOrLdQ7toKY/49zF+ys29meuMnfwuQM+tyEwGBCS1N84oQIuKVBpQUQUeEYIIRcgsZ0tJjtENjBJIRY1sJUPH8hnn467/v6FX1xxwAuDGlB6UV0ikBJIXS774CZ9ypWvHF2NGm8qhyyHMQ9FsYVt4i5fTyAMCUQhgWArKXSUmBAyG1xigivQVnEhy1wo0L7ledHz9bvO+/RDgxtN/V6FZG7I8ScKc/TVJZ9mQ8MB33Ag4qjbHgPFNGqhwNCNQZhuHOWZEYQMuxWKNwmECgVSutDAJWyX4R3x2r+d/vMrD0lrQOr30dromacEstGQ1e8FJ1/+t32EOeG2zgpsWw5i7RrJO5bu9xHqbugACYEIsNACwe53YEBALfCoBT5yjaiCBTVotlzZZtUuJ51LfnjzZTPSepCNeKy+cP6DO/D8TrMCaD6+qxJBxLMQmhYIhnGoAKiMwYklGJiOhUrJRIHPFYQ0AsVQPZmCEZnAYgVx2A/bNBgyFxXP4sEff3zLnJNQfTE9UgQ2CIGUQDYIpvQkROCEWYt2UoU97uhx7Y9UA6HrDkBivwnMtsKOhBi0xcTdCEy0QHTzIgN87ARCbR1kB+GDoSrQ4sQwIhP9Vfa/+q2bzz/w9ynCG47A52b+bhrPb/fD7n4YF9KCdhEKw4SYge51TtGFKGMdC0F9MiSQgAGEqH+lI+cEzNjQMu4yKEGD4XY2yr7j77gwzYrb8FVIz0QEUgJJn4MNRuDkqx9ujuRu10fW2KNf7+wHP4yhkHPeJBCU39WVH0qAiYJ+OoGUg68ohMQCxTkQEQBTLjQaATRnhMeDzvPG1eZfO2fOnCS6mx7visBxZ9/f5LIRFxPe8rWYNUBN2BAzB2KO6blK96JnIgJLJVlwimBKA4GAo15Z4m7EzuhGRMHA7pFxCZpN91kavHxUGo9KH76NRSAlkI1FrM7PP/HqZV8pi1GX99dEA3ATiJQ6LRSLCYEMlA6iRIbCbUvqHiEh/iKWztoiWCUtPHCIB1keAouKj3Oy7sQ7zz80FfDbgGfrmAsf/0RERt8oSMOHawGD2ChAjCRBKUjswUKixAKUIRCUccfKc8SfMU0keGDw3IgVmMLX8agc67/PrC47+ZeXHdm7AUNIT0kReBOBlEDSh2GjEDjm4t//v2zbh697vTv4cLkaQiaT+TcCoQrdWBisTVJ8UZFXUAuoYWI7I5CxC1x4YCoXmhrM7rC6/NR7Lvh/v96ogdThye2z5uZivv2XBGm5sFqjOWo1Ju4rlCjR/gSMb8TAaAwcBRV1/Qem8WJndFQMSPq1oF6ZIQSYogqt2ahG3Ndmxi+uvbajY0ai8Z4eKQIbiEBKIBsIVHpaggB2wYtyu80u1qyvFCsR2Lat29YCwTdgClI3L0ILJNmLKKUQ6VgIB0UYGIxoEoHQBeGXoTHPIWtXO/J07Xk/+da+aUrvuzxoR1+4aG9ljb2mJnKfEsKCQHKIeeKiwn70GINiBKvPsQOhD1JGICkH4Bb4sQFhKMCxMolKcrUMecOHbVvF0krnX06+85Ij0jhU+iXfaARSAtloyNILTr72peM7++0bKj7PMishEEITpdc3CQQzSvGNmKDTSkGMfi6gwAgFhrUjUQAy9CBrExjRxPrC4iuzo2jFjR1zZiTBk/T4JwQmfuNBy25oOF3lRp1fDoxcHBvAnRz42J5WEZ2aiw5CjvgqjIUEIJQAbttQ8WLgZiOIGEBiC1sZAAsr0JaLIEe6brbpqnNuOu/wVIE3feY2GoGUQDYasvQC7EMB2Qm/7KtZO7u4KTFTt0rFuhCBL7/oNCEECEUCUVqbCTc5KZFCCBDc5CSAFLEW+7OJB2OajWe8npdO+uXMff+eIvzvCBx7weL/8mnbtWVl7M0zzRDEmLJLIWBJFpyOaygGBhgJgahIy7YjG/sRgGE3gQiw2ReAzSSI2lpoMCvdWbXq1DsuPjR1H6YP3aAQSAlkULDV90Unzpo7yhn5Xz/uLPHplQDjGzYAukqwIh3dVSqRECcMe3Kj4UG0PhOqwxLJgehgOwcqBag4AFP5MLLJVCTqnGOTrut+eub+PfWN8D/P/oSLF4wBtf23SrJweo0wQ5kZCGICPsY5UDMfJFiSgyENMJWh03cFSIiI0OdwKwdBYEAcKMjbDFjkg/TegIJV/F2T2XnyLRekagDp8zY4BFICGRxudX/VKVf87WThjL/yjV6/OaKOJhDCKAiF8li4fUl8LdZifgwrpJFS8M1YYnW0qQkEC9p4HILNFARuL+y0fctL/Z1Lv3vH+R9fUPcAvwWAo8557CSwt78Q7LaxXTUPakKAVchCSISu+8C4hxVxsJUFhjDRUah7gsRMgIsFnYYFvsvANkww0AwMitCYqYY2XffDpmD1RdenrYXTx22QCKQEMkjg6v2y067+6x4+H3v16j5xUCixXSoFYpiJLtaAAiy6r6SKgDLsS4EEQkBJljQ3wp7dkoCFFkvoAZUBNOUJ2Kw8l6o1Z9/63X2X1zvGOP/p5z3wMcPa7oqIjjhA8DzUJIOqiiCgMYTKBYMrXXFuCwMsYYIlbB1QR9HEmEmoCk9naFHIgsUMkNUKFOwQWgvVZX1r//KNBVe1P5LinCIwWARSAhkscnV+3Tf++0HLJ3ud3FlmV9RinosluqwYADdAIHEQiWUhEMUuMCqBYY2CJCAVurpQ/sTS7izsny7DADiTYPEALO4VjbjnIlZe+ovb61yp93Oz7hnry1FnsMy4r1U8w64EDMx8C7hEQEn0gZ03dGW/KRVkYgtMYYIZO4n+Ffb8YDHEhoIQU3aNLAS1CMCrQoPjQdbovrWJrDvrp+d9dm2dP8rp9IeAQEogQwCv3i898fK/7uGzMf9TDPjeURQBYDovM0HSpH0q/h8JhFAUVoy1CwvdV0ANAGJqQjFiApbBIYx8cKu90NLsgMMqL7D49Qvnnr1PR702N2qfdV1OsV1PUHzMt/urxg4S8mDnW6AaAiiLgEdrEEEAnMRgSQW2YJpADIEEghYIaAKJqAA/isA2GkD4HuS5AOWtXtWY7T3tjvM/k7oK6/1LPMT5pwQyRADr+fJZs56wVzePP6sYmt+pVMt5rEyPIxusTCswZoIbAggZgsT2qVitQBVQwnXhIR5Y1EYEBY5NqSSeG+gOerYZgUV6F9tx91kd5x/453rDeL9ZT/AWQx1eiTPfi0jTxxU0glJZEICWGwfFJQgWadkSylB9N06KAyUFrhILROr6GwkKXVyGCdW+GjQ6Jki3EzK0564s6z7zV3MmvV5v2Kbz/bOV6gAAIABJREFUfX8RSAnk/cWz7u52wiW//ZDIjftBZ0/PQVLa0NQyASo1CkFsAHAKsYxA0VBLbGBMBAsLsTYED/wvBtIxsI7pv0JhDrAAg0aQMTzIsuovRHX5D389Z/I/6gnYw2Y98VmzMObcmrQ+U3UZUJoDIFmQiupMNhSzIjQCIFisiWWESS06pkhjIi8BU0taag2syAfbtCB0PaBBBUYVxHLlrzjz7osPmFdPmKZz3TQIpASyaXCtm7ue+pO/GiLKHtfV5V4aicxowlshJlktXQIGhUC4ugcFbnSo1IubHGYJoUosYJyECJ21JTCoDhxQ34/IEBwuoGD6cUYVb+e1VZf8cs7kZcMd1Pb2uYztPnY/nzWd7UnnIC/ioJgFnGeAUWxXK0EIBAituRgU4qdQQh+7nQtACRnAJAW08sAASRlQZkAYeGDKCFhcgpZM9XZRWn5OxxVTVw13PNP5bXoEUgLZ9BgP+084+eLHthNs5FURNLf3uyaAlQNPoYNFAmCoAwSAirTwIqqJM8WBSQMUbojMS0QAdSqwBVIZIGPsKRKCQwNosoPQDLtvhNqqH9568WHDOjPrxEv+eHBNNH5NmK1HrC3WoNA4QscvGDeBUg5KCVASiUMBkFDjp+tp0LIDBUpgnAkTFbBLJBZ3GkCQQNwKxH4fVp53WrD2m/fM3nfusH8o0wluFgRSAtksMA//D/nypX87StAx17zRJ8YquwAuicHI2+AK9NUL3TcE5cWxJbcpTaAY7MVqEVrRPn1FURQQg+9JGqoSAlRYA5t5KP3um6LzOuYVf3DbpcMva6h97lwGS0YfIGTTd8Acc2hfTQLhNsSobcUICurq+BEWZ6IVpygWZcYgdCV/0ocFlY8xSUFI/B3VxmxNILWaC1lbQXMGe9WveVB6S77aMXtGan0M/6/kZplhSiCbBebh/yHfmPXE2Ezbh+e8vNb9YgWroZsaoBjUQBmoyyt01TlKbGCZm4lV0yKjNz2grq5Y15LvkoFkFhBmgogVRIEPFo0gb4SQN92ScF+/Ufirf37vZccMG3dW+xlzHa8wanKusO03a17mM15gA7AsEMogUiFQZFwiNHFoosD4EcWYUQRCRFr7Kokp6ZJ/RBQUEjBmu6HDUEiIvV7YpjlaFrpLz7l3zsFp7GP4fx032wxTAtlsUA//Dzr53N8fGDhjbyhDdseKBPA4B4GbHcqaKOyQp3ThoAUou2HqAjgCkXbNoGZThMKLlENMOQitnSXB5BQgqgGJSpDhbpizavcH1a6fNbPM4lvm7L9Vt1899fK5DT1qh6MD2nxmf7/akZAsOE4LBJEAbiAZBEAoEkfShhYtDEIwdoRuKqFdVkTHlzAhwXpTERktOCkpYM9zEbiQM2rV5mzxBlOsuurmcyel7YOH/1dxs80wJZDNBvXw/6DvXfFkvitsPN03W7+ztqYahJmDEAlBE0iku6ab2C8dKHBAWQ3Q6aexinVqrzSYJhFfKp1BRNDvjzFjEQKKllssBFNVobWRvNi7btVPc0a54845h6/ZGpE95rxfb+uTphkVo+1L0mzZ2asBGBytMi1uBdmcAdVaCesydeYaJh1IgZpiZCANWqLGMTCiO4GAVInLCq0OJbHiXwKNAshbCgzZ/VjOWvOd287+zDNbI1bpmLdcBFIC2XLXZqsc2amX/n4X3xhx6dqKM82nOXAlBzuXgSD0wWAKVOCDY3DdsdAgBtAIlWOVlt7AXxIVfQkFhcWIWB+C2aoSJcgFcIk1D67usp6xoJS33LuE/9r1t82cutVsjO2z5po2Gfnpkk9OMhpGHdrp8TbUEqPEBqrz0whQHfeQQBmmNmO8A0DJJCiuyUIH0mOgDK0PH2wrB8WiB7lCK8QRVvYjWUswwYcmJ37JFGtm7xjOm5u2Dd4qv1Jb9KBTAtmil2frHNznL/njwRHb9kd9vrNzxLMQoIQJkWCaHGQcav2mMKyCgfEQ5uDrs05JxVgJijBibpEkqClrghQUiGLAFForSS8LKkOwWIyyJ9CUCxd7tdd/4K3tXtxx/YzqlozYyRf8fi9pNU+OiX1cbFi7rivVILSzOmMqoQ4srkz6qFCdmaY7zIMUTGenYXouBtJjVOGlgSYQiX9WFBhrBEosCFy01iQw7Pgoy/1NZu068Fde23FZ6rrakp+NrXVsKYFsrSu3BY/7i1fclxdklzNqYdMZvTVoxPpyI5vTLW2rXhUIQ6eWC9mcAyJG9wySBGZqJZlEusQQFXsV1ouYwGRCIAwSlxdIH7jAAHMIthkC5+Fyz+39uW0FC3q7K0sf+tGkYEuC57jzHtvOtscclCmMPr6r3/+0ZDbrr7rAsg74PHHfofWB2bkUyVQpTSSKMpDYdRCz01CAEgmFIHYBKFLTNTSmYWgrjfM8iBAxYhBWizCiQGNL9N1rxG/MvGP2/ku3JDzSsQwfBFICGT5ruUXN5CuznhhvtO42p6dCT6hJEyohQMQMAJNrGY4grujNkHFM58UuelI3mUKioBgAVti/mycEMrC5GiT5dxARgMQ3b3Tl+MC4hGyOQRj2v6BE38Mga48FqvMvC2Yf9x/tK9I+6+EPMNb0cUkap1h2836litpGMkf38iDMgVpcA54TWvaeDJAkBr61ajG6rnR1hwHxgPWBRKMopiR4mkCwoNAAzFjD5lwcOPq84gi4dKHFDv4kyqu+fd8VB6atareob8bwGkxKIMNrPbeo2Xz54ic/5onG7wvetu+6cgweNYEX8uBBBMIIwcdXZmrot2at5aQImJIA15pOTLdppVgQpw+sYUeHDv5MAZECYiUgJhHU3DIYJgHbJGAYAiwu1hrgPxRU181jqvZcx+zNV3WNrWcbm3M7W7kRB/hgHiHA+FDVjZoUs8GPKBhGHmK0rlB4kgKEsqwzqTCpALXBkEBAW2HorAKIMGg+IE6JKbpavoQG2oLTlf3CABEKMEymNbGICoGFfatHNciZTsOff/XTL385aVmYHikCmwCBlEA2AajpLf8PgTOv+vt+PV5uVtG396sSBzyTQ1/sg5F3gJgUokhoorAkaAKxJJKIBIbkgTsow6rqpNe6Tgcm9E09LfyZj4WKREHoewOy8QAWl5AxFGRN6Ia48kxY633MguC3pOIu2yn31+L7HUzeb9Ys3lb8YBPkWncjZvOkfMu4Kb7gu/X2lyFmBGKQwE0TAgEQRBQIs0EpS1sZjAXAKUokWpo09ZzRjYXpzQT/i4kFWONh6flj8SWjsa5Ex8p+FjEo5LJQq/VBub8TWhr4y82OvCmsvXhTx5wZxfRZTBHYlAikBLIp0U3vrRH42mXPf7a75sz2reZPlJgBJYgBCzgEJq0yE7gErJvWsuSmUsAx4wqr17GvCAbWKYGYoiA86AytJBsJN2YCXhRrwUbHsoGIGKgQkDM5uP1FsIiArE3A5gJyDl3mu31/cwz592Kx61WDkTcMG7qpECVL9VRvmXNi8F7S8ahVBbuB098rChPG79xYqpRGUGpuS7k9IQjNXU2n+SORsHes+QpqkQBmmRBJHyKIgGdMLbHuxQqYhW47U6coIxdYimNljE5zRjceWiACXFAUr4xBIYni+VhTSJhuE4yUgkWClqTgY1wJqhDFpZWjW8wbvfIrN8+/9PDO9PFLEdjUCKQEsqkRTu8PuPHyncZPEpmRF6wLyN4ez4BLDOBWFkQkEsuDEDCUADvJO9L9Q7DA2hMuAGcgWKIuG6F7h2B1O9EKvpJysK0MBJ6nxQRz2L61UgGHczBQbFDGIGMXTANdYAHYFoVsxvLD0CsaVHWDEGskiLUiDHsYE/0EVKXmVv1CoUCCOGQG53YUSoualhmG0CAFbc03to723HCMadotRJIW1484NsnyPBybAzFKf+neKGhBBGDYDCpeFaRJdNfGqucBt7MQBTEUaA4sZaKilSYQrAuUui4mAEFCiLVwIhIIBtQx1E7BxPRnooDFCqTvg4wrUMjGbzBe+hEJ1/6iY87kdeljlyKwORBICWRzoJx+Bpw462a7Fm47RWa3nemylj16axTMTJMmgVjEYHACSgSQsThGhHUqK0p14Lu49v2jFUIw3Rd/InT1usRKdpQ6xygKZr3qNF88Fd1fqBmFwWipZT8iEerKbYYZT7j5alXgCGyuwOQEmMmAMVSvHfATJZLzRGAtuCIghNTyKnGM48WxJRljWLQnUU4Et3/UpZIoYMhBoewIpo2RJDEZLQkcN5KgVrVCVxwQcMAEjj1R9HiIVtbVc8N5UgmRjIBwBp4XQM7J6boZZKgGOw+BWwIKAciwu7fBCX7JZOfVaY+P9Mu2ORFICWRzol3nn/W5WQ8WiNE2WVjbnFuq2buXA5R9yoMbhGDZBpicgeu6YDsmxHEMDH01+sAtOIkL4MaKv+PPdGCdZJNNWyapr7qOAuPQWNmus5aIlkFHyXjcmJNNOjmHygio8oFhoyvKgLCB7Kf13wqUDEEiGZAR0VXgWNSniQNHQIBxrt1K2qmEhKYSTapEn0rqcWg9Yk0kCRkmP0vcUWh9JQrFiQWy/hD4sXhNwnj6fjGSiJkB8CMQtQAMEkI+G/ZS1XMHE8Vrbp9z8Gt1/oil09/MCKQEspkBr/ePaz/r0QZiZScRc+RZPsnsuaZcgqZR24JbiyCOFRjcgjAMwbZtvWkmKa1azyQhDpIkFSWFd1z3WMfe6jomgOSBvdmV3rr1GzzGD2KCG/eAmi0W6ek/oq9IABGJUCHeMbFskKDWWw7JJo8buD6wXkUTA27oSBrYxXdAtBBZQTfHWl/Lsp4kMHAx8OlYHIh0sv5bh/eVScYVk1gHQoENCCauJxAv9rXUi2Na2vLIGxmQHmZaKXCo32nQNXMLvPeamy44dFhL3df792ZLnX9KIFvqygzjcZ1x9e+dnpLcPzYK361Zuf26KxGImINtNwIzEj2oMBY62wplO7S1gR0N0VLAaMCAVUCx5lrgG3xShKf3fR2DTkgAiUOgVaGr3NHkSNxXeD90d+HmjTT01mt0/cXARq/7bmiyGOig+ObvCXlg/z90RWnn04CVggFwFIHENGN9zoAYov6ztmgSEtHKuQSTApAcCVBkDIkpyjgeBophiygBpm2B77tJ4BylXIIQpOeBA/Sl1oK6xQpe/eXP5xyyVeqBDeNHvG6mlhJI3Sz1ljfRL8xeuM+6KPvNbNt2h3X3lg3DaIBIZME0CxBLAkLHAjxNHrr2g2CaqwFUq/gm7iokgaQr3/89yroAj2APRLRCcF9OCEQTgb4PSbKdBqpL8H6JZZD8m26AlTigBlxl/4pdEr9IhAsTq+RNr5d2laEPDT8gkWBfL8W+/u9JtT1AiG4pJEmanIPNorQrDtv+gqETBXR/c0wECH0waQSGdMEh0dNMVG5oEpVf//Kyg3q3vJVNR1QvCKQEUi8rvYXO84uX/27PEhS+x8384Ws7K1lCW0DxPDi5AtSCRLZDV2prSXPc/5N4Axbc4aaLGVsYeNYHypijECPuu5ilhfUjA7GQpIYiObTVoTf2/9v48efaZTZgIejGTEn4Xh/rrRD95zdvhaq3iTtL9zZBywa5A4kDuwVq2fV4QOUqKYXUwxwgEFQeDhhaG+iAC0HFkQ6xc3SPKQ5CKHDMLJRLfVCwUYCyAiMa5F+CytoLSfz64o45W7b21xb6yKXDeh8RSAnkfQQzvdXgEJh+/oIdC00TTuotimMlaxgPZiPUIox4YCqsPRAQx/hHkkWFB5VojUgwWKgrQnAj1xaB3soxC0q/9+sefsmfk4A80Rt+cpP1rWB1ppTutfFWKybJhnrTffWWqa0ngvXS6QM3TmwWXayREEkSw0mITxPXW+6PP0MCcTFFl6OUi9BCkxiX4SgkidLtsYQ4imBEYwOosNhlG5UnRWXlNfdefNBTmlHTI0XgP4xASiD/4QVIPz5B4ORZDzcHpLAPtUedUqzCvpXYyHG7ERNtIdaWBKblYlJtBAyzknTdBFogge63rmMKOuCOhIG5uNi+aqB/hs6KYjogr91eA4eWRsFAOzZnQqtgINtJ/zNaM7qPyVvPT/6sSQWzrdBaWf/7AHnoevkBMnrzPO1uS4hr/RcObZaIAvhoLhlMEwfqWGFxIBINFlPKMATHhBCC/n9kDPcXDvTP/9Wc/V9Pn5kUgS0FgZRAtpSVSMehETj63Pt3J/b4IzzZdBzwpl09yaEcxUC5pWU9DJtDFAdg2Rgz8HXxIYoIVmpVoNwAEwv0YrQ9DF2rwZiRWCc62wlFGgeAxiwsHaNIUoK1G2o9MSQ0oS0fzPbSfIIB7re6sgaIAwPdaAxgwF0T0UD8BAPh2kLB+Aw1II6TsWh5RIODh+M1DQgx5sENEJEErgM3AqjwobXBAr/a9YZDawsjb+0vlOP+dcHsqW76mKQIbEkIpASyJa1GOhaNwBe/d1++KEZ8mjVs87VKwD5NnabGfi8GMBzdD9yXPlAuwMQeS2GgCwCx3sO0bAhiAa4XgWlYSYg8Sb5KftfkgeSiKUE7u7BTov7bQF/xN/uL63qOJL6RyKsnLWW1xbE+2wtdVdgEa0ByJSl6XN9idn13QKoFITGegfcWcajdcLbDdbAcXWyu62sdLItRCKolsHWvE/dZi5R/wo2uBXeef+jq9NFIEdgSEUgJZEtclXRMGoHp5yzchWe3OciL8jOk2fDRiFqZShBh8QUEApsoETCxtwiq8mLlOVAIpQRumWDbGfCqNWC64hujIkgi8s00Xi2WroVv/89HhUKNSaxElxsOrMJAvGR9T/IBAklIR+o0XXSv6TwvjGMMBOsVVqWjG03HahIXmm0xEFEMUeyBbTLwai5wYoBlmKCiAEwiwObR2pwTLqx0v3LzmDHBn370zS2rt0n6aKYIvBWBlEDS52GLRgBbwEZB6x4hzR8AVuNRXsw/5MfcNp1m8IIIOBNADapJBR1IWDWCvdTxbT+KIsAeIugaSuImicbWeutD1xOuLwsfyKNK7JV/JxAECYlg/aFjIxS7A2JcRmgy0fUnSGTaFYbiJGhlmCBRsyoWYGBtByoRIzeh7DoG3CMBtsGRCDttHrzIVf/PVdTzyK2zD+3aohcmHVyKwIAlngKRIrDFI3Dq7AWZ1126G2EjDlGs8UinMOJDkaSGH6HOVaxVeRXGQLIYAxHghYGu3sYKb8y20kKFWg5lIPaBkulafSR5hxKaSBKCQEvmrRlZb4IzUDWuyWTA7YVpujrFeCAOoq/XzKS1dXVxIGZVIVFgtlgU1rCfO3huP7Q2ZMBSqtOxxV+K3avuYkb1T7uzv776fsvNb/GLmw5wq0UgtUC22qWrz4EjkZRU6y7VgE7kTuMk12e7Em43hURpqXRq2sBMS/cZoVh4iM2qMKSOFeNoHehOf0mNBla2DxSA6yC5rh8ZSL/V6GKi1YCulu7RoQPvSDADcY711e9afkQBKs1jOrC+h+6mSIHEKBIpIPZ9MKgCgwZaYl5G1ZWFHHlOVLvvJKL41J2XT1tRnyuaznprRiAlkK159ep47O1nzHWkWZhAs9vu6Qvz8GxDy96BItsXKzXdwS+WTGfGGtTWAWqMhayXG0Gi0ATCAASNdcV64n4aYIQB7StFMY0XYxzorUoKBXXq7gCNYCOsRDwRiWe9jham9q6XV+FgEpSVp+AYDLImrQZe8bVy7+uLGpvMRX5p7fP3XZ0GyOv4Md7qp54SyFa/hOkETrzyz6PW9Vc/2NywzWGeYh+JhbFNGLMxUcxshUKLxNR9NN6sFcF4CMqF8AG5k/UiigPxEK2Aha4tmpBKIsCOAfPEVYX8ogkIpUii9eQjtFy8VvzF1Fxt9WDbKOiiKl5jc7mUyWARhL3/sGN36a3fP7SWrlyKwNaOQEogW/sKpuN/EwF0b/VEYRuD5m0Jy+5qZFv257ywixuqsYSZrW4QEsIYBBK7GAptoRDCdU8SPGJsq2tYOsHX930wTUy/FToAr+VPkFBkCLZpJv9uWxAQCoZlgohCsA0KFoMIwqDTYWJF7JZ+71V7njJ59Br3utd0XJO2mE0f1+GFQEogw2s909m8BYHjzr6/KVB8NOH5D2SbR+5edd09qWmPrHp+M6GsQUiWpzyTiWIwLdOGSCoIwxgME6Xkqe5JYhiGrgzHlGDLxGZXiTqwZaKbLKqBycqEqTJTqpLPGKvjsPp3poI/1YprXs378brU0kgfyeGMQEogw3l107n9EwInzrq3sdOTOVOwgpUpNJX9uMEubLONMuwJtpOZAJQ3GYaZUwoM3wsoZUQyymUURSJjWaGMRU2IsF+K4A0RhK9HkbcmCou9ba35spJuv1/srDaNn9D/0y9/LKlOTI8UgWGOQEogw3yB0+m9NwLts5433WBFdmRTo+NLZVdrkcEsRtGFhc2t8hlblMtumDNZICtl37Sy3i1z9vff+87pGSkCwxuBlECG9/qms0sRSBFIEdhkCKQEssmgTW+cIpAikCIwvBFICWR4r286uxSBFIEUgU2GQEogmwza9MYpAikCKQLDG4GUQIb3+qazSxFIEUgR2GQIpASyyaBNb5wikCKQIjC8EUgJZHivbzq7FIEUgRSBTYZASiCbDNr0xikCKQIpAsMbgZRAhvf6prNLEUgRSBHYZAikBLLJoE1vnCKQIpAiMLwRSAlkeK9vOrsUgRSBFIFNhkBKIJsM2vTGKQIpAikCwxuBlECG9/qms0sRSBFIEdhkCKQEssmgTW+cIpAikCIwvBFICWR4r286uxSBFIEUgU2GQEogmwza9MYpAikCKQLDG4GUQIb3+qazSxFIEUgR2GQIpASyyaBNb5wikCKQIjC8EUgJZHivbzq7FIEUgRSBTYZASiCbDNr0xikCKQIpAsMbgZRAhvf6prNLEUgRSBHYZAikBLLJoE1vnCKw4QjMmjWL/vnPfza6urrY6NGj4dVXX41ffPHFcMPvkJ6ZIrD5EdhqCeTUU09t8OJ4R4Qsa5prb7zxxjc2P3zD8xOPPfbYVinlKBazoM/tW/XQQw8Fw3Om/9lZHXTQQQ2c8z3iON4xk8mMIoTkfN9nQoi4qamp6nlebxiGKwDgmUceeaTrPzvarfvT29vbnTiOxwOAUEp1/frXv+5/pxkdeuihza2trfuGYTiGc/6i53l/e7fzt25khjb6rZJAjj/++BF2JnOSaVvTFICKlHii1tN38+233/7y0OBIrz766KN3b8jnj3Ec51OEkEqt5t3eX+6/v6Ojo5qi8/4g8KlPfSqfyWQ+Ytv2AQ0NDfvHcfxB3/ebbdsGQggIIYBSir9cAHiFELK4u7v7CcuynlywYEHP+zOK+rnL5MmTmxzHmeo4zhTGGHiet0hKefvbPdOHHHLI9i0tLccZhnGi4zhjpJTLSqXSz7q6un6yePHiuH5Q27CZbpUEctJJJx0OnP33a6+9Ns5ybNhm7JjXa+Xa2XfffvuvNmza6VnvhMBRRx55uuNkzluxYkVrU1MTbLfddk/1FHvPvuOOO55MURs6Avvvv//ODQ0NM+I4nh7H8R5dXV0UNzXf93Fjg8bGRv07/gzJhHMOo0aNglwut1pKeV+xWLz9scce+8PQR1I/dzj88MMPMgzj4v7+/k8grplM5g9RFJ12//33/+1fUTj44IO/IqU8q1wuj0ciz+Vy0NLS8mfXdU9duHDhM/WD2obNdKskkOM+//kThJI/fmHJi3nTsXGT80GqM++9c+51Gzbt9Kx3QmD6tOkXA6hzX375ZZLNZuEje+21qq9Y+urtc29/MEVtaAgcdNBBuzY3N58aBMEXent7m/r6+vQNHceBfD4PDQ0NEARBHMcxk1KSWq0GURRBHMf6nHHjxoWWZXWsXbv2ikWLFj23oaOZOHGiZVmWI4QIFyxYgFZNXR1Tp06dbtv2j5ctWzZqgJBfAYAvPvDAA7/7VyAOOuigizzPO72npyfnuq7Gva2tbUVjYyOe/0RdAbcBk90qCWT69OnTrWzmJ39/5h8tzDRg11139UQUnzHvjrt+sgFzTk95FwQOnzr1vFwuP+vpp5822traYPfdd3+pr7f/63fefedjKXCDRwDdKHEcnwkAp1UqlQKSR0tLCxiGERQKhecZY88GQbCGEFJjjNm2bY/2PG93IcSuPT09DUgiaJE0NDQEbW1td/wvAV376KOP/uO9RjRp0qQ9CoXCEY7j7OD7/tr+/v65Dz300N/f67rh9O9HHnnkZMuyfrJkyZIxlmXBiBEjlgghTnjwwQf/+q/z3Geffc4Kw/Db5XJ5BFqFSCBjxox5QUp5yqJFi/44nHB5P+ayVRLI1GnTpmQymZ8tXbZ0lJ3NwNhx25bjIDz9vrvuvvn9AKWe7zF18uQzOTcuXLlypYNfnt122+3prp7uM+67775/e1urZ5w2Zu777bcfN03z6IaGhjmvvvrqDkgEiG1DQ8MSKeW9nuc9CgBLHcdxOedxEASEc553XXe8YRifYox9LgiCvdauXQtoFTY1NfVblvU/UsoLH3roofK7jeW44z7/LaDq3DCIR9iO2RX6way5c+feuDHj39rPPeywww42TfO6V155ZUfEvamp6e9KqZPfjkgPPvjgAy3LOt33/QPDMHQaGhqKnufdnsvlLkgD6f/+JGyVBHLEUUdNtG3np0uXvTSWWyaM33773sB3v7Fg7j13bO0P+396/FMnTfqmZTkXrVy+soD+3wkTJjxZrfZ/965589K3r0Euzmc+85kPNTa2XOa6tUloeeAm1tra8rzvh1eWy313/+EPf/De5dbkkAMPOZpzerIfBPuvW7eO4Vv06NGj/xF44RmLFi9a/E7XTp06NZPNNl63as2qE0ulCrS1tYBtWpd/Yu+Pnjdnzhw5yOlsdZcdcsikfQqF3I9Xrly5h8E4FAoNfwYhv/TwYw8/+6+TaW9vZ5EfHRiG/rH/+5I6xjCNP4eue8c9Cxa8sNVNfDMMeKskkGlHHTXFcDSiKfULAAAgAElEQVSBbGOamkB6fM8/7f6Ojrs2A2bD+iOmTJxymu1YF618bWWjJpDtt1/cXy6ffc999/xpWE98E05u6tQjjlVKXtPT0zMyDEOM2a2rVqs/9Dz+0yeffCAJhLzLoS0YxqYIob4Xi/jDIhYyl83+jpr8ew8++OA7xkIw9kG4fcO6znUn1VwX4yyipbnhkoUPPDDrvT5zOP375MmTP9PQ0HTds88+u0chl4dRo0b+oVaqfWnhEwvfkRQOO+ywkZTSnBBibT3GjTZ0/bdKAjli+ozpdta+8YWlS1rxbQwtEM/1Tnvg7rvv3NCJp+e9PQJTJk36umXZc5YvX9lSKBRg+/HjnyhVS+fOSy2QQT8yBx988LlBEM3u6enRcSWMYVSr5XMffvhhrPHY4OOTn/zkV0e2jthHKhV7Xu3xWMpb3yu19LCjZlzT3dX9zWKxSJubm6tSRrP/9OSTP9jgDx0GJ+6330H7jR496rply5btximDhsaGP3DJTn5g0QNLhsH0/qNT2CoJ5Mj29qNNx7n+haVLmgcIpBh4/jcWdHTc/h9Fcxh8+OTPTv6aZZuzV6xY1YYEMm677R6v1srnpQQyuMVtb283fT+83Pf9M0qlEqaQ4q85e+/90Qs31o3U/l/tTpEVtwlJ6I0aNaqro6NDvNeopkybfmVPT++3Pc9jhmGUczln5uJHH732va4bTv8+ZcqUA03Tun758hU7ZWwHbMv6YybfeNKCBfcsHU7z/E/MZaskkOkzZhyLBPL8khcbBwikL/D80zY3gaC/1HGcRpbNNthg5srlkspmTbdSqZTiOC53dHRsUimKww47LM85zxUKBatWq0nOuWtZVvWWW27xB/swTZw4+auOac9csXLFKCSQbbfddlG5Wjv/vs3swkJpj7+8+OKIPKWtYBgm5zwq12qluGr2P/TQr941cDzYub/1uvb29mYHHIeCJ2oAxcGu5X777Wfn8w1XdnZ2fgNTckePHq0ohe8tWLDg++/HON/tHhMnTixkG1t+0F3sPQVjL42Njb6Igoue2mefy2Erj4Gge665udnqV4oFXV2yr6/Pffrpp6O3w+OII4460LKtHy1dumTXhkIBY1B/Ukqc+Mgjj2w2Ajn++OOzcRw7NAhsYZpSCFHr6OgobepnYFPff6skkCOPOeY427ave/aF5xuxenf89tsXXa/2jQc75m1yCwT90ZmGhl2zTvbjtpPZNQ6jCY0NDdt4npe3LEsqSkqe73dKIVbUKpUllmM+22kYzy0ewqb+LxvbB2zb/lgYhrsahjFBgmoRQtpxHAtCoCKF6KaMrmCEvVgKgmce/vWvN8pNMunQKV+xbPOClStXjkYCGTNm9EKv6l0wb8G8v2zow3jEEUc0UiF2odwaTQgxotBbnm9qeuHWW2+tvds99Nu6EHsyxvbKZXO7CSm2bywURoZh7NTcWmibVm8k5NrQD15hBn+ur7vyl4UL563d0HFpOQs//mgYhSMM23itv7//+be6gKZOndpKCPl/uLaB6+7S2tbaRhj1+4vFPxqOc+ttt92G9QMbfXz2s5MuLZVK363VahzrPdra2n7c31+8YPHixe8op7HRHzJwAW6sQojRMfBtHcfePZfPn7G2q/MDWJyolIK25sZHpVI39ff1vdqYzfpxTAqccxEE1WVvNx68Xy5n7lQteW0GpT3zH/73wPOGjnXSpEk7NTi5nf3QKxPDWDZv3oavHX7GgQdOnpDNOh+VMt6ZcjaaEpKPoogrCSE3eV9/sX+1ZZnP5XL20/fee2/v+nEdeuihH2lpG/mT5a+99rE4ijB9+ikhopMeffTRt1WuQNIvOM6uivMCDYLX7nvkkdUbOsf15+mXO+B7UQ67u64/1nGc1sD385xSx8k4yvf8MuP8DRHFr5g55znXdV/YGmMtWyWBTD/22GMty7rh2ReebxggkM0SA5k2bVoLNTJTbNs8zPOC/6pUKiOklKxarQIG87FIKQgCna8/YmRb7Dh2t1LwVxFHc6kSj995551rNvZBXH9+e3t7LgzDyblc7shyufwpzvmIUqlkSCl15TK6RjBAixk+pmnWbMdZl81l/ui70R3VamnRhupZffazk091HGvmyuUrx2Bh2zajRj9Y9cqz5s+f/2858283l+nTp3+MU36sbZn7iDgeRYD4mVxmUaXk3nR7x+1Pv9P8J37ucwWouEdTSmcYhrFXd3d3C86pt7dXVwOvr4PAnwFAOGrUqFdcr3pvtVKZt/BtKorf7nOwHsBg/BuEkl0KufzTbq3689vuvPOBZHM68EOtLS2f82vuYZVK5QO5XI7jWztuuqNGjlpn2eYVxXL5hg3F8a2ff8ghn/1aFEUX9fX1NRuGAdtuO+6pUql48WOPPfbwYJ+Ht7tu4sSJYynlhxmGOZlxY0dq8JF+EBR6+/vA9T2N46iRbWF/b/GlXCbbzQCUENBIFFSzjjO/XOu/c/78+f/0jE6ePPmYEa0jTo2iaJyU8ZJYysvnzp371MaOu729fWeH29+pVasHOI5Tcmu1eyIqf7iBmyaZPPmoT5s2PzGMogM8zxsJALbrukREEc5LBYEfMcbdXKGw2vO9hYSpW55YmATJJ087enebq5+9vvr1T4ZBAK2tbYtNk538wAMPvPav88AXxLyTn1JoLHzF8/wxpmX8qVrzb7v//l+/Y7bbv95j+vTpuyhB2h3bntRb7J0glcrHgWcyLIMHAPzOmqYplVJexsn2RnH0UjabXyxCcU/H/I6XNhbb/+T5WzOBXI8WCLqwtp8wocf3aqfd3zFvk2VhHXnkjE85jn20F0VH9vX1jSn1l/Xmgs8E6hbhxo2FR/hndFUAUfpBwaDp/1axrooD/0Ep1K/uvbcDv3xqYxZ92rRpexJCjiWEzPA8b3skjGKxCEie+Pn4OxKX3lnDxGvmZDP65wY3l4BSdzNGfzl//vz3fIOeOHHil0zTnrlqxcqxKKsxctSo+12vOnP+/PnvWXx2+OGHf8YyzHPDMNy33N/vIKmOHDWqxzTMa/04vOadLJBDpxzxccbJcQY3j8HNAeeGJIwH1j0grjhPxBXnh5sw/n3M2G0CythjfX09/1Mrlh56t3TYQw45JDtu7LizKpXy99asWWPtsssu4GScucW+vl9q0gdyarG396DA8zL4d8QY13IgaypsGzHyulJVE2llY9YOz50yZcp/lcvVa+M43hury1tbW0NCSIeU8fWPP/747zf2fu90/sEHH7xvPt84q1wufaa/VOFWxgFAbS183CjR+Dm2CSAkYDprHIQQBbF+jnfZZZff1tzaOXfffec/jee4Y4671nVrp/X399PGxsaybVtn3jl37s82dszHHHnMYZSRH69ds2ZbXFPG6HyTwdc67r//XUVQUdhQKf4507KOB4CP9RSLpFKp6GcAXyZs04T1L3BYOZ7J5cC2bC9XyDwJCn4iVPyGya0xnJLLXnvttR0d28av3yO2bZ3yyNtYFtOmTRthm5kzy+XSadVq1Rk3blyX6/oX3nPve6tc4DOWtfNHCyEOC6Pg057nteBzhM9yxjY1zvjnAT0uDSEjXM8lXyj0EoDfxgrujlV4z2BeVDZ2Td6P87dOAhmIgTz34guaQLYbv32373mnPXjPPXPfD1D+9R5Tp07bt7Gx6ezeYu8BK19fbaJGDm7Otm0Hlu0UHcfpI4SUCWVMxmHB9dxCFIYtruuZMoq1ZTJmzDaeaZmPMsJv6Oi4Y4PfPI899tgP9vdXzjcMPnnFihV5fAjxTZIQIhsaGns4JyXDMCpxHFNKabZUqhTiOG4tVyr6bQcfVtMye1qa2u4khP33/fff866CkxMnTvkSITCzu7NnLLpbWlpb7gsjccF993W8q3TGtGnTdjdNa05PV9dh3d3dnCgFI0eO6mtra32IU3LpL+64421TJg+adPgejQ35mb29vYf19PSY679kba1tnmlZRc5ZMQwDj1JmAEBTuVzGiu4G3CwUCK0dNXJk29+Kxd6rFj/y2Dtm4aH1mMvmLu3t6Tl12bJlsOsHd4MPfOADKoqipX19fbzcX9px+fLl4FgWEEqDfC7nCSGI7/tmQ0OhM5fN/tCNohsH88XGjYUQdpYQ8Wlr1qxtwvXL5/Ou49gPoVglY/DYokWLhuwP33///T9FCD29r6/0GSB0hJVxSBTHIAlArpDXVpyIQxBhFHDKgsD1wHcDnnGcWltb2+8a8/lL7pp31z/pQ02ZMvXnUqqTli1bCmPHjhVNTU3ncM6v3pAA/lu/RzOmTf9iFMtrlr74YgHXLJPN/tbK2V968MEHl73TdxZdipSap3hBcFpPd88YJF/8vqNGm5Cy0zKsdYooLKpUtUolb9l2W9V1R7quazW3NGHFeX8+n3+Zc17s6+k+ZPny5URJiTU498cx//Kjj/6ztYXjmDq1fXuDiot6i8XP9fT0wE477YRvgxffe989F77b3oJrnM82Hl+plL5ZrVZ3rlarFMnCtu3YcZwew+C9QsT9tmnFURRlGWNNcRQ2e27QhPNinGNhqcrkC89IKa91/cpt75Vhtyn2uo2951ZJINOOPvoY27avf+7FF5oSAhnf5bne1x+aN+/ujQXgvc6fNq39YMbJdysV9+Curi4wbAvfGPoZY3/mnP2eMOMZwzBfs4jRB4D1YGY+FOEOlNFPxkJMDGre7sVi0SgUcviAxJzzRzgzz7/nnjvf843+iCPaPypldHoYhkf19vbaaNEUCoXIssxnMpnsb1y3+vtsNvtKHMfrawnyjLHtpYS9c7n84atWr9qjUqkwfJMuFBqLQOBux+I/eLcv7aRJU076X0xmd63rHocbXXNL871Cwvn33dfx4jt/0ad/MPT9mbEMp/YX+5wg8GBkW9uK5uamm4Dzn3Z0dHS/3bUHT5r04cbGlu8Wi8UZxWKRI3kUCoUwl8sulgIWRjJ4UQq61radqFarMU5JXiqxk+M4+wspPrtu3ZoRhCht/TU1ND5JCL3kwfnz35acsaiOAr3ANI2zX1y6RMuIYN8N3FTRwvFdHSNYZxnGb5SEP0oQqwvZAi9XKzs3NTb1ilA92LGgY/l7PS/v9O+TJ0+ewJg5p6enewaSEr6ENDc349iXCiEWBUH4G8cx/+553sqhbByHH374buvWdX8in8/vYGYyO9qOc8jyVSsbcZ6tra0AMn6WKrLQc711SsShyXk+jqQ/cvToJ+fNu+vf4lxTpx5+da1WO6OzsxOJuprP51GV4KaNxaH98COPkxJ+9PLLy5rRNWpb9kKWMb7yTqnMGHuJIvlVbphnrlu3boyUyYtTU1PTGiHE/eVq+dHWUW3PKd/vtW1bhmGYdd1wnOE4B3me1+449gf7+/v1ix4STrXUry2VjOOgtX6f41hfXbhw4b/Fz9qnto+TBlxc7O09Ht2nO+20U1CplGcufHThle80ZxyrQZ3/3957gFdVpW3Da/dyepKTDgHLOHYdx3mnOrQkpJ0URMSKDVSwN1DEgoqI3bGMOs6MMxYMpJCEQGhRRv1mXh31m2KhQ3pO3afsvvfHcxR/SkISymTOf+1zXYgXZ5+91r7X2ute6yn3M0+UxdmxaOQHcGqFzZeJ0HZd09cwHPs309S+dHNuv2RKOkcQHM2yWd29vec4edfPw5HILzRNzRMVGVEUg7yZ3i80VXulYHz+71599dUBAwNGiv/xuv7/LwTSK4nS3NUrV648lkDBrpWg2JdlSZ7e09OTNBPZbbY9DpezTjXUN9Odzi8G24klM1pVtSiRkC6labpo+45d3u+E3GIUTb+GmeRTzc21gx7fIWqjr69/KUmSV27dus0OL8IJJ4z3i6K4lqKYN2U58WFbW9ugTmkwZxAEeVVClEtjsbgXFmfYCTmc7ldNHX+ura1+wPoSZWW+yxAyF3d39Y4DE0F2dk6tJCv3DXZyKS8vz9MM7N54LH55wN/ngDDJrKysfymK/AZGYL89XB8ray56PBqL3hQMBnlYUMeNGwfRVfWaJL/S2to0aOb7z4uKMu0kealpolv6/L0FYJopGDPWFCVxJWlii9avXz9QfD9eVVV1E0LoERDKg7EQZQmZugEvu2kYxt9UVX3PQZLvtba3dxzLebTvXhdccMEFLGu7VVWVwkgkYod+wwYIdtAej6dD0/S/GoaxkWWpDwVBAKf2EUfTQZtTpkwZqyBigapr10YiEZIgCCEjzf0UZZqvDLe+yOTCkkXI1O+JRCK8zW7vYyh6bltb64g3atW+6hqCJH+zfcvWHCAQnKDqTUK/aePGjQO+A0VFReUcZ1/W19f7Q1iQaYpFGenpn8iy/IbN4X2vvv7N753kB40VVlrqK9ZxNFfX9FJdkZMnAdjlw/ubkZ6OEMIaeJO5ftWGVb0Hj3NNTU0OidMPBYOB64BAxo0rEBRZWdCypuWlweZEaalvaiwaWxqLxc6CeYXjuG4i7X89nrR3aJpcvmrVoe3su1fxxImnYxhVHQoJFRoyzjVNk+J4HuXm5f1dEGKL1q5dlfTR/bd+UpJAaqZfPIPhmZf3O4H0yFJibsuK+rpjCfTFF19+eTQWfbqjoyMDJvGYMWN2Gwg9YzLEOxsOMyn270NJyXSvYcRuwglqdl9fXxZM5jFjxuwUE+KyNWuaXh7MH1JUVHQhy/JP7NmzZzyYoRwOOzjkn6Np29ttbU3D2glfcsklnmBQuF7VtHmhUCgXSCQnL38nQ9NP1q98d0Dl4vLy8ksRIh7t7OgqAFu115vxjhANLdywYcMhDseqqqpx4ah4J0LYxV0de9Jhh8ux9Be4iZ4NRoJvDRZWCfiUlNT8lOapVzs7O86Ek1Vedk4sEos9x9P862vWDB05dt55sym3d/dVNEPdHQ6HT4yEwig7J6cfN9ED69vaANdDPsXFxdfbbLZHt+3Ynga26fz8/GTtDY5hN+8Nhljc1tYGmlTH9VNaWlqg6+Zs00SXxeOxsWDP3yfbDicSyNXAcfxrSVI+03X1U8NAnylK2j8//rj2cHIng/Z5YlHJ1eFwZKmmqRlOh7OLItEd7RsGN/UdfKOJEwvvJShqfl9vr8PhsPV43J4bm5sb60cKUlXVtGkUSTy/beu2ZHQfgZH1pIHPXbv50FPAxIkTz3Y4XA8lEolKMCN9e/LI+NTGcPe8u+KtYYl6TqmoGEsh4mEpHrskHA5T4GeAD01RcL86DDOvb21tPeRkPLNiZobJmw8HA6E5gUAALygoCOu6Nr+xqXFAodayorIzNIRujkajl8XjcdDOAr/dRoZlFjc0rBiW4/1nP/sZ57R5imKJ+FwVggRkieA4XsvKya4VlcSS9YdRGxjpOBzr61OZQMCElUwkLBg3rkdJiDc219WNeGIPBujMmVeeLoSDT/T1+0thgdt7dI8QBPG67uQeaT9MNbOB7jd9+vS8mCDdJyvyld29PXxOTg5ibXxLQhHntQ+QjVxRMe10kjQf7O7umRaLxTCv1yvTNP2WzcYtHGnoIxCYqkbvTsjKdZIkuaB/Gelp6x02540rVx5agKu0tPISHMOWdHZ2Jk1Y3ozMP0mKev/q1XW79n822N0inLxVVrUrhGgsHZkGSnO5vzB07UUMM35/ODMM5CeQlG2RKEvzIqEgA0TFUMxKk8HuamsaHjlCXyDsNxCJ3Gwg477e7h43mA3cLte7iijd1t7e3nPwWEyaNOk6h8v5WE9fXwYs3PCyp7nc/0iI8d9s2rDp1WP9cg12P3h+TTMqDUOvlCT5R6Zp5iuKQu07kYB/x+PxmA6Hox/DiX8ostQqy3rbBx8MX8J9X9s//9XEyr1hyy+pqpqL4/hut9tx9aZ164a1CMM9fnlB4T0sTy8MBoN2juOARW5YcwQEUlNTM4MgqOe2fLMtC8aJJIhVJI3dsG7dukMiEwuLC+fiOLG4r6/PA9IjHo9nF45Ti+vqan83kjEqq6k5gSfppYFA4MLId+YshqKBpOtklZrT3n5ocS7I/8ExcnEoGJzj9/uJnJycMEOz8+saVwxIIBMnF95O4NS8YDA4/tskUe6fOIE/tmZ104h1+SZOLLpaVpRbFU07M7nBGZvfo8jKM5vWtQ5qPhsJHsfjWotABkG1rKzyHpZm7tm5a5cHJkZ6WnpzJBpduGnTkRWVqSypPE3D0KtCLPoLOBq70jwd6WlptzU3Huq3KSsruxXDiAUdHR2Z8LLZ7fZ2hIzFra2tG49kEpSW1hToSHs5FAqXJCNCeL6PY9n5q5vrD1EvLiuruozAsCV7OjryYadot9t+J8novg37HfcnT558gmFi8zXTuDAYEjwQbWW385+5na5lTQ1DC1qWVFT8GifY33Tu2XMGMnR08kkn/12KJRY2tTa0jvT5ioqKMhVk/C4Ri5eDmWJsbt4WwzBuW7t27SFH/+KSkut4nluybceOdM3QYacoMAT1WJrb/dKRRFeNtK8HXw+5ArIs/9gwzEIcJyfhOHZKOBxO+ivA3AInRtu3DvcAgeOfKoq60SCxlva2tn8Ot+2JU4ovEiXp+UQikWVjuQ6Woa/dtGn92uH+/oJJRfMpklooRCM2hqH7WZa7fv2alhGf9Gtqai4BAvnm660ZsDGhKKoZJ9jrN248MAprwoQJbophXvX7+6fDxs3lcGqZmZmLMAx7trZ25KewoqKyn/N29s97du0eD3h6XG4wMdWTNDFnoBMImK0Zmlkc8AdnA4EUjC0Iqqp2d8uapkPIq6ioaAxBca/4+/3FpmkSTqfTT5D4AhI3/3QkwRa/KinxGgnlesM0bxVFMbk5Zhm2ieDIGzYOEa023PE81tdZBDIAohUVs3lD660VotHSWCyK0tPTwiRB3rOmreWodqnl5b4FsqLd39PTw/EOu5Gbk/syiemP1NbWfr9bhmS3UCjyuqZpl8BOFE4+Tqd9EUmSrx3JC7Tv8YpKfDfsdUQvjkSiSVNThjfjnXA8NH99U9Pu/SGoqKi5BENoWUdHR27S2clxzypKHHIWkjbnCRMmZHs8abfu2LNnjmmabooGeey0f5qa8oymiG8OxwE8obD4FppmH+nv7bNnuN3I43b/1h/sXTyYPXyoST+xuHApZqLb/X4/meH2QDb+UlEUHzu4L+W+8usIgnziq2++cbM8hzie/8LF8lBp7m9DtXE8v086YSnqzHBY+AXLcj/ZG+J7eiDgH4PjeFo4EknmGIEZ0263d5vIbOYY+vGBTIoD9bFwaumsQDD0tCrJHqfT2W3j6dltbW3Nw32ewrKKexJx8QG/3895PJ6AN917bVPDew3D/f2+66qqpl1GUuRzW7ZsSwMCIUiyhcTZOQcTSElJyU9VZLzZ29UNdeJRXk7ul6ZpVtXX1w8arXW4vgC2imK8gpBxBYQi2zgeouxWZdoyrq1tPTS447sTyGPBQODa/v5+4oQTTggYun5nQ1PDHw7dANSU9fsDz8USiRNhjMaPK1gni9FLjqbs8KTi8h/JkrgsHIlOMjEMpbmdO9xO57zmxpX/lQXdUpJAqi666CKO4178x7//lUGDmOK4ccfUB1Ls851ko/imjo6OH8IuKDcv5++YqV3e2Ng4aCTScF4on6+6EMPxV3fv3jMO6pjkeLM/VhTp3v2TlCBaxzDQn/v7+38Gp4X09PQvaJq8YtWqVYdITw+nzX3XlJT4zpVV9XfxhHQu+HPOOP3Ur8DmWl/7zgGnmqqKadNMDD27Z8+efJfbYTAUf5+JKa+uXbs2CKaXsBC7n6GpK1VV84qKijKzsv2SJC9oX7d62JE5RcUVz0iacms0IiAgEJ7j/qTJ8nMtbT/+DKGHDAhA2L59O/7pp59CDWrImcEeeOAB7N///jd22mmnmfD3vuCF4uLik0iWvS8Wj13R192NZ3kzgXT/CEWBoM/7Y1RZWTnHQOYT23bscIK/ARz2yGa/5i8tQyvijgTro7n2vPPOo1yuzLEsS1wQjycuNEzjJ4lEIiOZW4QQRG6FdU1vJAj0Snt7+5AS+4Wl5ddHhegTqiQ7cJzosdvoOZs2bVo13D5OKim7R0pID8qyzMJJCEPm1ZvWrRn27/cjkJkUTb2wZcu2dIfNDnkgTQxLzjk4Esrn810dS8SfCYVCzuQJmLe90dLScs1w+zvQdT5f1WW6rj/T2dmZYedtcAJvJij86oFOIEAgBE4tCfj91wCBjBkzxs9w3B0rVix/c/97g/kUGfj8/mDgzkAo4vB6vTrHM0tbGuvvO5q+QhZ8QjYfM3D8BlEUWZfDkfB4XItaGlb8VwpgpiyB0DT9m3999aWXs7EoLz+vR5PVY+ZEr54+c5IkSX/u6e7JgZ2qw+lYSegKTLij0mCaPn36WEXT/xDwByaCiWLs2LHdsqTe17yfKQlyTuLx6GuRSCS5A7PbbQ0UlSSQESew7T+Ri4unp5EM9qLf33sxmHpOPe3UoKYqd9avWH6AGau0tKKSZZnndu/cVfBt6HHa86osvyvryE+SqFhVlfl9/f15SfNCWjpKz/B+Ho1K129qaxyW3HsyPNOgX0uI0uWSGEceF9Scdm+Nx+LLRVHcpiiSxLI2O4kTnGGYKsUwOonjJEYQFEFgOGTGqaqsGKoR0kwlQRDUOQ6H45Kenp6TIMwa/EsEQTYjpN94cKJYebnvehOhJ3bv3u2AEF6cIF4W49Gbh3NqOppF4Uh/C9If0Wi0zDTNahzHz4nFYo7vQkQjJEm+TRDEvUPJoZSU++ZFI5El4ahg53m+m2OZOe9v3Ng03D4VFpfdo6jGg7FEnOV5NsgxzDVtrU0jPoGUl9fMoEjihY6OTi8kMdrt9kYdkXP2N42CM3ns2LGLhFj07t27d+Pjx4+XpYR41/r1618Ybn8HJJCpvrMojv7Tjh07zoJ8GIIgV7MsNWswAmFp2+Nd3d1Xh8IBIJA+w9DubGpq+tP+964pqcm3pTuf7ujqmg7hwplZWWGKIG/f/10+0j6f+/Nf3m7nHff29W34V2sAACAASURBVPWnw0YnJyvzVVGQF7YOcGI60jaO1e9SlkBIhn7+yy+/zEoSSF5et6HpUFDqmITxVl8449JYQnzB7w963OluRFP0y7IQPOqFBuRIVN14QogIN4ATNzc3R9BkbXFL6/8nrFdRUVEZiyV+IwhCMhPcMIwXN23aMO9oBxwkGlh72gNiIn53LBajC8aNlQxDfbRhxYpH9r93WZmvDAikc8/uE8EGm5+f1ynL6ueSIps4TpzT3d2dD6Y1luMQZ3cgnnd/FY9Hb/7w/eFFMIHdXzPp17u6+y8iSRwxDIYoHEOyosQZmo7JkmTgOE5RBE3CCQx23jiOExjoQOA4gXAMNwxDNwxDMgxDo0icjwlRHicJBJjCrtXlcq3FcTS3tbV12/7PVlpa/j2BQAQWQZJLVjevuvdosT3evy8vLz85FArdSBDE5ZDdDJuPcePGdYii+Iiqqn88XLhvaWnFbdFYdHFIiNiAQFiGvv6DEZxAfFUXLQgEQw8EQkEmLc0ddCRNfk0jfs8umjbzIhNDz+/asSsLIqJYmq7XcfXG/YMdpkyZ4tpbvH1JMBi8QTcNiJLr0wzz6lV1dUcVylpdVJ3Jutm3vvr66ykwT3Jzc9aQJHFlff2hoexJEU2KX9rZ03MVEAioHjscttuXL1/+1v7jfOn0S0/DSOqVLdu2/ErVNajcuTsWjV7f0LBixH68g+fPL6cUXc0y9oV+f2C8rqvoByed1BqLxRauba47IMnzeM+74dw/JQmkesaM6ThFPvfVV1/lsDwscvnduqrd3Fx7bBIJq6bPuEEQYksFQXBkZmYiVVOfWtey6q6RSpAcPACzZ8+m+vr88xOieF8gEGCys7NjmqwvWbuu5bF915aWVsxMJOJPR6PR7KysLHA2LmtsrL97OIM51DVTy6fdpcjig4FAgM/Ny9FsPPf0iuXv3HPgIuubyvPcM309PT8EZy48PyzkiqYi0IYCk+E+KQmSYRHHuSLRWPQxUyFf+etfhz6hTZ5cnW7i6muajlVHo5EkgeCmgSiSMiRJVEAjCEhDU9S9gTgECJpAHD8GxIHjyf98213IIETIwDFMZxjaiMXimKapWE5Onl8U4ytxHHvoYBMW6HwZpgH+HefYsWNNiiQXNzU1pkRxpdLS0mzwYSGEZobDYRv4Eex2+7pEIjF/8+bNgy4sZWW+O4Ro5OFIROB5nu+kWG7O5k3rh70gFxZX3msic5E/GGA4jgmmO91zmptH/p6VlFReyLHM89u2bs2BxD6cwOsMk5rb3r76e//f5MmTYce9NB6PX9PT14vGjx+/PRwMzdqwYcNRlVMG06vD7vxjZ0dnFRCTw+FYi2HmFQPlwgCBsKx9WVdn16xQOIAnSUxTblu9evUBQq1XXHzFuRhJvfr1lq9/TFAkSBZ9qWvaDU1N9e8P9R4O9f0FRSUzSIJ+IBwOn8pQFErPyPgrz9IL33v7zfVD/fY//X1KEkhlzfQLKZZ65stvvs7/jkC6dFW75VgRyLQZl9wQCIaeiMfjdq/Xa2qK9lRbayMQyFF9wG4qivICWVHmQ2Z5VnZWzNTRY2vWNC/Zd2PIw4jHxSeBQLKzs4Gznm9ubrrlqBr+bsm98OIrFgiR8MLOzk7uhBNO0EiGfKZ++TsHkFNFRVURy9JPBfoDZwiCkMzkhVwJWVWSGb1ujyem6zohCAIHPhBZNpE7zfOPRFx4niUMkF84bPJbUXV1piZqr/v7ghUQvsuyuJnudv+vmIh/pihKmKZpWRRFnMBwgudtlKJIJGZiOCJxZJqYQRAY6EipOJi1MMTiOAEiYFEMI1iCwPhEQtymqvr/rl3bfIhjvGhq2ZWmoT3b0dHpLigoAAJZ2tTUuOAYYPsfuYXP5ztLVdUnRFEsBr0wr9e7m2GYBQcvbvt3przcd/teWZvF4XCY5ziug+TZ2R9u3DjsXXJRWfV9siQvCkfCtNvtDDAUde2RmLB8vgtrvs0D2ZoHJ2uSJOtMTLtxw4YN3yfzgXQJRVFP9Pf3XxWNx9Cpp566KxiOXLW2pWXT0QAMpCAm5N93d3X5wISFYWgNTbuvHCiZFnKnCIJ5ch+BgAkLw8xbGxoaDgjLrSqtOsfh9ry2fef2H5sYAlWDrzVVndvQsGLYIdKDPdOvC6fOtNld93d0dJxKEQQqKBjz9/4+/6LNmw6NLDwaXI7Fb1OSQCqmTZtG0/RTX235pgAIJC8vD2SRb2tZUV97LECpmn7xrGAw9MzesqNusEHabLYXO3Zsue1wiXHDaRfMNzhOPhaLx2+ECnHZ2dlhZJqLV69ufnrf70tKyi+UZelZQRDyoG2CwH/f15c/59NPj07SYMKsWSzrjz4qydLNgUA/ecKJJ0qqKj++uqHuof377vP5CkmSfjIUCp0FJ45vkxgdICoo87ztb4jA6+wchxg7XxgOCZP2dHSzLk86Qpryvqqp933yfzYfVqm1rKzMY1L873u6+ioNU0NpTsc2TDeW6IhY63CQwa6uLjUzMzN5zLCH7biUIWGyLGOQrc2yrNnf329Go1Hd4XAQXq+XhO9M09QxDCMSCQbXtP74YD6N4uLSyw3TeLajoyOtoKAAkRS5rHlVI5zARiRuOZyxPl7XTJoy5TpVVR5XFCVN13Wwuz/68ccfD1pbpLSi8rZoJLI4EonYgEBYhp39/vvDJ5By30ULRUm8v7e/j/Z4XAGeYuYckQnropnTVE19tmPPnnyIWGJIto5ksBv2PwUkywAQ+FJRkmaDdEr+mDGQGDq7oaFhxD6X/fGvAZVilntj67ZthTaHHchrNc9nzhrIpzCrapZbt6MnO7u7rwqFkomEfRhh3FK/ov4AnbVZM2f90CSJ17Zt3/ZL2FyNGTNmD4Fjt9TWvnvUuWi/mlR8nd1uv7e3t28c+BrHjRu7GZnmooYV7w4rMfF4zb2B7puSBOKrrq4hGWbZli1bTqA5GuWNye8wNP3OY6XGWzntotJwJPpGOBzKAke2x+N5W6HxG9cfZQGYSy+9NF9WtFf9fn8J6PLk5uSAfMX9q1c3fR8iWFZWNlEUpd8KQvRk2P1nZmauEoTwFUcrtld9+eWZpIK/1OvvmwZOv3HjCgI4ju5pqH33gPh2n883lSCoJwOBwOlQQQ9edp7nYYFudzpdL61a9W22f3FFxekUQd8fDAkzevv7UWaaJ84w9Ou6kli6efPmQWt0QJSRJyv3j8FAeCacbOwsvdlG0rPb2o9/cZ/vCASicdLBhIUTxJPnn3fu/JFWBhzpCwrFsT7//PM8mqahyNhRiSYWFxefHY1Ha6PR2MkMw8acdvtTGzdufHCwPoEPRIgKSQLheb6L4ZgbRuIDKS6pudcw9aQJi+f5sINlb1qzZtWfR4pBaUXFRSROPt/d1ZWVlG+h2JU0S9ywvyMbIpBcHteD4XAE/HRYZmamKCXEOzdt2jSojMhw+jFp0qSfpHvSX969e9ePMAKHU3Wzw+G4aqBw2+nTp7tY1rGss6vzGiAQUOOVlPhNa1evPUCo1efz5WZk5P5267Yt5fA+5efnh3CMuLu5uW7Y0YiD9f2CScX3mCa6KyII6XBac9r55UhH9w8lhDocLI71NSlJIOWVNdU0Qz2xZdvWk4BA8vPz95iadveqg3YJRwpWZeX0MyVNruvv7z8JxwjQkHqfo9nr29qajqqCWXX19EkmMl7q7u4+JSnfkZf7N1WR72tpafnetglhvImE+GY8nvgFXJOdnf130yQua2mpP6r6zSUVM35qGPrLvX3d58B9x48f97Wpazetqq89QL6joqK6nCCwp/v7+08GZzk4pWma/tzAzCd1RVm+/+6+uLJySiIqvuwPhk+icQw5XY7duiw/7nLZ3zhcItWvJhU9H4sl5imKgjEk8YnTzlzV3t4+7OS4Ix3X4uKSK3TDeKa7uzttzJgxSQKxccyCkSrLjqT9srJLPHZOv0jRlJ9pqrFdk5Wm1vWtQwppDtbGpEmTCgxkNkYikbNxHE8wFP3MRx99tHCw66eWlt8uRCIPCcK3UVg8x9/Y3r5h2Dv6Et+FsJg/HPCHmAxvmkBg6LZN61vfGAkGcG1FRdVNFEUu2blzpw1MlxRFr1BV6cbNmzcfICdSWl5+FY5jz23busMBp0RFlpZu3Lhh/kjb2//6ap/v6oQoLe7v789lOBY2RI0IoWv25Tbtf+2lUJcGUUu7e7qvC4UCRG5ubi/DkfPqDvKvzpo1i9UU7PE9XXtu6e7uBie6HI3FHt2wrhX8VEf8AVVfUTEegYTNjo4ONiMjw8zwZj6mScJjw6ydcsRtH8kPU5pAtm7dehLD0Sh3TP6OvZ7X+5pWHminPBJA4DewC1EMtLKnp3eymJDgBNLBkOTCQKDn7aMxYxUXl9yN4fi9XV1dEG2CxuSPfSuRUBbur/0EYa6SJL8hSfIloBKbkZHhJwjirv7+3sNqSw31rKXl0+aKkvJQMBxIh7bz8rLrFU2+s6Wu7gCNqzKfr4bEiKd7e78VKczKygrjOP5Yc/MqMJMcbOrBCssqH5Elaa6/v88Fjl2WJD5BJH7HBxs3fjBYnyYXl9yh6ebDYJd3cLx/b8r1AyRpvjGU/2SoZxzq+ylTiq5GGPZkd3e3B04gCMOeEuPRBccrjBci3wiMuIsgyOsFQRjr9XpBDucPuqnde6SLQUlJyblxMbE8FAqdTJJknGNYIJD7B3v24uKSO4Ro9EEgEJvN1sPy7NwPNm0adiZ5UWnlbQzLPfrVl99waenuRLrTdUciEXp9JJiBE5vh+Kc1Vbtm186dyRovPG9bQZLY3IMd2ZBIKKvKW0IkdgJEa9l4W7NpauBIH0w88bDDnpTNwYhnZUW+JBgMMuDwxnF8RVpa2uyWAfJ/4N1nGPuSru6u2UAg48aN65XVxNzVTasPiTy7aNrMmb2B/pdAPQDmPm/j36FJbO5A9x1qbu77fkJh6Y8xzFgshKNTIWTb5XL1udPcdzXXrzggD2W49zve16UkgcAixzHc0q+3bkkSSF5e3leGoS9sWtkw4vDCwQCuqrroSUWV53Z2drJQqjYnJ/tdIRF9elNb26BV9Q43WJWVlWMSovyiIAgVkIeRmZkZYRnmvvPPP+/lg00oU6eWLlBV9W6/35/Ud/J40upUVXp8zZo1wy4ru39fSmtqCpCKPycIQiXIqHi93pDTYVvUvGrlbw7uc1mZr4aiyOc69nTlg7JoTk7OpxiO3VJXN3AVuqKKivHIwB4Oh0IzI5EI4XE6JKfD/ntFkR8eSI8K2ptcXDrVMNFvYVGlMBzybNbuLeT0xAcfbDwiqRZYqL1eLxuLxdTDnXyKikquNk3jqa6uLnCig3/pqa6uzgVHsyk43JjDZgDTscUJSZzX0dHBwWlu7JgxW2RNv661temIonWqq6uv6+jqfELXdTdBEBEbxz/S3t4+qA9k6tTS2wRBeCgUCjnS0tL8pqnf9tFHHw3bBFVUVnUTTTOPbflmmz07JxORJnqCILSnhqvmC/iUllb+D0FgL0Sjwvkw/yAYg8Tw91RDnXfwCQRCeQmSeDMYCPvgty6Xqwch7Jb16w80IQ13YayqqipSFO0Fv7/vB7AhcjmcEOH3LsnSNwyUQwMEQtO2x3q6u+cEQ34CfCCqKt/Q0nKofAto1mmGury/r/90CBR0Op3b9kakL1i3bs0R+WKheJauY7MJkryjt7cvA0zYHMe+z7H8ratXN3w+3Gf+T16XkgRSUVVVxdIsEMgPbDYOpXu9/zcai8x/v234zsGhQC6vnFaBY+j+3p7e8yHunuO4bo5lf8swxDMjTShM5j4YaJ6uaTfv3r07G6oUchz3mdNhu6y29tA6G8XFxT9BCHs8FotPBLJxuVwBgiBettm4JSPducILybLO2yRJmReOCulACjRNfuTgbdcOZBYrK/P5CAJ/sbOjOx9OKrk5ee8aSL6rrq5uUInz0srKM8WE9GY4HDkHQnJhp6vI4m+dTueygeTcQeCR5rDn+/v9F4P92ONySSRFvImZ2n3t7e3+ocZm/+/BRGRisVskSTwTR3iYIMi6tWtbBgxTLSqaeiWGYWDC8oAJCyH0dDwenT+S3fRI+gbXlhSVlBgIPdXf13cq+HxOPvlktJc432AJZsmqtUNXiNy/valTp57P2vjH+np7p0CEXEZGxi4cYXdt3Lhx0AWrsLD4+r0FlpZEo1G32+2OmqZ53+bN7w87MW9yUdk1BsKWxqKJZP7JmLzcdlWXH2hbvWrQE+b+fQYSTUjK7TRJzhcEwfndqRqZmv4uZ+duHGi3Xji18HZdMR8CyXvwwXEcv0FVtSWbN28aUYTT1KlTx1EU+2AiEb88Ho9C/hBiacYgMPwth6HNXfXhh4ck58K7yrKOR3p7em5MiDEyMzOzl6KIuQ0Nh25Owbf1j3999ZIsybN27tzJADGyHN2II/OJtra2EVeaLCycOpPjbbd3dXX9WBQlcMyHEvHYb3HceOh4n85HOq/3XZ+SBFJVNa2KpMglW3ds/yHDUCgrN2c7ZhoPNa6oP2bHPChARBDULf2B4B2SKKXDDsNmt/2doZiXdJ1u2LChflhHagjdDcUS1xiKdn04HD4LIaiIliE4HY5XTj/91AWDOHCx6upp1+6VkwYzT/Z3jvx/a5q+TFWlhqGyj/cNLuSddHb2XkcxzJ07tu0aD3kd48aP7YiLiWfbN6wdUBrB5/OVmSb2Undnz9jv6oG8ouriwvr6wz9vYWHxXE3XF/n7+zPhdw6H/d+6jm7etGlg5dfyadNKVUl7qauzqwBIzeFwdCMcW4rr8lvDJRGI2qEoZq4Qjd6qqmoGSZKC3eF448zTT71jIFxLSkquQAh/tqenx/OtlLv2TH5+3j3Hs2jPrAmz2A68a76qKreIouiGscnKygwqivKaGlNf2PjxwPUwDn6hIQ8EIXS/LMtXhcPh5GmGJMkmhmHuaG5uHrTK5NSpZVcKQvjJWCyeFDHkOfYNI2EsGm67FdXTf22Y2FO9Pf3nwQKc5nFFEnFhWV6Od1ltbe239ZMH+QB5IETMYFn2np6e7tMgf4hjWPDrITEef0tD+ryB5nJRUdEZLMs/3d3dXQiqtF6vV6Uo5h1FMR5ob1+zcziLXUlJiVdRjDvcHhdoWqV3dXYmq1fyLKeYJnrTnea8ZaDNGCT7mjr+YCKRuLmjYzd1yimn9CXi8Xkta1oGJOmpU8snMwz3UCjU/wsIrfZ4PBHTxP7sdPLLVq9efYCC9WH6jRUXF08wTfymqBADCwUJdd4pmmokSfL5DRvWHlUY83DwOtJrUpZAMAJ/dNfOnadRLIUyMr0ibqLXDVX7o2manRDWSbkpnDd5QodUToR0iqKS9ns6kTDjFIWzLAsFdvB4PK6fdtppgYEWHKjdICnG04l4vCwejzNwpKRp+l8sx71Hk8xbra0NB2Q6HzwIFdOmnS4mpCrDMC+OhsKniqJIOJ12LS8vt5Ek8AfeGaTMK9znl78s8zidxLOCEJ4WCoVskEDn9WZ86XS6lguC9IeNGw8/OQsLC0+mKGaGImtXB4Oh8TQDldjEYEZm+h84hnxisCI3FRVVJYZhvNTT1TPuOzn3NxQ9ce/hiuJAf6eA7ViSnwr6A1dHIhEMdvgEgb+lafiiweqXlFRULhMisRsFQeCBRNwezx6eZpYHg6Hfffxx+2EDFkCvjKHp60kTu2rnzp1psDveW25VzsrMfvGMM35410DjWVZWdtneNfD5zs5O8IFAguTzLEvfNdRCeKQv177f+Xy+k8KB8OMmQmWCIIBJFHxLfk3X6xBmvG232/9yGEc+VlZW9kuapi8PBoMXRyIRB2wE0tLSep1O54Lm5uZDFJX3729RUUmVKCaekyRpLGDsTc/oisdjT9Es/fpwTtJTpkx3sU78Xn9f8JZwOMx4M9KQy+n6QowLL8gyUfeXvwysIzZhwgQ7Z3NejmPormg0Oh6ZZrLyI4kTyag+VVbe4p38TYP1weerKZMk8aXu7q6xoKKb7s0C4N6TRPHN998/fGJhcXHx6QinrzUN49JYLOaVpARioVQx1CPHcJFl2T9E48IdH3/88SE1VsCJnZ6evbCnq+t2QQjTOTk5/bqpQT+XDzYPqqtnXBoM9C4FiR8wkeEk0YtM1KLpRl1JSWHr4aL8wEJAkuTFum5eLMvSz2NRkYbQeQxhX7o87ifWrVt9iIjj0c7HY/n7lCSQysqaaqia19HZebqiK8nSpFlZWYFgMPAxiRF9hqHrGE6QFEURhqYZkHiGNAMhYm9VAYIkaJJkcBznMRyjDN2Ih2LCB4zA/KG2vTZ2CAmUVFWZBJrd7/dPkSSJ4mzJOPJOj8e9XteNDZosf0aSvF9RQqKmaTrj9dKsgrIFKfZjhLBSTVVhZ5LLMgyQluKyO/7XbrPd/957bw+5q/D5fL/QNPP2cDhUEolEOCjDimFYN8Mwq00T38BixGdRBfk5TlOAIFVVZUmSTN8rV302w7DTBCE6ORZNpIEZjCTIkN1pbzZN/OH29rVbB5tEvjJfmW4YL3V3dI+12x2ghvpWXIvdvWrVofWjD75HWVnVebqu/F4QhDP7enqh5rig68ZrGGE+MJApC7SeSMZ+b09f73S/389D1jtD0WGWZVp1XV1j4ugTXST7ILcQ8kCiBEE7DSpDUqUzWJttmqHJlZ279zjANORyuWSH3bGeovCljY2NA2YuQ713XdeW7dy50zVu3DgwI75O0+TNR6NyPNyXcdKkSZMonLktIcaLY7FYsvZHbm6ugmHmJ3Yb/54Qjn/IkmYf0rSEwjCGaZo2CqExNGv7KUHi4F/6USQSweFZoayx2+n6s5CI3TWUc9nn852iKOorsihPgN08bIKysrK29/f3vYYR2PsIkSxBECSG6X2maW4daJymVtScL6vGayF/4GyoqQ4nzNxM75fxRGIlQkazohDbog6UyEUIZOjtiYRyWm5+vg/H8BnxaDQXnpXA8aSSga6oYOJUTcN4x4GUeQOZkQBTENSMRKKLFVm7AfKxQAnB4/HEKZr+UEfYSt0wP8a1xB6O40RRFDG3282Gw2IGxZI/NU28miCJSfF41A1k7XY4UUyIIsgtoUgy7rDb3iEZ4taBntXnu9rh4LT7t2z55mbT0EAtIkBQ2G0NB2lhHWSmc5qyfj/J0Ffs3rkrExE4Snd7wiRL/00XlVZF0z7xuvhvNIaJQd4Sz/OU0NeX7kpPP9XAyV8ahlkjSeLJUPUU6pU4Hc7tHM//WVISzw81vsOdf8frupQlEE1TH+j3+8+OxQXE2+1JzSSYLBzDgH5UspYCvGw4wpL/jwwIuoEdCJb8G/4N/sDv0tPTvmRZ+z0rG1cOKDJXWDh1sm6ge+Px2M8j0RgLO/NkiVgb3+d0Onspmu5UJDFIc5wZF2J2SVXynXZb3u7du0FFFY6joMcR8Wak/4UhqVfq61cMW04bVHRJEn8gEglNTCREJ0RmuN1uncCpHoqiOjmbrZcgiGg0GsERMp1OlyMvGAzk6KqRCXZyVdGRy+n0syzfYHPYn2pqWnnYnX15SXmFifDfdO3pHAvRMgXjCpaLavy24Rayqq6edl08Hnu4q6MrG05N6elpexx2x92rWlYdkIi1b0JPADs1Ti+ORqNVkiTZZVFKFnriWcZvs9l24zjRqSEtKIqyaeM4ZzSRyDENowDDsNyuri5kt3GIQFjQ5XI1OtLcj9cvXz6o7Hdxcck8Xdcf3blzpxOc6BzH/0lRREhmG7Q08LF88SZPnjwRN/G7EqJ4QSwWs8GJgCAwkCSRWJbrJkm8jyDIiKaqBsIwl2ma2dFoNFeWZQZOWIDnXnOQmObxNJMM/Wh9ff0Xw+gfVlxceiNFEAu2bt2aB+9IsiIgQcRJkuwNBCMmQRJKbk72P3RDeaVlkKzvXxdWLDIRurl7z+705Ekcx1BuXq4qKdIOHCO2EyTer0gysjscGbFY7JREIlEAGzin3SHZbPadOIZ1CpHIObt37kx3Op0iR7PvqYQKJqxDNm37nglqcyBEzA8Fw1cGQkGvCjVceDtCOB5wOOx7DBNtIwwjqbiMk4QTx/AxoiSNF0Uxy2az4RRFRew2279Jhvgm0hf6n96+3gIbz2s0TTfZHCzkoBwijpqMGCNti4L+/rl+fx974oknBk3TuLN57erDnvQg2z3sD19vGsZsTdMKwJzFQcIty/gpiu7UVG0Hz7MhHMcMgiJcpmHmJBKJsQbCc/zBAAlzAa4nMHw7x7Kv60h/Y/8s/WGM86hckpIEUlFRPUnX1QURQZgoKyLB2WzJ43GSEGQ5SRDwsn13ZP2WLHQjCfB3SkrJfwOigWtYlu1Mz0i/tbG5edBazxUVFxYhZEwPR6PFmqGPgd0ctAFOPkXXktnacC/InQBxNV3Vkt8jZOo2httls/HraJp9o7mhdsS1J0pLS89RVfMyDDMrZUk9CU4U0BaEOeJJpziNSJJAqiojIFRoV0okTTo6TbJbVV1vpGnmtbXDcNpWV1T/GseIF7u6uk/nOE7KzMx8XcfVB2praw+QRh9stoLJg+fU+7s7O6+maNqDYZiem5vTKKvyTYOdYgrLy0+WYspsRGDTDV0vAGxhvL4bm+SuGf4Ew6Fks7CYypqK3A6HwTLU13I8Uev1pr/Z0HB4k2Jpaeklpokt6+rqyh2bP0bFcewVmqXvPN4mrIN2q+fKonLp3tyaqlgsdqIiJZLjCPPxW0Ihvt/8wOYG/g127hB4wfO27SRF1HMU9fLyIZ51/zZhcUvEEjcoinKdpunJ8OzvgjNQNAanEgiWyPknMvTbaw/KC9p3n+Kay3KkaPgmmiSujgrRrIQAOmYMShbmcjiScxCeYR/RwXuYkZHxFYkRf6II8q8Ypsvd3X1z47HoFKfdYaqK8rYry33PUIWXICoqGBTm0AxzWTQR/2E4FKFImkrOcc5uQzRBJ+fJPrl78LOQJKmnp6f/7YoNWQAACL5JREFUk2OZ3xmm+bEoxyJI1C/v7um+lGdB0YVrcnr42wbygUAtIML0356Ix++IRELuvLy8XSam316/atWQoc9APqZiztI1rUyS5fM0TU2HDd+++QsYwZoDGMGYwzwHUvz2/SUTOIb/lWG5hrAQePejjz7qGxVGGGGjKUog08drWmJWPJ4ooxg8XUeITHd7SFGUcJIkTJhcoiiaFEXpuqqphmGopm5ANrVJkBRJ4BhN4iRtYiahKYrK2W1/ozHsgbdqa/9xOPwgQsMgqItNw5gRiyfOVGQpQ9ONZHQHRE3ouoa4ZLU1Em4DhY38LM38Q9e19+y0e3VT0zsjijA6aBGgVVWtEhPKTEXVzlMVOUuWFVrV9eSLCwsPQeAIx2GOGrHsrMz+WCzxCc8zb8fj/Mb2AcxzAz0rZNiytP0ef0/PJNrGCzaaeW5l00pwIA5b7gOqBDrtbghDLiIJwu5yub9UdH1xU1PdoPUrIEPdmzUG6l9couv6uZqmZcqyTCmShOAZwe4PLyIsqHtDnBOe9LQeHJl/oRnyrTE5OZuG4wgvLy8/m6KYRwIB/7m52Xm9kiK90NBQ9x+3MUPGNYmRxSRFXWzq6v+EQqFsh8PBweIHC863kUccPLNBUlTM5XL26ar+CYaj9zjJsW4gU+tQ7/2ECdPtNps8DRnG5bIsn8EwjCdpStMM0zAMf8HY/AZJER9pbGzcM9i9ioout+kocA1LM5eK8fgPFEVxK5qGItEoAtE/KIDEsyz4HHsdTscnBjJf3djW+r3u1qRJhdMTkegsEMd0O9zvtm5qHXbQS3Fx+U90HM3RNW2ioii50ViMIUkKQnKT3SVJIDBdSsvI7CVI9AmFMy+2rHrvezPxpEnFP+rr7bshMyPTyfNsbXNr46CbxRkXzihSROU+UZWyXHb+Y1FTH121avgRc+XF5WfHE/FpNEMXyaJ0iqZpbiA4GFs41cPf350mEUFTUZIk9ximvhEzsHfaNo48emuosT+e36ckgXxnIx2bSMhnYpgB1WkQbuIkiLV+CxYGJAJHDpD91kzTNMCilSQQAgftJAyWW0TosBipNE3vrB2CPA5azE9SVf2XkiSdxdn4EyLhsJO3OUhRTJgEQcUwZPQZurmDosivbDb277W1tYP6HEY6uCA4J8v6T2027vxoNH4yz9vSBCFK2228LopijCDJXpaltui6+QWO858fCWmBXhXHOU5VFFXMzk7/53AW54OfA6LP4vH4OJZl8ziO8yuK8vVwdvoQ4qtp0fM5m/3saCRyMsMwGZKisDRFwSlTInDcj2HYNoZh/s4wxMcNI6xPX1VVdQ5U/CMIYocgCF/8p8xXA40z4Ezj9FlRIXIWTdOnqJqWSeAkaxq6ieGYgONEl6oq2+0O51ekRv57oAp6I50/NTU1J4ii+COCIMayLOuMx0V4H3YwDLXhcOSxfztAxKaJ/9w09TMkSc2kGMaWiMUwRVXDFE7uIijqC4piP1y//sBql3CP0sLSc3ScUGka7RhpSDrMfYSI8xGO/UgICz/gbGy6ougsRVGKLMlBHENbWJb5XGepv62tqztETqe8vDwPAmcikUj3UKHbM2fOPB1ybVRV3TKQ7PtQuENl0bA//BMcN36sadoJJEFlG6ZhB5FQiiRVRVWiJoY6DITvYDjmS5qmPxsq0nGoNkfj+5QlkNEAa6A2IWrD5RrDaFoQY1kWE0URajjHj2TRHekzQQKd0+nk7PY8MpHoNhMJh9rW9qfESE4LI23zP3k9xNm///77vNfrJVRVxWIxyjycWOJ/sm/Hoy0I+d2JdpJ5eXl4MBiUhzLvHI8+jPSeEKorCBTt9eKELMvif7DPmM/ns+u6Tsoyb/yXzwvs0pISh4IQhIIRyLTp/WK/eDj/z0jHYbSutwhktJC32rUQsBCwEEhxBCwCSfEBtLpvIWAhYCEwWghYBDJayFvtWghYCFgIpDgCFoGk+ABa3bcQsBCwEBgtBCwCGS3krXYtBCwELARSHAGLQFJ8AK3uWwhYCFgIjBYCFoGMFvJWuxYCFgIWAimOgEUgKT6AVvctBCwELARGCwGLQEYLeatdCwELAQuBFEfAIpAUH0Cr+xYCFgIWAqOFgEUgo4W81a6FgIWAhUCKI2ARSIoPoNV9CwELAQuB0ULAIpDRQt5q10LAQsBCIMURsAgkxQfQ6r6FgIWAhcBoIWARyGghb7VrIWAhYCGQ4ghYBJLiA2h130LAQsBCYLQQsAhktJC32rUQsBCwEEhxBCwCSfEBtLpvIWAhYCEwWghYBDJayFvtWghYCFgIpDgCFoGk+ABa3bcQsBCwEBgtBCwCGS3krXYtBCwELARSHAGLQFJ8AK3uWwhYCFgIjBYCFoGMFvJWuxYCFgIWAimOgEUgKT6AVvctBCwELARGCwGLQEYLeatdCwELAQuBFEfAIpAUH0Cr+xYCFgIWAqOFgEUgo4W81a6FgIWAhUCKI2ARSIoPoNV9CwELAQuB0ULAIpDRQt5q10LAQsBCIMURsAgkxQfQ6r6FgIWAhcBoIWARyGghb7VrIWAhYCGQ4ghYBJLiA2h130LAQsBCYLQQsAhktJC32rUQsBCwEEhxBCwCSfEBtLpvIWAhYCEwWghYBDJayFvtWghYCFgIpDgCFoGk+ABa3bcQsBCwEBgtBCwCGS3krXYtBCwELARSHAGLQFJ8AK3uWwhYCFgIjBYCFoGMFvJWuxYCFgIWAimOgEUgKT6AVvctBCwELARGCwGLQEYLeatdCwELAQuBFEfAIpAUH0Cr+xYCFgIWAqOFgEUgo4W81a6FgIWAhUCKI2ARSIoPoNV9CwELAQuB0ULAIpDRQt5q10LAQsBCIMURsAgkxQfQ6r6FgIWAhcBoIWARyGghb7VrIWAhYCGQ4ghYBJLiA2h130LAQsBCYLQQsAhktJC32rUQsBCwEEhxBCwCSfEBtLpvIWAhYCEwWghYBDJayFvtWghYCFgIpDgC/w/IfB3KgWGakAAAAABJRU5ErkJggg==;" vertex="1" parent="1">
          <mxGeometry x="1115" y="140" width="130" height="116.03" as="geometry" />
        </mxCell>
      </root>
    </mxGraphModel>
  </diagram>
</mxfile>
